<?xml version="1.0" encoding="utf-8"?>
<!-- Generator: Adobe Illustrator 27.5.0, SVG Export Plug-In . SVG Version: 6.00 Build 0)  -->
<svg version="1.1" xmlns="http://www.w3.org/2000/svg" xmlns:xlink="http://www.w3.org/1999/xlink" x="0px" y="0px"
	 viewBox="0 0 1122 1122" style="enable-background:new 0 0 1122 1122;" xml:space="preserve">
<g id="Bg">
	<rect style="fill:#FFFFFF;" width="1122" height="1122"/>
</g>
<g id="Object">
	<g>
		<path style="fill:#272425;" d="M206.408,795.111h-95.052c-6.439,0-11.65,5.211-11.65,11.64c0,6.444,5.211,11.654,11.65,11.654
			h95.052c6.439,0,11.65-5.211,11.65-11.654C218.058,800.322,212.847,795.111,206.408,795.111z"/>
		<path style="fill:#272425;" d="M459.256,931.242h-0.019l-221.592,0.435c-6.429,0.01-11.63,5.235-11.62,11.669
			c0.009,6.424,5.221,11.625,11.65,11.625h0.019l221.592-0.43c6.419-0.014,11.63-5.24,11.611-11.674
			C470.886,936.443,465.675,931.242,459.256,931.242z"/>
		<path style="fill:#272425;" d="M665.177,861.03H524.261c-6.438,0-11.649,5.216-11.649,11.65c0,6.434,5.211,11.645,11.649,11.645
			h140.916c6.439,0,11.649-5.211,11.649-11.645C676.826,866.246,671.616,861.03,665.177,861.03z"/>
		<g>
			<rect x="329.173" y="253.182" style="fill:#FFFFFF;" width="458.483" height="521.893"/>
		</g>
		<g>
			<path style="fill:#020202;" d="M791.445,784.975H325.384c-3.375,0-6.111-2.736-6.111-6.111V249.393
				c0-3.375,2.736-6.111,6.111-6.111h466.061c3.375,0,6.111,2.736,6.111,6.111v529.471
				C797.556,782.239,794.82,784.975,791.445,784.975z M348.764,765.176h419.302c5.352,0,9.691-4.339,9.691-9.691V272.772
				c0-5.352-4.339-9.691-9.691-9.691H348.764c-5.352,0-9.691,4.339-9.691,9.691v482.712
				C339.073,760.837,343.412,765.176,348.764,765.176z"/>
		</g>
		<g>
			<path d="M703.354,430.477h-289.88c-5.467,0-9.9-4.433-9.9-9.9c0-5.467,4.433-9.9,9.9-9.9h289.88c5.467,0,9.9,4.433,9.9,9.9
				C713.254,426.044,708.821,430.477,703.354,430.477z"/>
		</g>
		<g>
			<path d="M703.354,550.075h-289.88c-5.467,0-9.9-4.433-9.9-9.9s4.433-9.9,9.9-9.9h289.88c5.467,0,9.9,4.433,9.9,9.9
				S708.821,550.075,703.354,550.075z"/>
		</g>
		<g>
			<path d="M703.354,667.755h-289.88c-5.467,0-9.9-4.433-9.9-9.9c0-5.467,4.433-9.9,9.9-9.9h289.88c5.467,0,9.9,4.433,9.9,9.9
				C713.254,663.322,708.821,667.755,703.354,667.755z"/>
		</g>
		<g>
			<polygon style="fill:#FFFFFF;" points="695.383,511.453 682.583,585.609 683.676,585.415 756.734,572.809 756.734,572.533 
				726.644,542.452 695.649,511.453 			"/>
		</g>
		<g>
			<path d="M676.507,591.711l14.707-85.208h6.219l1.716,1.45l62.535,62.528v6.221l-4.109,0.984L676.507,591.711z M698.675,521.481
				l-10.021,58.052l58.059-10.018L698.675,521.481z"/>
		</g>
		<g>
			<polygon style="fill:#1E1D21;" points="682.574,585.609 683.695,585.401 699.661,582.409 693.174,575.922 685.561,568.318 			"/>
		</g>
		<g>
			<polygon style="fill:#B889BE;" points="695.147,511.221 726.518,542.588 756.734,572.804 869.604,459.939 839.383,429.718 
				808.021,398.351 			"/>
		</g>
		<g>
			<path d="M745.683,575.754l-53.484-53.481c-6.104-6.104-6.104-16.001,0-22.105l104.771-104.767
				c6.104-6.104,16.001-6.104,22.104,0.001l53.481,53.484c6.104,6.104,6.103,16-0.001,22.104L767.786,575.754
				C761.682,581.857,751.786,581.857,745.683,575.754z M713.362,515.434l39.16,39.156c2.327,2.327,6.099,2.327,8.426,0
				l90.442-90.438c2.327-2.327,2.327-6.099,0-8.426l-39.156-39.16c-2.327-2.327-6.1-2.327-8.427,0l-90.446,90.442
				C711.034,509.335,711.034,513.107,713.362,515.434z"/>
		</g>
		<g>
			<path style="fill:#F2ED7C;" d="M937.892,268.481l-9.068,9.069l-8.126,8.126l-94.69,94.685l31.367,31.367l30.221,30.221
				l94.68-94.69l8.135-8.135l7.604-7.589c0,0,31.714-30.187,0.942-61.394c-0.111-0.111-0.174-0.217-0.285-0.324
				C967.344,238.492,937.892,268.481,937.892,268.481z"/>
		</g>
		<g>
			<path d="M887.596,451.847c-2.625,0-5.143-1.044-6.999-2.9l-61.588-61.588c-1.856-1.856-2.9-4.375-2.9-6.999
				c0-2.625,1.044-5.143,2.9-6.999l111.884-111.879c0.573-0.585,15.802-15.843,37.312-15.843c13.462,0,26.069,5.779,37.467,17.174
				c0.155,0.157,0.362,0.382,0.551,0.597c10.886,11.147,16.276,23.476,16.065,36.691c-0.35,22.078-16.749,37.938-17.448,38.603
				L894.595,448.947C892.739,450.803,890.22,451.847,887.596,451.847z M846.376,386.727l34.853,34.853
				c3.516,3.516,9.217,3.516,12.733,0l97.058-97.053c0.247-0.239,11.326-11.159,11.473-24.872
				c0.082-7.766-3.478-15.357-10.586-22.564c-0.126-0.13-0.293-0.312-0.452-0.491c-7.589-7.456-15.359-11.161-23.251-11.161
				c-13.063,0-23.188,9.919-23.289,10.021l-98.539,98.535C842.86,377.509,842.86,383.21,846.376,386.727z"/>
		</g>
		<g>
			<polygon style="fill:#FFFFFF;" points="808.021,398.351 839.383,429.718 869.604,459.939 881.384,448.149 851.168,417.928 
				819.806,386.566 			"/>
		</g>
		<g>
			<path d="M869.607,466.941l-68.585-68.59l18.784-18.784l68.578,68.582L869.607,466.941z M815.021,398.351l54.581,54.586
				l4.783-4.788l-54.579-54.584L815.021,398.351z"/>
		</g>
		<path style="fill:#1E1D21;" d="M909.619,262.163l-0.111-0.106c-2.949-2.953-7.739-2.953-10.688,0l-79.347,79.342
			c-2.949,2.949-2.949,7.734,0,10.683l0.111,0.111c2.949,2.949,7.739,2.949,10.688,0l79.347-79.347
			C912.567,269.897,912.567,265.117,909.619,262.163z"/>
	</g>
</g>
</svg>
