<svg width="151" height="131" viewBox="0 0 151 131" fill="none" xmlns="http://www.w3.org/2000/svg">
<g clip-path="url(#clip0_98_1330)">
<mask id="mask0_98_1330" style="mask-type:luminance" maskUnits="userSpaceOnUse" x="0" y="0" width="151" height="131">
<path d="M151 0H0V131H151V0Z" fill="white"/>
</mask>
<g mask="url(#mask0_98_1330)">
<path d="M151 0H0V131H151V0Z" fill="white"/>
<path d="M151 0H0V131H151V0Z" fill="#B3BF33" fill-opacity="0.78"/>
<path d="M15.1 0H0V13.1H15.1V0Z" fill="#B3BF33" fill-opacity="0.19"/>
<path d="M15.1 0H0V13.1H15.1V0Z" fill="#B3BF33"/>
<path d="M45.3 0H30.2V13.1H45.3V0Z" fill="#B3BF33"/>
<path d="M45.3 0H30.2V13.1H45.3V0Z" fill="#B3BF33"/>
<path d="M75.5 0H60.4V13.1H75.5V0Z" fill="#B3BF33"/>
<path d="M105.7 0H90.6V13.1H105.7V0Z" fill="#B3BF33"/>
<path d="M135.9 0H120.8V13.1H135.9V0Z" fill="#B3BF33"/>
<path d="M45.3 26.2H30.2V39.3H45.3V26.2Z" fill="#B3BF33"/>
<path d="M45.3 26.2H30.2V39.3H45.3V26.2Z" fill="#B3BF33"/>
<path d="M75.5 26.2H60.4V39.3H75.5V26.2Z" fill="#B3BF33"/>
<path d="M105.7 26.2H90.6V39.3H105.7V26.2Z" fill="#B3BF33"/>
<path d="M135.9 26.2H120.8V39.3H135.9V26.2Z" fill="#B3BF33"/>
<path d="M45.3 52.4H30.2V65.5H45.3V52.4Z" fill="#B3BF33"/>
<path d="M45.3 52.4H30.2V65.5H45.3V52.4Z" fill="#B3BF33"/>
<path d="M75.5 52.4H60.4V65.5H75.5V52.4Z" fill="#B3BF33"/>
<path d="M105.7 52.4H90.6V65.5H105.7V52.4Z" fill="#B3BF33"/>
<path d="M135.9 52.4H120.8V65.5H135.9V52.4Z" fill="#B3BF33"/>
<path d="M45.3 78.6H30.2V91.7H45.3V78.6Z" fill="#B3BF33"/>
<path d="M45.3 78.6H30.2V91.7H45.3V78.6Z" fill="#B3BF33"/>
<path d="M90.6 65.5H75.5V78.6H90.6V65.5Z" fill="#B3BF33"/>
<path d="M90.6 39.3H75.5V52.4H90.6V39.3Z" fill="#B3BF33"/>
<path d="M90.6 13.1H75.5V26.2H90.6V13.1Z" fill="#B3BF33"/>
<path d="M120.8 13.1H105.7V26.2H120.8V13.1Z" fill="#B3BF33"/>
<path d="M120.8 39.3H105.7V52.4H120.8V39.3Z" fill="#B3BF33"/>
<path d="M151 13.1H135.9V26.2H151V13.1Z" fill="#B3BF33"/>
<path d="M151 39.3H135.9V52.4H151V39.3Z" fill="#B3BF33"/>
<path d="M151 65.5H135.9V78.6H151V65.5Z" fill="#B3BF33"/>
<path d="M151 91.7H135.9V104.8H151V91.7Z" fill="#B3BF33"/>
<path d="M151 117.9H135.9V131H151V117.9Z" fill="#B3BF33"/>
<path d="M120.8 65.5H105.7V78.6H120.8V65.5Z" fill="#B3BF33"/>
<path d="M30.2 65.5H15.1V78.6H30.2V65.5Z" fill="#B3BF33"/>
<path d="M30.2 39.3H15.1V52.4H30.2V39.3Z" fill="#B3BF33"/>
<path d="M30.2 13.1H15.1V26.2H30.2V13.1Z" fill="#B3BF33"/>
<path d="M30.2 91.7H15.1V104.8H30.2V91.7Z" fill="#B3BF33"/>
<path d="M30.2 117.9H15.1V131H30.2V117.9Z" fill="#B3BF33"/>
<path d="M60.4 65.5H45.3V78.6H60.4V65.5Z" fill="#B3BF33"/>
<path d="M60.4 39.3H45.3V52.4H60.4V39.3Z" fill="#B3BF33"/>
<path d="M60.4 13.1H45.3V26.2H60.4V13.1Z" fill="#B3BF33"/>
<path d="M60.4 91.7H45.3V104.8H60.4V91.7Z" fill="#B3BF33"/>
<path d="M60.4 117.9H45.3V131H60.4V117.9Z" fill="#B3BF33"/>
<path d="M90.6 117.9H75.5V131H90.6V117.9Z" fill="#B3BF33"/>
<path d="M90.6 91.7H75.5V104.8H90.6V91.7Z" fill="#B3BF33"/>
<path d="M75.5 78.6H60.4V91.7H75.5V78.6Z" fill="#B3BF33"/>
<path d="M105.7 78.6H90.6V91.7H105.7V78.6Z" fill="#B3BF33"/>
<path d="M135.9 78.6H120.8V91.7H135.9V78.6Z" fill="#B3BF33"/>
<path d="M120.8 91.7H105.7V104.8H120.8V91.7Z" fill="#B3BF33"/>
<path d="M45.3 104.8H30.2V117.9H45.3V104.8Z" fill="#B3BF33"/>
<path d="M45.3 104.8H30.2V117.9H45.3V104.8Z" fill="#B3BF33"/>
<path d="M75.5 104.8H60.4V117.9H75.5V104.8Z" fill="#B3BF33"/>
<path d="M105.7 104.8H90.6V117.9H105.7V104.8Z" fill="#B3BF33"/>
<path d="M135.9 104.8H120.8V117.9H135.9V104.8Z" fill="#B3BF33"/>
<path d="M120.8 117.9H105.7V131H120.8V117.9Z" fill="#B3BF33"/>
<path d="M15.1 26.2H0V39.3H15.1V26.2Z" fill="#B3BF33"/>
<path d="M15.1 52.4H0V65.5H15.1V52.4Z" fill="#B3BF33"/>
<path d="M15.1 78.6H0V91.7H15.1V78.6Z" fill="#B3BF33"/>
<path d="M15.1 104.8H0V117.9H15.1V104.8Z" fill="#B3BF33"/>
<path d="M20.838 66.2561L21.037 66.024L21.6029 66.5891L22.1064 67.2625L22.4048 67.8043L22.6349 68.3464L22.952 69.43H22.1459L22.4048 69.3682L22.3178 68.8882L22.1459 68.4237L22.0007 67.9591L21.7372 67.5486L21.4722 67.1076L21.2608 66.7982L21.0494 66.4885L20.838 66.2561Z" fill="#845A2B"/>
<path d="M25.3384 65.9187C25.5267 66.0329 25.3195 67.2863 24.6474 68.1203C23.1224 69.0462 22.933 68.956 22.9046 68.9388C22.7163 68.8245 22.6801 67.9421 23.3522 67.1082C24.0243 66.2742 25.1502 65.8044 25.3384 65.9187Z" fill="#6EA052"/>
<path d="M21.9216 68.6933L22.768 69.3383L23.572 68.9799L24.3761 68.6217L25.2314 68.4066L26.0778 68.3351L26.9242 68.4066L27.7616 68.6217L28.2784 68.765L28.7015 68.9799L29.0401 69.4098L29.2094 69.8398L29.294 70.413V70.9148L29.2094 71.918L28.9555 72.6345L28.5323 73.3511L28.1091 74.0677L27.4889 74.9275L27.1781 75.3575L26.8395 75.7156L26.4163 76.0741L25.7393 76.3607L25.3161 76.504H24.8929L24.0465 76.3607L23.2848 76.0023L22.9462 75.7874L22.6077 75.5008L22.0999 75.7874L21.592 76.0741L21.0842 76.2889L20.3225 76.4322L19.6454 76.3607L19.053 76.0741L18.4605 75.5723L17.1909 74.0677L16.6831 73.2078L16.2599 72.3479L16.0907 71.6313L16.006 70.843V70.1264V69.8398V69.6965L16.0907 69.4816L16.2599 69.2665L16.5138 68.9799L17.1909 68.5499L18.1976 68.2633L19.2133 68.12H20.2378L21.1599 68.3351L21.9216 68.6933Z" fill="#FF2828"/>
<path d="M17.5162 70.9588C18.2145 75.0858 21.049 75.6957 19.8916 75.7374C18.1873 75.5443 15.4187 71.2501 16.4254 69.3577C16.7611 68.9938 16.7142 69.327 17.2645 70.3038C17.0672 69.949 16.9976 69.7942 17.5162 70.9588Z" fill="white" fill-opacity="0.15"/>
<path d="M19.026 69.037C19.026 69.3988 18.688 69.692 18.271 69.692C17.854 69.692 17.516 69.3988 17.516 69.037C17.516 68.6752 17.854 68.382 18.271 68.382C18.688 68.382 19.026 68.6752 19.026 69.037Z" fill="white" fill-opacity="0.15"/>
<mask id="mask1_98_1330" style="mask-type:luminance" maskUnits="userSpaceOnUse" x="60" y="91" width="46" height="14">
<path d="M105.096 91.962H60.4V104.276H105.096V91.962Z" fill="white"/>
</mask>
<g mask="url(#mask1_98_1330)">
<path d="M61.9659 97.202H62.3355H63.5314V98.25H62.5638H61.9659H60.4L61.3217 97.7367L60.4 97.202H61.5962H61.9659Z" fill="#FF2828"/>
<path d="M69.964 92.224H98.548V104.014H69.964L67.3916 102.049L63.2469 99.822V95.368L67.3916 94.058L69.964 92.224Z" fill="#919D12"/>
<path d="M98.5483 100.739C98.5483 101.68 97.4013 102.442 95.9859 102.442C95.9859 99.822 95.9859 100.87 95.9859 100.87C95.9859 99.9294 95.9859 100.346 95.9859 99.036C97.401 99.036 98.5483 99.7984 98.5483 100.739Z" fill="#919D12"/>
<path d="M96.3144 99.036L96.3151 99.0334H96.3144V99.036ZM97.3068 102.18L97.3077 102.183L97.308 102.182L97.3068 102.18ZM96.3317 102.442V102.445H96.3323L96.3317 102.442ZM95.9859 102.439C95.9847 102.439 95.9832 102.441 95.9832 102.442C95.9832 102.444 95.9847 102.445 95.9859 102.445V102.439ZM98.2823 101.525L98.2844 101.527L98.2847 101.526L98.2823 101.525ZM97.8386 101.918L97.8401 101.92L97.8408 101.92L97.8386 101.918ZM98.548 100.87L98.5511 100.871V100.87H98.548ZM98.2823 99.953L98.2847 99.9517L98.2844 99.9512L98.2823 99.953ZM98.3708 100.084L98.3738 100.083L98.3735 100.083L98.3708 100.084ZM98.548 100.608H98.5511V100.607L98.548 100.608ZM97.3068 99.298L97.308 99.2956H97.3077L97.3068 99.298ZM97.8386 99.56L97.8411 99.5582L97.8401 99.5576L97.8386 99.56ZM96.9523 99.167L96.9535 99.1646L96.9529 99.1644L96.9523 99.167ZM95.9859 99.0386H96.3144V99.0334H95.9859V99.0386ZM97.5714 102.047L97.3056 102.178L97.308 102.182L97.5744 102.051L97.5714 102.047ZM97.3062 102.178L96.8626 102.309L96.8644 102.314L97.3077 102.183L97.3062 102.178ZM96.8629 102.308L96.3308 102.439L96.3323 102.445L96.8644 102.314L96.8629 102.308ZM96.3317 102.439H95.9859V102.445H96.3317V102.439ZM98.2802 101.523L97.8368 101.916L97.8408 101.92L98.2844 101.527L98.2802 101.523ZM97.8377 101.916L97.5714 102.047L97.5744 102.051L97.8401 101.92L97.8377 101.916ZM98.5453 100.739V100.87H98.5511V100.739H98.5453ZM98.5453 100.869L98.4568 101.131L98.4623 101.133L98.5511 100.871L98.5453 100.869ZM98.2799 99.9543L98.3686 100.085L98.3735 100.083L98.2847 99.9517L98.2799 99.9543ZM98.3683 100.085L98.4568 100.347L98.4623 100.345L98.3738 100.083L98.3683 100.085ZM98.4568 100.347L98.5453 100.609L98.5511 100.607L98.4623 100.345L98.4568 100.347ZM98.5453 100.608V100.739H98.5511V100.608H98.5453ZM97.3056 99.3004L97.8377 99.5624L97.8401 99.5576L97.308 99.2956L97.3056 99.3004ZM97.8368 99.5618L98.2802 99.9548L98.2844 99.9512L97.8411 99.5582L97.8368 99.5618ZM96.3135 99.0386L96.9517 99.1696L96.9529 99.1644L96.3151 99.0334L96.3135 99.0386ZM96.9511 99.1694L97.3056 99.3004L97.3077 99.2956L96.9535 99.1646L96.9511 99.1694ZM98.4568 101.131L98.2796 101.524L98.2847 101.526L98.4623 101.133L98.4568 101.131Z" fill="black"/>
<path d="M98.5483 97.333C98.5483 98.2736 97.4013 99.036 95.9859 99.036C95.9859 96.416 95.9859 97.464 95.9859 97.464C95.9859 96.5234 95.9859 96.94 95.9859 95.63C97.401 95.63 98.5483 96.3924 98.5483 97.333Z" fill="#919D12"/>
<path d="M96.3141 95.63L96.3151 95.6274H96.3141V95.63ZM97.3068 98.774L97.3077 98.7766L97.308 98.7764L97.3068 98.774ZM96.3317 99.036V99.0386H96.3323L96.3317 99.036ZM95.9859 99.0334C95.9844 99.0334 95.9832 99.0347 95.9832 99.036C95.9832 99.0376 95.9844 99.0386 95.9859 99.0386V99.0334ZM98.2823 98.119L98.2844 98.1211L98.2847 98.12L98.2823 98.119ZM97.8386 98.512L97.8401 98.5144L97.8408 98.5138L97.8386 98.512ZM98.548 97.464L98.5511 97.4648V97.464H98.548ZM98.2823 96.547L98.2847 96.5457L98.2844 96.5452L98.2823 96.547ZM98.3708 96.678L98.3738 96.6772L98.3735 96.6767L98.3708 96.678ZM98.548 97.202H98.5511V97.2012L98.548 97.202ZM97.3068 95.892L97.308 95.8896H97.3077L97.3068 95.892ZM97.8386 96.154L97.8411 96.1522L97.8401 96.1516L97.8386 96.154ZM96.9523 95.761L96.9535 95.7586L96.9529 95.7584L96.9523 95.761ZM95.9859 95.6326H96.3141V95.6274H95.9859V95.6326ZM97.5714 98.6406L97.3056 98.7716L97.308 98.7764L97.5744 98.6454L97.5714 98.6406ZM97.3062 98.7716L96.8626 98.9026L96.8644 98.9076L97.3077 98.7766L97.3062 98.7716ZM96.8629 98.9024L96.3308 99.0334L96.3323 99.0386L96.8644 98.9076L96.8629 98.9024ZM96.3317 99.0334H95.9859V99.0386H96.3317V99.0334ZM98.2802 98.1172L97.8368 98.5102L97.8408 98.5138L98.2844 98.1211L98.2802 98.1172ZM97.8377 98.5096L97.5714 98.6406L97.5744 98.6454L97.8401 98.5144L97.8377 98.5096ZM98.5453 97.333V97.464H98.5511V97.333H98.5453ZM98.5453 97.4632L98.4568 97.7252L98.4623 97.727L98.5511 97.4648L98.5453 97.4632ZM98.2799 96.5483L98.3686 96.6793L98.3735 96.6767L98.2847 96.5457L98.2799 96.5483ZM98.3683 96.6788L98.4568 96.9408L98.4623 96.9392L98.3738 96.6772L98.3683 96.6788ZM98.4568 96.9408L98.5453 97.2028L98.5511 97.2012L98.4623 96.9392L98.4568 96.9408ZM98.5453 97.202V97.333H98.5511V97.202H98.5453ZM97.3056 95.8944L97.8377 96.1564L97.8401 96.1516L97.308 95.8896L97.3056 95.8944ZM97.8368 96.1558L98.2802 96.5488L98.2844 96.5452L97.8411 96.1522L97.8368 96.1558ZM96.3135 95.6326L96.9517 95.7636L96.9529 95.7584L96.3151 95.6274L96.3135 95.6326ZM96.9511 95.7634L97.3056 95.8944L97.3077 95.8896L96.9535 95.7586L96.9511 95.7634ZM98.4568 97.7252L98.2796 98.118L98.2847 98.12L98.4623 97.727L98.4568 97.7252Z" fill="black"/>
<path d="M98.5483 93.927C98.5483 94.8676 97.4013 95.63 95.9859 95.63C95.9859 93.01 95.9859 94.058 95.9859 94.058C95.9859 93.1174 95.9859 93.534 95.9859 92.224C97.401 92.224 98.5483 92.9864 98.5483 93.927Z" fill="#919D12"/>
<path d="M96.3144 92.224L96.3151 92.2214H96.3144V92.224ZM97.3068 95.368L97.3077 95.3706L97.308 95.3704L97.3068 95.368ZM96.3317 95.63V95.6326H96.3323L96.3317 95.63ZM95.9859 95.6274C95.9847 95.6274 95.9832 95.6287 95.9832 95.63C95.9832 95.6316 95.9847 95.6326 95.9859 95.6326V95.6274ZM98.2823 94.713L98.2844 94.7151L98.2847 94.714L98.2823 94.713ZM97.8386 95.106L97.8401 95.1084L97.8408 95.1078L97.8386 95.106ZM98.548 94.058L98.5511 94.0588V94.058H98.548ZM98.2823 93.141L98.2847 93.1397L98.2844 93.1392L98.2823 93.141ZM98.3708 93.272L98.3738 93.2712L98.3735 93.2707L98.3708 93.272ZM98.548 93.796H98.5511V93.7952L98.548 93.796ZM97.3068 92.486L97.308 92.4836H97.3077L97.3068 92.486ZM97.8386 92.748L97.8411 92.7462L97.8401 92.7456L97.8386 92.748ZM96.9523 92.355L96.9535 92.3526L96.9529 92.3524L96.9523 92.355ZM95.9859 92.2266H96.3144V92.2214H95.9859V92.2266ZM97.5714 95.2346L97.3056 95.3656L97.308 95.3704L97.5744 95.2394L97.5714 95.2346ZM97.3062 95.3656L96.8626 95.4966L96.8644 95.5016L97.3077 95.3706L97.3062 95.3656ZM96.8629 95.4964L96.3308 95.6274L96.3323 95.6326L96.8644 95.5016L96.8629 95.4964ZM96.3317 95.6274H95.9859V95.6326H96.3317V95.6274ZM98.2802 94.7112L97.8368 95.1042L97.8408 95.1078L98.2844 94.7151L98.2802 94.7112ZM97.8377 95.1036L97.5714 95.2346L97.5744 95.2394L97.8401 95.1084L97.8377 95.1036ZM98.5453 93.927V94.058H98.5511V93.927H98.5453ZM98.5453 94.0572L98.4568 94.3192L98.4623 94.321L98.5511 94.0588L98.5453 94.0572ZM98.2799 93.1423L98.3686 93.2733L98.3735 93.2707L98.2847 93.1397L98.2799 93.1423ZM98.3683 93.2728L98.4568 93.5348L98.4623 93.5332L98.3738 93.2712L98.3683 93.2728ZM98.4568 93.5348L98.5453 93.7968L98.5511 93.7952L98.4623 93.5332L98.4568 93.5348ZM98.5453 93.796V93.927H98.5511V93.796H98.5453ZM97.3056 92.4884L97.8377 92.7504L97.8401 92.7456L97.308 92.4836L97.3056 92.4884ZM97.8368 92.7498L98.2802 93.1428L98.2844 93.1392L97.8411 92.7462L97.8368 92.7498ZM96.3135 92.2266L96.9517 92.3576L96.9529 92.3524L96.3151 92.2214L96.3135 92.2266ZM96.9511 92.3574L97.3056 92.4884L97.3077 92.4836L96.9535 92.3526L96.9511 92.3574ZM98.4568 94.3192L98.2796 94.712L98.2847 94.714L98.4623 94.321L98.4568 94.3192Z" fill="black"/>
<path d="M98.548 104.014C97.6644 104.014 97.2736 104.014 95.7014 104.014C95.7014 101.394 95.7017 104.276 95.7017 104.276C95.7017 103.335 95.7017 103.752 95.7014 102.442C97.2736 102.442 98.3517 103.097 98.548 104.014Z" fill="#919D12"/>
<path d="M95.7014 102.442H96.0662L96.7747 102.573L97.1688 102.704L97.7601 102.966L98.2527 103.359L98.3511 103.49L98.4496 103.752L98.548 104.014H98.4499H98.3517H98.2527H98.0573H97.6644H97.4684H97.1688H96.6829H96.0662H95.7014" stroke="black" stroke-width="0.02"/>
<path d="M96.6977 100.739C96.6977 101.68 94.8497 102.442 92.5696 102.442C92.5696 99.822 92.5696 100.87 92.5696 100.87C92.5696 99.9294 92.5696 100.346 92.5696 99.036C94.8494 99.036 96.6977 99.7984 96.6977 100.739Z" fill="#919D12"/>
<path d="M92.5696 99.036H93.099L94.1265 99.167L94.6978 99.298L95.5549 99.56L96.2691 99.953L96.4123 100.084L96.5551 100.346L96.6977 100.608V100.739V100.87L96.5551 101.132L96.2691 101.525L95.5549 101.918L95.1264 102.049L94.6978 102.18L93.9836 102.311L93.1265 102.442H92.5696" stroke="black" stroke-width="0.02"/>
<path d="M96.6977 97.333C96.6977 98.2736 94.8497 99.036 92.5696 99.036C92.5696 96.416 92.5696 97.464 92.5696 97.464C92.5696 96.5234 92.5696 96.94 92.5696 95.63C94.8494 95.63 96.6977 96.3924 96.6977 97.333Z" fill="#919D12"/>
<path d="M92.5696 95.63H93.099L94.1265 95.761L94.6978 95.892L95.5549 96.154L96.2691 96.547L96.4123 96.678L96.5551 96.94L96.6977 97.202V97.333V97.464L96.5551 97.726L96.2691 98.119L95.5549 98.512L95.1264 98.643L94.6978 98.774L93.9836 98.905L93.1265 99.036H92.5696" stroke="black" stroke-width="0.02"/>
<path d="M96.6977 93.927C96.6977 94.8676 94.8497 95.63 92.5696 95.63C92.5696 93.01 92.5696 94.058 92.5696 94.058C92.5696 93.1174 92.5696 93.534 92.5696 92.224C94.8494 92.224 96.6977 92.9864 96.6977 93.927Z" fill="#919D12"/>
<path d="M92.5696 92.224H93.099L94.1265 92.355L94.6978 92.486L95.5549 92.748L96.2691 93.141L96.4123 93.272L96.5551 93.534L96.6977 93.796V93.927V94.058L96.5551 94.32L96.2691 94.713L95.5549 95.106L95.1264 95.237L94.6978 95.368L93.9836 95.499L93.1265 95.63H92.5696" stroke="black" stroke-width="0.02"/>
<path d="M96.4129 104.014C95.1318 104.014 94.565 104.014 92.2852 104.014C92.2852 101.394 92.2855 104.276 92.2855 104.276C92.2855 103.335 92.2855 103.752 92.2852 102.442C94.565 102.442 96.1284 103.097 96.4129 104.014Z" fill="#919D12"/>
<path d="M92.2852 102.442H92.8143L93.8417 102.573L94.4131 102.704L95.2701 102.966L95.9847 103.359L96.1275 103.49L96.2704 103.752L96.4129 104.014H96.2707H96.1284H95.9847H95.7014H95.1318H94.8473H94.4131H93.7085H92.8143H92.2852" stroke="black" stroke-width="0.02"/>
<path d="M92.9967 100.739C92.9967 101.68 91.1487 102.442 88.8689 102.442C88.8689 99.822 88.8689 100.87 88.8689 100.87C88.8689 99.9294 88.8689 100.346 88.8689 99.036C91.1487 99.036 92.9967 99.7984 92.9967 100.739Z" fill="#919D12"/>
<path d="M88.8689 99.036H89.398L90.4254 99.167L90.9968 99.298L91.8539 99.56L92.5684 99.953L92.7113 100.084L92.8541 100.346L92.9967 100.608V100.739V100.87L92.8541 101.132L92.5684 101.525L91.8539 101.918L91.4257 102.049L90.9968 102.18L90.2826 102.311L89.4255 102.442H88.8689" stroke="black" stroke-width="0.02"/>
<path d="M92.9967 97.333C92.9967 98.2736 91.1487 99.036 88.8689 99.036C88.8689 96.416 88.8689 97.464 88.8689 97.464C88.8689 96.5234 88.8689 96.94 88.8689 95.63C91.1487 95.63 92.9967 96.3924 92.9967 97.333Z" fill="#919D12"/>
<path d="M88.8689 95.63H89.398L90.4254 95.761L90.9968 95.892L91.8539 96.154L92.5684 96.547L92.7113 96.678L92.8541 96.94L92.9967 97.202V97.333V97.464L92.8541 97.726L92.5684 98.119L91.8539 98.512L91.4257 98.643L90.9968 98.774L90.2826 98.905L89.4255 99.036H88.8689" stroke="black" stroke-width="0.02"/>
<path d="M92.9967 93.927C92.9967 94.8676 91.1487 95.63 88.8689 95.63C88.8689 93.01 88.8689 94.058 88.8689 94.058C88.8689 93.1174 88.8689 93.534 88.8689 92.224C91.1487 92.224 92.9967 92.9864 92.9967 93.927Z" fill="#919D12"/>
<path d="M88.8689 92.224H89.398L90.4254 92.355L90.9968 92.486L91.8539 92.748L92.5684 93.141L92.7113 93.272L92.8541 93.534L92.9967 93.796V93.927V94.058L92.8541 94.32L92.5684 94.713L91.8539 95.106L91.4257 95.237L90.9968 95.368L90.2826 95.499L89.4255 95.63H88.8689" stroke="black" stroke-width="0.02"/>
<path d="M92.7122 104.014C91.4311 104.014 90.8639 104.014 88.5841 104.014C88.5841 101.394 88.5844 104.276 88.5844 104.276C88.5844 103.335 88.5844 103.752 88.5841 102.442C90.8642 102.442 92.4274 103.097 92.7122 104.014Z" fill="#919D12"/>
<path d="M88.5841 102.442H89.1132L90.1406 102.573L90.712 102.704L91.5694 102.966L92.2836 103.359L92.4265 103.49L92.5693 103.752L92.7122 104.014H92.5696H92.4274H92.2836H92.0004H91.4308H91.1463H90.712H90.0075H89.1132H88.5841" stroke="black" stroke-width="0.02"/>
<path d="M89.5804 100.739C89.5804 101.68 87.7325 102.442 85.4527 102.442C85.4524 99.822 85.4527 100.87 85.4527 100.87C85.4527 99.9294 85.4527 100.346 85.4524 99.036C87.7322 99.036 89.5804 99.7984 89.5804 100.739Z" fill="#919D12"/>
<path d="M85.4527 99.036H85.9815L87.0092 99.167L87.5806 99.298L88.4377 99.56L89.1519 99.953L89.295 100.084L89.4379 100.346L89.5804 100.608V100.739V100.87L89.4379 101.132L89.1519 101.525L88.4377 101.918L88.0091 102.049L87.5806 102.18L86.8664 102.311L86.0093 102.442H85.4527" stroke="black" stroke-width="0.03"/>
<path d="M89.5804 97.333C89.5804 98.2736 87.7325 99.036 85.4527 99.036C85.4524 96.416 85.4527 97.464 85.4527 97.464C85.4527 96.5234 85.4527 96.94 85.4524 95.63C87.7322 95.63 89.5804 96.3924 89.5804 97.333Z" fill="#919D12"/>
<path d="M85.4527 95.63H85.9815L87.0092 95.761L87.5806 95.892L88.4377 96.154L89.1519 96.547L89.295 96.678L89.4379 96.94L89.5804 97.202V97.333V97.464L89.4379 97.726L89.1519 98.119L88.4377 98.512L88.0091 98.643L87.5806 98.774L86.8664 98.905L86.0093 99.036H85.4527" stroke="black" stroke-width="0.03"/>
<path d="M89.5804 93.927C89.5804 94.8676 87.7325 95.63 85.4527 95.63C85.4524 93.01 85.4527 94.058 85.4527 94.058C85.4527 93.1174 85.4527 93.534 85.4524 92.224C87.7322 92.224 89.5804 92.9864 89.5804 93.927Z" fill="#919D12"/>
<path d="M85.4527 92.224H85.9815L87.0092 92.355L87.5806 92.486L88.4377 92.748L89.1519 93.141L89.295 93.272L89.4379 93.534L89.5804 93.796V93.927V94.058L89.4379 94.32L89.1519 94.713L88.4377 95.106L88.0091 95.237L87.5806 95.368L86.8664 95.499L86.0093 95.63H85.4527" stroke="black" stroke-width="0.03"/>
<path d="M89.2957 104.014C88.0146 104.014 87.4477 104.014 85.1679 104.014C85.1676 101.394 85.1679 104.276 85.1679 104.276C85.1679 103.335 85.1682 103.752 85.1679 102.442C87.4477 102.442 89.0112 103.097 89.2957 104.014Z" fill="#919D12"/>
<path d="M85.1679 102.442H85.697L86.7244 102.573L87.2961 102.704L88.1532 102.966L88.8674 103.359L89.0103 103.49L89.1531 103.752L89.2956 104.014H89.1534H89.0112H88.8674H88.5841H88.0146H87.7301H87.2961H86.5912H85.697H85.1679" stroke="black" stroke-width="0.02"/>
<path d="M85.8794 104.014C84.5983 104.014 84.0315 104.014 81.7517 104.014C81.7514 101.394 81.7517 104.276 81.7517 104.276C81.7517 103.335 81.752 103.752 81.7517 102.442C84.0315 102.442 85.5949 103.097 85.8794 104.014Z" fill="#919D12"/>
<path d="M81.7517 102.442H82.2808L83.3082 102.573L83.8799 102.704L84.737 102.966L85.4512 103.359L85.594 103.49L85.7369 103.752L85.8797 104.014H85.7372H85.5949H85.4512H85.1679H84.5983H84.3138H83.8799H83.175H82.2808H81.7517" stroke="black" stroke-width="0.02"/>
<path d="M81.8939 104.014C80.6129 104.014 80.0457 104.014 77.7659 104.014C77.7659 101.394 77.7662 104.276 77.7662 104.276C77.7662 103.335 77.7662 103.752 77.7662 102.442C80.046 102.442 81.6092 103.097 81.8939 104.014Z" fill="#919D12"/>
<path d="M77.7662 102.442H78.295L79.3227 102.573L79.8941 102.704L80.7512 102.966L81.4654 103.359L81.6083 103.49L81.7511 103.752L81.8939 104.014H81.7517H81.6092H81.4654H81.1821H80.6129H80.3281H79.8941H79.1895H78.295H77.7662" stroke="black" stroke-width="0.02"/>
<path d="M86.1642 100.739C86.1642 101.68 84.3163 102.442 82.0365 102.442C82.0362 99.822 82.0365 100.87 82.0365 100.87C82.0365 99.9294 82.0365 100.346 82.0362 99.036C84.316 99.036 86.1642 99.7984 86.1642 100.739Z" fill="#919D12"/>
<path d="M82.0365 99.036H82.5653L83.593 99.167L84.1644 99.298L85.0215 99.56L85.7357 99.953L85.8788 100.084L86.0217 100.346L86.1645 100.608V100.739V100.87L86.0217 101.132L85.7357 101.525L85.0215 101.918L84.5929 102.049L84.1644 102.18L83.4502 102.311L82.5931 102.442H82.0365" stroke="black" stroke-width="0.02"/>
<path d="M86.1642 97.333C86.1642 98.2736 84.3163 99.036 82.0365 99.036C82.0362 96.416 82.0365 97.464 82.0365 97.464C82.0365 96.5234 82.0365 96.94 82.0362 95.63C84.316 95.63 86.1642 96.3924 86.1642 97.333Z" fill="#919D12"/>
<path d="M82.0365 95.63H82.5653L83.593 95.761L84.1644 95.892L85.0215 96.154L85.7357 96.547L85.8788 96.678L86.0217 96.94L86.1645 97.202V97.333V97.464L86.0217 97.726L85.7357 98.119L85.0215 98.512L84.5929 98.643L84.1644 98.774L83.4502 98.905L82.5931 99.036H82.0365" stroke="black" stroke-width="0.02"/>
<path d="M86.1642 93.927C86.1642 94.8676 84.3163 95.63 82.0365 95.63C82.0362 93.01 82.0365 94.058 82.0365 94.058C82.0365 93.1174 82.0365 93.534 82.0362 92.224C84.316 92.224 86.1642 92.9864 86.1642 93.927Z" fill="#919D12"/>
<path d="M82.0365 92.224H82.5653L83.593 92.355L84.1644 92.486L85.0215 92.748L85.7357 93.141L85.8788 93.272L86.0217 93.534L86.1645 93.796V93.927V94.058L86.0217 94.32L85.7357 94.713L85.0215 95.106L84.5929 95.237L84.1644 95.368L83.4502 95.499L82.5931 95.63H82.0365" stroke="black" stroke-width="0.02"/>
<path d="M77.9081 104.014C76.6271 104.014 76.0602 104.014 73.7804 104.014C73.7801 101.394 73.7804 104.276 73.7804 104.276C73.7804 103.335 73.7807 103.752 73.7804 102.442C76.0602 102.442 77.6237 103.097 77.9081 104.014Z" fill="#919D12"/>
<path d="M73.7804 102.442H74.3095L75.3369 102.573L75.9086 102.704L76.7657 102.966L77.4799 103.359L77.6227 103.49L77.7656 103.752L77.9084 104.014H77.7659H77.6237H77.4799H77.1966H76.627H76.3426H75.9086H75.2037H74.3095H73.7804" stroke="black" stroke-width="0.02"/>
<path d="M82.1787 100.739C82.1787 101.68 80.3305 102.442 78.0507 102.442C78.0507 99.822 78.0507 100.87 78.0507 100.87C78.0507 99.9294 78.0507 100.346 78.0507 99.036C80.3305 99.036 82.1787 99.7984 82.1787 100.739Z" fill="#919D12"/>
<path d="M78.0507 99.036H78.5798L79.6075 99.167L80.1789 99.298L81.036 99.56L81.7502 99.953L81.893 100.084L82.0359 100.346L82.1787 100.608V100.739V100.87L82.0359 101.132L81.7502 101.525L81.036 101.918L80.6074 102.049L80.1789 102.18L79.4646 102.311L78.6073 102.442H78.0507" stroke="black" stroke-width="0.02"/>
<path d="M82.1787 97.333C82.1787 98.2736 80.3305 99.036 78.0507 99.036C78.0507 96.416 78.0507 97.464 78.0507 97.464C78.0507 96.5234 78.0507 96.94 78.0507 95.63C80.3305 95.63 82.1787 96.3924 82.1787 97.333Z" fill="#919D12"/>
<path d="M78.0507 95.63H78.5798L79.6075 95.761L80.1789 95.892L81.036 96.154L81.7502 96.547L81.893 96.678L82.0359 96.94L82.1787 97.202V97.333V97.464L82.0359 97.726L81.7502 98.119L81.036 98.512L80.6074 98.643L80.1789 98.774L79.4646 98.905L78.6073 99.036H78.0507" stroke="black" stroke-width="0.02"/>
<path d="M82.1787 93.927C82.1787 94.8676 80.3305 95.63 78.0507 95.63C78.0507 93.01 78.0507 94.058 78.0507 94.058C78.0507 93.1174 78.0507 93.534 78.0507 92.224C80.3305 92.224 82.1787 92.9864 82.1787 93.927Z" fill="#919D12"/>
<path d="M78.0507 92.224H78.5798L79.6075 92.355L80.1789 92.486L81.036 92.748L81.7502 93.141L81.893 93.272L82.0359 93.534L82.1787 93.796V93.927V94.058L82.0359 94.32L81.7502 94.713L81.036 95.106L80.6074 95.237L80.1789 95.368L79.4646 95.499L78.6073 95.63H78.0507" stroke="black" stroke-width="0.02"/>
<path d="M77.9084 100.739C77.9084 101.68 76.0602 102.442 73.7804 102.442C73.7804 99.822 73.7804 100.87 73.7804 100.87C73.7804 99.9294 73.7804 100.346 73.7804 99.036C76.0602 99.036 77.9084 99.7984 77.9084 100.739Z" fill="#919D12"/>
<path d="M73.7804 99.036H74.3095L75.3369 99.167L75.9086 99.298L76.7657 99.56L77.4799 99.953L77.6227 100.084L77.7656 100.346L77.9084 100.608V100.739V100.87L77.7656 101.132L77.4799 101.525L76.7657 101.918L76.3371 102.049L75.9086 102.18L75.1941 102.311L74.337 102.442H73.7804" stroke="black" stroke-width="0.02"/>
<path d="M77.9084 97.333C77.9084 98.2736 76.0602 99.036 73.7804 99.036C73.7804 96.416 73.7804 97.464 73.7804 97.464C73.7804 96.5234 73.7804 96.94 73.7804 95.63C76.0602 95.63 77.9084 96.3924 77.9084 97.333Z" fill="#919D12"/>
<path d="M73.7804 95.63H74.3095L75.3369 95.761L75.9086 95.892L76.7657 96.154L77.4799 96.547L77.6227 96.678L77.7656 96.94L77.9084 97.202V97.333V97.464L77.7656 97.726L77.4799 98.119L76.7657 98.512L76.3371 98.643L75.9086 98.774L75.1941 98.905L74.337 99.036H73.7804" stroke="black" stroke-width="0.02"/>
<path d="M77.9084 93.927C77.9084 94.8676 76.0602 95.63 73.7804 95.63C73.7804 93.01 73.7804 94.058 73.7804 94.058C73.7804 93.1174 73.7804 93.534 73.7804 92.224C76.0602 92.224 77.9084 92.9864 77.9084 93.927Z" fill="#919D12"/>
<path d="M73.7804 92.224H74.3095L75.3369 92.355L75.9086 92.486L76.7657 92.748L77.4799 93.141L77.6227 93.272L77.7656 93.534L77.9084 93.796V93.927V94.058L77.7656 94.32L77.4799 94.713L76.7657 95.106L76.3371 95.237L75.9086 95.368L75.1941 95.499L74.337 95.63H73.7804" stroke="black" stroke-width="0.02"/>
<path d="M69.9371 97.202C71.1162 97.202 72.0723 96.6154 72.0723 95.892C72.0723 95.1686 71.1162 94.582 69.9371 94.582C68.7578 94.582 67.802 95.1686 67.802 95.892C67.802 96.6154 68.7578 97.202 69.9371 97.202Z" fill="white"/>
<path d="M69.5101 96.023C69.5101 96.2399 69.1275 96.416 68.6561 96.416C68.1843 96.416 67.802 96.2399 67.802 96.023C67.802 95.8061 68.1843 95.63 68.6561 95.63C69.1275 95.63 69.5101 95.8061 69.5101 96.023Z" fill="black"/>
<path d="M69.9371 101.132C71.1162 101.132 72.0723 100.545 72.0723 99.822C72.0723 99.0986 71.1162 98.512 69.9371 98.512C68.7578 98.512 67.802 99.0986 67.802 99.822C67.802 100.545 68.7578 101.132 69.9371 101.132Z" fill="white"/>
<path d="M69.5101 99.953C69.5101 100.17 69.1275 100.346 68.6561 100.346C68.1843 100.346 67.802 100.17 67.802 99.953C67.802 99.7361 68.1843 99.56 68.6561 99.56C69.1275 99.56 69.5101 99.7361 69.5101 99.953Z" fill="black"/>
<path d="M64.2433 96.678C64.4791 96.678 64.6703 96.6193 64.6703 96.547C64.6703 96.4747 64.4791 96.416 64.2433 96.416C64.0074 96.416 63.8162 96.4747 63.8162 96.547C63.8162 96.6193 64.0074 96.678 64.2433 96.678Z" fill="black"/>
<path d="M64.2433 99.036C64.4791 99.036 64.6703 98.9773 64.6703 98.905C64.6703 98.8327 64.4791 98.774 64.2433 98.774C64.0074 98.774 63.8162 98.8327 63.8162 98.905C63.8162 98.9773 64.0074 99.036 64.2433 99.036Z" fill="black"/>
<path d="M98.5511 104.014C102.088 104.014 104.956 101.375 104.956 98.119C104.956 94.8634 102.088 92.224 98.5511 92.224V104.014ZM98.548 104.014H98.5511V92.224H98.548V104.014Z" fill="#919D12"/>
</g>
</g>
</g>
<rect x="0.5" y="0.5" width="150" height="130" stroke="black"/>
<defs>
<clipPath id="clip0_98_1330">
<rect width="151" height="131" fill="white"/>
</clipPath>
</defs>
</svg>
