<svg width="151" height="131" viewBox="0 0 151 131" fill="none" xmlns="http://www.w3.org/2000/svg">
<g clip-path="url(#clip0_112_267)">
<mask id="mask0_112_267" style="mask-type:luminance" maskUnits="userSpaceOnUse" x="0" y="0" width="151" height="131">
<path d="M151 0H0V131H151V0Z" fill="white"/>
</mask>
<g mask="url(#mask0_112_267)">
<path d="M151 0H0V131H151V0Z" fill="white"/>
<path d="M151 -5.24H-2.114V123.926H151V-5.24Z" fill="black"/>
<path d="M151 110.826H0V131H151V110.826Z" fill="#D9D9D9"/>
<path d="M0 0H151V20.174L130.464 12.707L106.606 22.139L73.386 12.707L51.793 20.174L28.539 14.672L0 20.174V0Z" fill="#D9D9D9"/>
<path d="M19.177 47.946L14.3385 7.2705H24.0155L19.177 47.946Z" fill="#D9D9D9"/>
<path d="M41.525 39.562L36.6867 11.266H46.3633L41.525 39.562Z" fill="#D9D9D9"/>
<path d="M117.025 40.872L112.187 12.576H121.863L117.025 40.872Z" fill="#D9D9D9"/>
<path d="M75.349 37.728L70.5107 9.432H80.1873L75.349 37.728Z" fill="#D9D9D9"/>
<path d="M11.929 85.412C12.1792 85.412 12.382 85.236 12.382 85.019C12.382 84.802 12.1792 84.626 11.929 84.626C11.6788 84.626 11.476 84.802 11.476 85.019C11.476 85.236 11.6788 85.412 11.929 85.412Z" fill="white"/>
<path d="M13.137 85.412C13.3872 85.412 13.59 85.236 13.59 85.019C13.59 84.802 13.3872 84.626 13.137 84.626C12.8868 84.626 12.684 84.802 12.684 85.019C12.684 85.236 12.8868 85.412 13.137 85.412Z" fill="white"/>
<path d="M43.035 74.932C43.2852 74.932 43.488 74.7561 43.488 74.539C43.488 74.322 43.2852 74.146 43.035 74.146C42.7848 74.146 42.582 74.322 42.582 74.539C42.582 74.7561 42.7848 74.932 43.035 74.932Z" fill="white"/>
<path d="M44.243 74.932C44.4932 74.932 44.696 74.7561 44.696 74.539C44.696 74.322 44.4932 74.146 44.243 74.146C43.9928 74.146 43.79 74.322 43.79 74.539C43.79 74.7561 43.9928 74.932 44.243 74.932Z" fill="white"/>
<path d="M27.331 72.836C27.5812 72.836 27.784 72.6601 27.784 72.443C27.784 72.226 27.5812 72.05 27.331 72.05C27.0808 72.05 26.878 72.226 26.878 72.443C26.878 72.6601 27.0808 72.836 27.331 72.836Z" fill="white"/>
<path d="M28.539 72.836C28.7892 72.836 28.992 72.6601 28.992 72.443C28.992 72.226 28.7892 72.05 28.539 72.05C28.2888 72.05 28.086 72.226 28.086 72.443C28.086 72.6601 28.2888 72.836 28.539 72.836Z" fill="white"/>
<path d="M50.887 62.094C51.1372 62.094 51.34 61.918 51.34 61.701C51.34 61.484 51.1372 61.308 50.887 61.308C50.6368 61.308 50.434 61.484 50.434 61.701C50.434 61.918 50.6368 62.094 50.887 62.094Z" fill="white"/>
<path d="M52.095 62.094C52.3452 62.094 52.548 61.918 52.548 61.701C52.548 61.484 52.3452 61.308 52.095 61.308C51.8448 61.308 51.642 61.484 51.642 61.701C51.642 61.918 51.8448 62.094 52.095 62.094Z" fill="white"/>
<path d="M85.315 68.382C85.5652 68.382 85.768 68.206 85.768 67.989C85.768 67.772 85.5652 67.596 85.315 67.596C85.0648 67.596 84.862 67.772 84.862 67.989C84.862 68.206 85.0648 68.382 85.315 68.382Z" fill="white"/>
<path d="M86.523 68.382C86.7732 68.382 86.976 68.206 86.976 67.989C86.976 67.772 86.7732 67.596 86.523 67.596C86.2728 67.596 86.07 67.772 86.07 67.989C86.07 68.206 86.2728 68.382 86.523 68.382Z" fill="white"/>
<path d="M57.833 36.942C58.0832 36.942 58.286 36.766 58.286 36.549C58.286 36.332 58.0832 36.156 57.833 36.156C57.5828 36.156 57.38 36.332 57.38 36.549C57.38 36.766 57.5828 36.942 57.833 36.942Z" fill="white"/>
<path d="M59.041 36.942C59.2912 36.942 59.494 36.766 59.494 36.549C59.494 36.332 59.2912 36.156 59.041 36.156C58.7908 36.156 58.588 36.332 58.588 36.549C58.588 36.766 58.7908 36.942 59.041 36.942Z" fill="white"/>
<path d="M123.065 41.658C123.315 41.658 123.518 41.482 123.518 41.265C123.518 41.048 123.315 40.872 123.065 40.872C122.815 40.872 122.612 41.048 122.612 41.265C122.612 41.482 122.815 41.658 123.065 41.658Z" fill="white"/>
<path d="M124.273 41.658C124.523 41.658 124.726 41.482 124.726 41.265C124.726 41.048 124.523 40.872 124.273 40.872C124.023 40.872 123.82 41.048 123.82 41.265C123.82 41.482 124.023 41.658 124.273 41.658Z" fill="white"/>
<path d="M10.419 37.466C10.6692 37.466 10.872 37.29 10.872 37.073C10.872 36.856 10.6692 36.68 10.419 36.68C10.1688 36.68 9.966 36.856 9.966 37.073C9.966 37.29 10.1688 37.466 10.419 37.466Z" fill="white"/>
<path d="M11.627 37.466C11.8772 37.466 12.08 37.29 12.08 37.073C12.08 36.856 11.8772 36.68 11.627 36.68C11.3768 36.68 11.174 36.856 11.174 37.073C11.174 37.29 11.3768 37.466 11.627 37.466Z" fill="white"/>
<path d="M97.697 38.514C97.9472 38.514 98.15 38.338 98.15 38.121C98.15 37.904 97.9472 37.728 97.697 37.728C97.4468 37.728 97.244 37.904 97.244 38.121C97.244 38.338 97.4468 38.514 97.697 38.514Z" fill="white"/>
<path d="M98.905 38.514C99.1552 38.514 99.358 38.338 99.358 38.121C99.358 37.904 99.1552 37.728 98.905 37.728C98.6548 37.728 98.452 37.904 98.452 38.121C98.452 38.338 98.6548 38.514 98.905 38.514Z" fill="white"/>
<path d="M111.891 75.194C112.141 75.194 112.344 75.0181 112.344 74.801C112.344 74.584 112.141 74.408 111.891 74.408C111.641 74.408 111.438 74.584 111.438 74.801C111.438 75.0181 111.641 75.194 111.891 75.194Z" fill="white"/>
<path d="M113.099 75.194C113.349 75.194 113.552 75.0181 113.552 74.801C113.552 74.584 113.349 74.408 113.099 74.408C112.849 74.408 112.646 74.584 112.646 74.801C112.646 75.0181 112.849 75.194 113.099 75.194Z" fill="white"/>
<path d="M112.495 57.378C112.745 57.378 112.948 57.2021 112.948 56.985C112.948 56.768 112.745 56.592 112.495 56.592C112.245 56.592 112.042 56.768 112.042 56.985C112.042 57.2021 112.245 57.378 112.495 57.378Z" fill="white"/>
<path d="M113.703 57.378C113.953 57.378 114.156 57.2021 114.156 56.985C114.156 56.768 113.953 56.592 113.703 56.592C113.453 56.592 113.25 56.768 113.25 56.985C113.25 57.2021 113.453 57.378 113.703 57.378Z" fill="white"/>
<path d="M139.977 86.198C140.227 86.198 140.43 86.0221 140.43 85.805C140.43 85.588 140.227 85.412 139.977 85.412C139.727 85.412 139.524 85.588 139.524 85.805C139.524 86.0221 139.727 86.198 139.977 86.198Z" fill="white"/>
<path d="M141.185 86.198C141.435 86.198 141.638 86.0221 141.638 85.805C141.638 85.588 141.435 85.412 141.185 85.412C140.935 85.412 140.732 85.588 140.732 85.805C140.732 86.0221 140.935 86.198 141.185 86.198Z" fill="white"/>
<path d="M139.977 75.194C140.227 75.194 140.43 75.0181 140.43 74.801C140.43 74.584 140.227 74.408 139.977 74.408C139.727 74.408 139.524 74.584 139.524 74.801C139.524 75.0181 139.727 75.194 139.977 75.194Z" fill="white"/>
<path d="M141.185 75.194C141.435 75.194 141.638 75.0181 141.638 74.801C141.638 74.584 141.435 74.408 141.185 74.408C140.935 74.408 140.732 74.584 140.732 74.801C140.732 75.0181 140.935 75.194 141.185 75.194Z" fill="white"/>
<path d="M139.977 56.854C140.227 56.854 140.43 56.678 140.43 56.461C140.43 56.244 140.227 56.068 139.977 56.068C139.727 56.068 139.524 56.244 139.524 56.461C139.524 56.678 139.727 56.854 139.977 56.854Z" fill="white"/>
<path d="M141.185 56.854C141.435 56.854 141.638 56.678 141.638 56.461C141.638 56.244 141.435 56.068 141.185 56.068C140.935 56.068 140.732 56.244 140.732 56.461C140.732 56.678 140.935 56.854 141.185 56.854Z" fill="white"/>
<path d="M140.581 29.344C140.831 29.344 141.034 29.1681 141.034 28.951C141.034 28.734 140.831 28.558 140.581 28.558C140.331 28.558 140.128 28.734 140.128 28.951C140.128 29.1681 140.331 29.344 140.581 29.344Z" fill="white"/>
<path d="M141.789 29.344C142.039 29.344 142.242 29.1681 142.242 28.951C142.242 28.734 142.039 28.558 141.789 28.558C141.539 28.558 141.336 28.734 141.336 28.951C141.336 29.1681 141.539 29.344 141.789 29.344Z" fill="white"/>
<path d="M92.563 25.414C92.8132 25.414 93.016 25.2381 93.016 25.021C93.016 24.804 92.8132 24.628 92.563 24.628C92.3128 24.628 92.11 24.804 92.11 25.021C92.11 25.2381 92.3128 25.414 92.563 25.414Z" fill="white"/>
<path d="M93.771 25.414C94.0212 25.414 94.224 25.2381 94.224 25.021C94.224 24.804 94.0212 24.628 93.771 24.628C93.5208 24.628 93.318 24.804 93.318 25.021C93.318 25.2381 93.5208 25.414 93.771 25.414Z" fill="white"/>
<path d="M55.719 24.628C55.9692 24.628 56.172 24.4521 56.172 24.235C56.172 24.018 55.9692 23.842 55.719 23.842C55.4688 23.842 55.266 24.018 55.266 24.235C55.266 24.4521 55.4688 24.628 55.719 24.628Z" fill="white"/>
<path d="M56.927 24.628C57.1772 24.628 57.38 24.4521 57.38 24.235C57.38 24.018 57.1772 23.842 56.927 23.842C56.6768 23.842 56.474 24.018 56.474 24.235C56.474 24.4521 56.6768 24.628 56.927 24.628Z" fill="white"/>
<path d="M27.331 29.344C27.5812 29.344 27.784 29.1681 27.784 28.951C27.784 28.734 27.5812 28.558 27.331 28.558C27.0808 28.558 26.878 28.734 26.878 28.951C26.878 29.1681 27.0808 29.344 27.331 29.344Z" fill="white"/>
<path d="M28.539 29.344C28.7892 29.344 28.992 29.1681 28.992 28.951C28.992 28.734 28.7892 28.558 28.539 28.558C28.2888 28.558 28.086 28.734 28.086 28.951C28.086 29.1681 28.2888 29.344 28.539 29.344Z" fill="white"/>
<path d="M4.983 24.104C5.23318 24.104 5.436 23.928 5.436 23.711C5.436 23.494 5.23318 23.318 4.983 23.318C4.73281 23.318 4.53 23.494 4.53 23.711C4.53 23.928 4.73281 24.104 4.983 24.104Z" fill="white"/>
<path d="M6.19101 24.104C6.44119 24.104 6.64401 23.928 6.64401 23.711C6.64401 23.494 6.44119 23.318 6.19101 23.318C5.94082 23.318 5.73801 23.494 5.73801 23.711C5.73801 23.928 5.94082 24.104 6.19101 24.104Z" fill="white"/>
<path d="M20.687 57.116C20.9372 57.116 21.14 56.94 21.14 56.723C21.14 56.506 20.9372 56.33 20.687 56.33C20.4368 56.33 20.234 56.506 20.234 56.723C20.234 56.94 20.4368 57.116 20.687 57.116Z" fill="white"/>
<path d="M21.895 57.116C22.1452 57.116 22.348 56.94 22.348 56.723C22.348 56.506 22.1452 56.33 21.895 56.33C21.6448 56.33 21.442 56.506 21.442 56.723C21.442 56.94 21.6448 57.116 21.895 57.116Z" fill="white"/>
<path d="M29.747 47.946C29.9972 47.946 30.2 47.7701 30.2 47.553C30.2 47.336 29.9972 47.16 29.747 47.16C29.4968 47.16 29.294 47.336 29.294 47.553C29.294 47.7701 29.4968 47.946 29.747 47.946Z" fill="white"/>
<path d="M30.955 47.946C31.2052 47.946 31.408 47.7701 31.408 47.553C31.408 47.336 31.2052 47.16 30.955 47.16C30.7048 47.16 30.502 47.336 30.502 47.553C30.502 47.7701 30.7048 47.946 30.955 47.946Z" fill="white"/>
<path d="M68.101 57.902C68.3512 57.902 68.554 57.726 68.554 57.509C68.554 57.292 68.3512 57.116 68.101 57.116C67.8508 57.116 67.648 57.292 67.648 57.509C67.648 57.726 67.8508 57.902 68.101 57.902Z" fill="white"/>
<path d="M69.309 57.902C69.5592 57.902 69.762 57.726 69.762 57.509C69.762 57.292 69.5592 57.116 69.309 57.116C69.0588 57.116 68.856 57.292 68.856 57.509C68.856 57.726 69.0588 57.902 69.309 57.902Z" fill="white"/>
<path d="M60.853 86.198C61.1032 86.198 61.306 86.0221 61.306 85.805C61.306 85.588 61.1032 85.412 60.853 85.412C60.6028 85.412 60.4 85.588 60.4 85.805C60.4 86.0221 60.6028 86.198 60.853 86.198Z" fill="white"/>
<path d="M62.061 86.198C62.3112 86.198 62.514 86.0221 62.514 85.805C62.514 85.588 62.3112 85.412 62.061 85.412C61.8108 85.412 61.608 85.588 61.608 85.805C61.608 86.0221 61.8108 86.198 62.061 86.198Z" fill="white"/>
<path d="M85.315 86.198C85.5652 86.198 85.768 86.0221 85.768 85.805C85.768 85.588 85.5652 85.412 85.315 85.412C85.0648 85.412 84.862 85.588 84.862 85.805C84.862 86.0221 85.0648 86.198 85.315 86.198Z" fill="white"/>
<path d="M86.523 86.198C86.7732 86.198 86.976 86.0221 86.976 85.805C86.976 85.588 86.7732 85.412 86.523 85.412C86.2728 85.412 86.07 85.588 86.07 85.805C86.07 86.0221 86.2728 86.198 86.523 86.198Z" fill="white"/>
<path d="M13.6116 6.812L13.5547 5.65986L11.476 6.30378L12.5762 4.59881L11.7348 2.882L14.3234 3.78362L16.912 2.882L16.0707 4.59881L16.912 6.30378L14.8333 5.65986V6.812L14.2587 6.30378L13.6116 6.812Z" fill="black"/>
<path d="M13.7842 6.026C13.8914 6.026 13.9783 5.96735 13.9783 5.895C13.9783 5.82265 13.8914 5.764 13.7842 5.764C13.6769 5.764 13.59 5.82265 13.59 5.895C13.59 5.96735 13.6769 6.026 13.7842 6.026Z" fill="white"/>
<path d="M14.3019 6.026C14.4091 6.026 14.496 5.96735 14.496 5.895C14.496 5.82265 14.4091 5.764 14.3019 5.764C14.1946 5.764 14.1077 5.82265 14.1077 5.895C14.1077 5.96735 14.1946 6.026 14.3019 6.026Z" fill="white"/>
<path d="M49.8514 12.052L49.7947 10.8999L47.716 11.5438L48.8162 9.83881L47.9748 8.122L50.5636 9.02362L53.152 8.122L52.3106 9.83881L53.152 11.5438L51.0733 10.8999V12.052L50.4986 11.5438L49.8514 12.052Z" fill="black"/>
<path d="M49.8514 12.052L49.7947 10.8999L47.716 11.5438L48.8162 9.83881L47.9748 8.122L50.5636 9.02362L53.152 8.122L52.3106 9.83881L53.152 11.5438L51.0733 10.8999V12.052L50.4986 11.5438L49.8514 12.052Z" fill="black"/>
<path d="M50.0242 11.266C50.1314 11.266 50.2183 11.2074 50.2183 11.135C50.2183 11.0627 50.1314 11.004 50.0242 11.004C49.917 11.004 49.83 11.0627 49.83 11.135C49.83 11.2074 49.917 11.266 50.0242 11.266Z" fill="white"/>
<path d="M50.5418 11.266C50.649 11.266 50.736 11.2074 50.736 11.135C50.736 11.0627 50.649 11.004 50.5418 11.004C50.4346 11.004 50.3477 11.0627 50.3477 11.135C50.3477 11.2074 50.4346 11.266 50.5418 11.266Z" fill="white"/>
<path d="M84.8834 7.86L84.8267 6.70786L82.748 7.35177L83.8482 5.64681L83.0068 3.93L85.5956 4.83162L88.184 3.93L87.3426 5.64681L88.184 7.35177L86.1053 6.70786V7.86L85.5306 7.35177L84.8834 7.86Z" fill="black"/>
<path d="M85.0562 7.074C85.1634 7.074 85.2503 7.01535 85.2503 6.943C85.2503 6.87065 85.1634 6.812 85.0562 6.812C84.949 6.812 84.862 6.87065 84.862 6.943C84.862 7.01535 84.949 7.074 85.0562 7.074Z" fill="white"/>
<path d="M85.5738 7.074C85.681 7.074 85.768 7.01535 85.768 6.943C85.768 6.87065 85.681 6.812 85.5738 6.812C85.4666 6.812 85.3797 6.87065 85.3797 6.943C85.3797 7.01535 85.4666 7.074 85.5738 7.074Z" fill="white"/>
<path d="M110.855 14.934L110.799 13.7819L108.72 14.4258L109.82 12.7208L108.979 11.004L111.568 11.9056L114.156 11.004L113.315 12.7208L114.156 14.4258L112.077 13.7819V14.934L111.503 14.4258L110.855 14.934Z" fill="black"/>
<path d="M111.028 14.148C111.135 14.148 111.222 14.0894 111.222 14.017C111.222 13.9447 111.135 13.886 111.028 13.886C110.921 13.886 110.834 13.9447 110.834 14.017C110.834 14.0894 110.921 14.148 111.028 14.148Z" fill="white"/>
<path d="M111.546 14.148C111.653 14.148 111.74 14.0894 111.74 14.017C111.74 13.9447 111.653 13.886 111.546 13.886C111.439 13.886 111.352 13.9447 111.352 14.017C111.352 14.0894 111.439 14.148 111.546 14.148Z" fill="white"/>
<path d="M137.129 8.122L137.073 6.96986L134.994 7.61377L136.094 5.90881L135.253 4.192L137.842 5.09362L140.43 4.192L139.589 5.90881L140.43 7.61377L138.351 6.96986V8.122L137.777 7.61377L137.129 8.122Z" fill="black"/>
<path d="M137.302 7.33601C137.409 7.33601 137.496 7.27735 137.496 7.20501C137.496 7.13266 137.409 7.07401 137.302 7.07401C137.195 7.07401 137.108 7.13266 137.108 7.20501C137.108 7.27735 137.195 7.33601 137.302 7.33601Z" fill="white"/>
<path d="M137.82 7.33601C137.927 7.33601 138.014 7.27735 138.014 7.20501C138.014 7.13266 137.927 7.07401 137.82 7.07401C137.713 7.07401 137.626 7.13266 137.626 7.20501C137.626 7.27735 137.713 7.33601 137.82 7.33601Z" fill="white"/>
<path d="M32.6374 7.074L32.5807 5.92186L30.502 6.56578L31.6022 4.86081L30.7608 3.144L33.3496 4.04563L35.938 3.144L35.0966 4.86081L35.938 6.56578L33.8593 5.92186V7.074L33.2846 6.56578L32.6374 7.074Z" fill="black"/>
<path d="M32.8102 6.288C32.9174 6.288 33.0043 6.22935 33.0043 6.157C33.0043 6.08465 32.9174 6.026 32.8102 6.026C32.703 6.026 32.616 6.08465 32.616 6.157C32.616 6.22935 32.703 6.288 32.8102 6.288Z" fill="white"/>
<path d="M33.3278 6.288C33.435 6.288 33.522 6.22935 33.522 6.157C33.522 6.08465 33.435 6.026 33.3278 6.026C33.2206 6.026 33.1337 6.08465 33.1337 6.157C33.1337 6.22935 33.2206 6.288 33.3278 6.288Z" fill="white"/>
<path d="M92.6869 103.56H88.1879V104.671H92.6869V103.56Z" fill="#D9D9D9"/>
<path d="M95.2578 103.15L102.328 102.726V104.949L95.2578 104.737V103.15Z" fill="#FFEB0B" fill-opacity="0.6"/>
<path d="M91.7228 103.694L95.5791 103.004V103.694V104.949L91.7228 104.572V103.694Z" fill="#E4E4E4"/>
<path d="M81.0423 102.696L81.1021 102.661L81.1078 102.598L81.3905 99.5763L81.6451 99.2459H82.4034H82.6988V99.5317V99.5537L82.7072 99.5744L83.8675 102.491L83.8905 102.549L83.956 102.571L86.0818 103.279L86.1081 103.288H86.1358H91.4248L92.2637 104.485L86.4542 107.335L86.3494 107.386L86.3838 107.486L90.1793 118.546L87.4867 118.434L84.9526 113.232L84.9197 113.164L84.8357 113.153L81.5865 112.736L81.5403 112.73L81.4986 112.748L78.8552 113.859L78.8069 113.88L78.7843 113.922L76.3601 118.433L73.2951 118.547L76.833 109.134L79.0542 104.595L80.1022 103.251L81.0423 102.696Z" fill="#E0BB9B" stroke="black"/>
<path d="M84.8234 100.643C84.8234 101.721 83.8122 102.595 82.5641 102.595C81.3159 102.595 80.3048 101.721 80.3048 100.643C80.3048 99.565 81.3159 98.6904 82.5641 98.6904C83.8122 98.6904 84.8234 99.565 84.8234 100.643Z" fill="#E0BB9B" stroke="black"/>
<path d="M80.7968 103.004H84.8137L85.617 103.282L86.099 103.421H87.7059L88.3486 106.199L86.9023 107.032L86.2596 107.31L86.9023 109.255H76.9402L79.1898 104.671L80.1538 103.282L80.7968 103.004Z" fill="#EDA239"/>
<path d="M76.9402 109.255H86.9023L88.8306 115.227H86.099L84.9744 113.005L82.4034 112.727L81.4394 112.588L78.7079 113.838L77.9045 115.227H74.6909L76.9402 109.255Z" fill="#5AA1DB"/>
<path d="M76.9402 109.255H86.9023L87.063 109.671H76.7796L76.9402 109.255Z" fill="#A37E5D"/>
<path d="M81.7608 109.255H82.7247V109.671H81.7608V109.255Z" fill="#FFC014"/>
<path d="M85.2957 109.255H85.617V109.671H85.2957V109.255Z" fill="#5AA1DB"/>
<path d="M84.0101 109.255H84.3317V109.671H84.0101V109.255Z" fill="#5AA1DB"/>
<path d="M78.2259 109.255H78.5472V109.81H78.2259V109.255Z" fill="#5AA1DB"/>
<path d="M79.8325 109.255H80.1538V109.671H79.8325V109.255Z" fill="#5AA1DB"/>
<path d="M74.6909 115.227H77.9045L76.2976 118.283L73.4053 118.422L74.6909 115.227Z" fill="#8B6909"/>
<path d="M86.099 115.227H88.8306L89.9552 118.422L87.5453 118.283L86.099 115.227Z" fill="#8B6909"/>
<path d="M87.2237 98.2817H83.3674V99.6707H87.2237V98.2817Z" fill="#5AA1DB"/>
<path d="M84.3315 97.726H80.4752V99.6706H84.3315V97.726Z" fill="#5AA1DB"/>
<path d="M81.691 100.608C81.9412 100.608 82.144 100.432 82.144 100.215C82.144 99.998 81.9412 99.822 81.691 99.822C81.4408 99.822 81.238 99.998 81.238 100.215C81.238 100.432 81.4408 100.608 81.691 100.608Z" fill="black"/>
<path d="M83.503 100.608C83.7532 100.608 83.956 100.432 83.956 100.215C83.956 99.998 83.7532 99.822 83.503 99.822C83.2528 99.822 83.05 99.998 83.05 100.215C83.05 100.432 83.2528 100.608 83.503 100.608Z" fill="black"/>
<path d="M82.5284 100.608L83.352 101.132H82.446" stroke="black" stroke-width="0.2"/>
<path d="M38.6853 73.229V82.268L35.4651 88.425L45.1291 88.556L45.7331 86.984L46.1861 88.818L49.3571 88.556L47.0921 89.735L49.8101 90.783H46.9411L49.3571 92.617L46.7901 91.962L47.6961 94.451L45.1291 92.617L35.4651 93.796L36.9751 104.972L47.2431 118.203L47.8471 119.996L45.8841 118.686V120.52L44.0721 119.079L43.4681 120.913L41.5051 119.079L40.9011 121.175L38.6853 119.079L28.4174 107.184L18.251 120.913L17.798 118.555L16.137 120.913L15.684 118.555L13.268 120.913V118.555L10.852 120.651V118.203L18.251 107.184L21.422 102.573V95.499V90.1152L25.499 79.255L29.274 74.146L34.1061 72.836L38.6853 73.229Z" fill="#8A6A4E"/>
<path d="M21.573 98.774L36.2201 98.643L36.8241 104.145L36.9751 104.931L37.7301 105.979L19.157 105.848L21.422 102.573L21.573 98.774Z" fill="#62491C"/>
<path d="M21.422 98.512L36.2201 98.643L36.5221 100.084L21.422 99.822V98.512Z" fill="#D8A750"/>
<path d="M22.9854 98.5584L21.724 99.822" stroke="black" stroke-width="0.3" stroke-linecap="round"/>
<path d="M23.8914 98.512L22.63 99.7756" stroke="black" stroke-width="0.3" stroke-linecap="round"/>
<path d="M24.7974 98.512L23.536 99.822" stroke="black" stroke-width="0.3" stroke-linecap="round"/>
<path d="M25.7034 98.512L24.442 99.822" stroke="black" stroke-width="0.3" stroke-linecap="round"/>
<path d="M26.6094 98.512L25.348 99.822" stroke="black" stroke-width="0.3" stroke-linecap="round"/>
<path d="M27.4284 98.6024L26.254 99.953" stroke="black" stroke-width="0.3" stroke-linecap="round"/>
<path d="M28.3186 98.5615L27.1599 99.953" stroke="black" stroke-width="0.3" stroke-linecap="round"/>
<path d="M29.2459 98.5972L28.066 99.953" stroke="black" stroke-width="0.3" stroke-linecap="round"/>
<path d="M30.2667 98.5817L29.0712 99.953" stroke="black" stroke-width="0.3" stroke-linecap="round"/>
<path d="M31.1746 98.5796L29.9772 99.953" stroke="black" stroke-width="0.3" stroke-linecap="round"/>
<path d="M32.067 98.5932L30.8831 99.953" stroke="black" stroke-width="0.3" stroke-linecap="round"/>
<path d="M32.9527 98.6134L31.7891 99.953" stroke="black" stroke-width="0.3" stroke-linecap="round"/>
<path d="M33.8355 98.6367L32.613 100.035" stroke="black" stroke-width="0.3" stroke-linecap="round"/>
<path d="M34.7237 98.6548L33.5021 100.084" stroke="black" stroke-width="0.3" stroke-linecap="round"/>
<path d="M35.6312 98.6532L34.4256 100.035" stroke="black" stroke-width="0.3" stroke-linecap="round"/>
<path d="M36.2204 98.6666L35.0238 100.084" stroke="black" stroke-width="0.3" stroke-linecap="round"/>
<path d="M25.046 89.866L25.8732 90.2975L27.0156 90.39L27.961 90.2975L28.67 89.866" stroke="black" stroke-width="0.3" stroke-linecap="round"/>
<path d="M29.576 89.866L30.4032 90.2975L31.5457 90.39L32.491 90.2975L33.2001 89.866" stroke="black" stroke-width="0.3" stroke-linecap="round"/>
<path d="M25.046 91.438L25.8732 91.8695L27.0156 91.962L27.961 91.8695L28.67 91.438" stroke="black" stroke-width="0.3" stroke-linecap="round"/>
<path d="M29.576 91.438L30.4032 91.8695L31.5457 91.962L32.491 91.8695L33.2001 91.438" stroke="black" stroke-width="0.3" stroke-linecap="round"/>
<path d="M25.046 94.32L25.8732 94.7515L27.0156 94.844L27.961 94.7515L28.67 94.32" stroke="black" stroke-width="0.3" stroke-linecap="round"/>
<path d="M29.576 94.32L30.4032 94.7515L31.5457 94.844L32.491 94.7515L33.2001 94.32" stroke="black" stroke-width="0.3" stroke-linecap="round"/>
<path d="M25.046 93.01L25.8732 93.4415L27.0156 93.534L27.961 93.4415L28.67 93.01" stroke="black" stroke-width="0.3" stroke-linecap="round"/>
<path d="M29.576 93.01L30.4032 93.4415L31.5457 93.534L32.491 93.4415L33.2001 93.01" stroke="black" stroke-width="0.3" stroke-linecap="round"/>
<path d="M37.8811 76.766C38.298 76.766 38.6361 76.5901 38.6361 76.373C38.6361 76.156 38.298 75.98 37.8811 75.98C37.4641 75.98 37.1261 76.156 37.1261 76.373C37.1261 76.5901 37.4641 76.766 37.8811 76.766Z" fill="black"/>
<path d="M35.1631 76.766C35.58 76.766 35.9181 76.5901 35.9181 76.373C35.9181 76.156 35.58 75.98 35.1631 75.98C34.7461 75.98 34.4081 76.156 34.4081 76.373C34.4081 76.5901 34.7461 76.766 35.1631 76.766Z" fill="black"/>
<path d="M36.5221 82.53C37.6896 82.53 38.6361 82.1781 38.6361 81.744C38.6361 81.3099 37.6896 80.958 36.5221 80.958C35.3545 80.958 34.4081 81.3099 34.4081 81.744C34.4081 82.1781 35.3545 82.53 36.5221 82.53Z" fill="black"/>
<path d="M35.6161 78.6L36.2201 82.53L35.4651 82.4145L35.0121 82.2989L35.6161 78.6Z" fill="white"/>
<path d="M38.1396 78.4797L38.3341 82.137L38.1831 82.268L38.0544 82.2832L37.7301 82.399L38.1396 78.4797Z" fill="white"/>
<path d="M36.2201 80.958H35.9181V81.744H36.2201V80.958Z" fill="white"/>
<path d="M36.8241 81.744H37.1261V82.5038L36.8241 82.5261V81.744Z" fill="white"/>
<path d="M36.5221 81.744H36.2201V82.53H36.5221V81.744Z" fill="white"/>
<path d="M37.1261 80.9842L37.4281 81.0366V81.744H37.1261V80.9842Z" fill="white"/>
<path d="M37.4281 81.744H37.7301V82.399H37.4281V81.744Z" fill="white"/>
<path d="M36.8241 80.958H36.5221V81.744H36.8241V80.958Z" fill="white"/>
<path d="M34.2027 74.5694L36.0147 75.8794" stroke="black"/>
<path d="M38.6294 74.5026L36.9286 75.9203" stroke="black"/>
<path d="M29.9024 78.2332L20.6371 78.0343L29.3601 75.3174L29.9024 78.2332Z" fill="#8A6A4E" stroke="black" stroke-width="0.03"/>
<path d="M34.3024 72.2528L34.704 73.4847L33.9551 73.4871H33.9542L33.2022 73.6152L32.9518 73.2979L32.4991 71.9884L32.4988 71.9876L30.7971 69.2511L33.85 71.0751L34.3024 72.2528Z" fill="white" stroke="black" stroke-width="0.03"/>
<path d="M35.5176 71.9887L35.5173 71.9884L33.8125 69.2469L36.8712 71.0743L37.3239 72.2523L37.7261 73.486L36.9751 73.4884L36.0709 73.486L35.9706 73.2987L35.5176 71.9887Z" fill="white" stroke="black" stroke-width="0.02"/>
<path d="M47.2413 93.1449L47.7112 94.4526L46.4328 93.5345L47.2413 93.1449Z" fill="white" stroke="black" stroke-width="0.02"/>
<path d="M48.754 92.4834L47.3986 92.1176L47.8507 91.476L49.3456 92.6118L48.754 92.4834Z" fill="white" stroke="black" stroke-width="0.02"/>
<path d="M48.0011 90.0874L49.7959 90.7804H49.2061H48.0011V90.0874Z" fill="white" stroke="black" stroke-width="0.02"/>
<path d="M47.6997 88.6894L49.3441 88.5597L48.6006 88.9466L47.8492 89.3378L47.6997 88.6894Z" fill="white" stroke="black" stroke-width="0.02"/>
<path d="M47.1528 119.566L46.4935 119.08L47.3923 118.69L47.8416 119.989L47.1528 119.566Z" fill="white" stroke="black" stroke-width="0.02"/>
<path d="M45.881 119.475V120.514L45.0557 119.863L44.8935 119.735L45.881 119.475Z" fill="white" stroke="black" stroke-width="0.02"/>
<path d="M42.5642 120.125L42.341 119.867L43.8564 119.737L43.4666 120.908L42.5642 120.125Z" fill="white" stroke="black" stroke-width="0.02"/>
<path d="M39.6955 120.125L39.5466 119.875L41.3199 119.737L40.8993 121.17L39.6955 120.125Z" fill="white" stroke="black" stroke-width="0.02"/>
<path d="M18.103 120.126L17.9679 119.476L19.128 119.736L18.2528 120.906L18.103 120.126Z" fill="white" stroke="black" stroke-width="0.02"/>
<path d="M15.9588 119.995L15.8599 119.476L16.9779 119.736L16.1388 120.906L15.9588 119.995Z" fill="white" stroke="black" stroke-width="0.02"/>
<path d="M13.2589 120.003L13.265 119.476L14.3113 119.877L13.2812 120.926L13.2589 120.003Z" fill="white" stroke="black" stroke-width="0.02"/>
<path d="M10.8283 119.741L10.8549 119.214L12.0546 119.604L10.8506 120.665L10.8283 119.741Z" fill="white" stroke="black" stroke-width="0.02"/>
<path d="M45.866 87.5085L45.9862 88.0294H45.3296L45.5335 87.5088L45.7325 86.9937L45.866 87.5085Z" fill="white" stroke="black" stroke-width="0.02"/>
<g filter="url(#filter0_df_112_267)">
<path d="M28.972 96.678C29.1388 96.678 29.274 96.5607 29.274 96.416C29.274 96.2713 29.1388 96.154 28.972 96.154C28.8052 96.154 28.67 96.2713 28.67 96.416C28.67 96.5607 28.8052 96.678 28.972 96.678Z" fill="black"/>
</g>
<g filter="url(#filter1_df_112_267)">
<path d="M28.972 96.678C29.1388 96.678 29.274 96.5607 29.274 96.416C29.274 96.2713 29.1388 96.154 28.972 96.154C28.8052 96.154 28.67 96.2713 28.67 96.416C28.67 96.5607 28.8052 96.678 28.972 96.678Z" fill="black"/>
</g>
<g filter="url(#filter2_df_112_267)">
<path d="M28.972 96.678C29.1388 96.678 29.274 96.5607 29.274 96.416C29.274 96.2713 29.1388 96.154 28.972 96.154C28.8052 96.154 28.67 96.2713 28.67 96.416C28.67 96.5607 28.8052 96.678 28.972 96.678Z" fill="black"/>
</g>
<path d="M29.123 96.94C29.3732 96.94 29.576 96.764 29.576 96.547C29.576 96.33 29.3732 96.154 29.123 96.154C28.8728 96.154 28.67 96.33 28.67 96.547C28.67 96.764 28.8728 96.94 29.123 96.94Z" fill="#342F2F"/>
<path d="M36.2201 78.338C36.3869 78.338 36.5221 78.2207 36.5221 78.076C36.5221 77.9313 36.3869 77.814 36.2201 77.814C36.0533 77.814 35.9181 77.9313 35.9181 78.076C35.9181 78.2207 36.0533 78.338 36.2201 78.338Z" fill="black"/>
<path d="M37.1261 78.338C37.2929 78.338 37.4281 78.2207 37.4281 78.076C37.4281 77.9313 37.2929 77.814 37.1261 77.814C36.9593 77.814 36.8241 77.9313 36.8241 78.076C36.8241 78.2207 36.9593 78.338 37.1261 78.338Z" fill="black"/>
</g>
</g>
<rect x="0.5" y="0.5" width="150" height="130" stroke="black"/>
<defs>
<filter id="filter0_df_112_267" x="24.67" y="92.154" width="8.604" height="12.524" filterUnits="userSpaceOnUse" color-interpolation-filters="sRGB">
<feFlood flood-opacity="0" result="BackgroundImageFix"/>
<feColorMatrix in="SourceAlpha" type="matrix" values="0 0 0 0 0 0 0 0 0 0 0 0 0 0 0 0 0 0 127 0" result="hardAlpha"/>
<feOffset dy="4"/>
<feGaussianBlur stdDeviation="2"/>
<feComposite in2="hardAlpha" operator="out"/>
<feColorMatrix type="matrix" values="0 0 0 0 0 0 0 0 0 0 0 0 0 0 0 0 0 0 0.25 0"/>
<feBlend mode="normal" in2="BackgroundImageFix" result="effect1_dropShadow_112_267"/>
<feBlend mode="normal" in="SourceGraphic" in2="effect1_dropShadow_112_267" result="shape"/>
<feGaussianBlur stdDeviation="2" result="effect2_foregroundBlur_112_267"/>
</filter>
<filter id="filter1_df_112_267" x="24.67" y="92.154" width="8.604" height="12.524" filterUnits="userSpaceOnUse" color-interpolation-filters="sRGB">
<feFlood flood-opacity="0" result="BackgroundImageFix"/>
<feColorMatrix in="SourceAlpha" type="matrix" values="0 0 0 0 0 0 0 0 0 0 0 0 0 0 0 0 0 0 127 0" result="hardAlpha"/>
<feOffset dy="4"/>
<feGaussianBlur stdDeviation="2"/>
<feComposite in2="hardAlpha" operator="out"/>
<feColorMatrix type="matrix" values="0 0 0 0 0 0 0 0 0 0 0 0 0 0 0 0 0 0 0.25 0"/>
<feBlend mode="normal" in2="BackgroundImageFix" result="effect1_dropShadow_112_267"/>
<feBlend mode="normal" in="SourceGraphic" in2="effect1_dropShadow_112_267" result="shape"/>
<feGaussianBlur stdDeviation="2" result="effect2_foregroundBlur_112_267"/>
</filter>
<filter id="filter2_df_112_267" x="24.67" y="92.154" width="8.604" height="12.524" filterUnits="userSpaceOnUse" color-interpolation-filters="sRGB">
<feFlood flood-opacity="0" result="BackgroundImageFix"/>
<feColorMatrix in="SourceAlpha" type="matrix" values="0 0 0 0 0 0 0 0 0 0 0 0 0 0 0 0 0 0 127 0" result="hardAlpha"/>
<feOffset dy="4"/>
<feGaussianBlur stdDeviation="2"/>
<feComposite in2="hardAlpha" operator="out"/>
<feColorMatrix type="matrix" values="0 0 0 0 0 0 0 0 0 0 0 0 0 0 0 0 0 0 0.25 0"/>
<feBlend mode="normal" in2="BackgroundImageFix" result="effect1_dropShadow_112_267"/>
<feBlend mode="normal" in="SourceGraphic" in2="effect1_dropShadow_112_267" result="shape"/>
<feGaussianBlur stdDeviation="2" result="effect2_foregroundBlur_112_267"/>
</filter>
<clipPath id="clip0_112_267">
<rect width="151" height="131" fill="white"/>
</clipPath>
</defs>
</svg>
