<svg width="84" height="71" viewBox="0 0 84 71" fill="none" xmlns="http://www.w3.org/2000/svg">
<rect width="84" height="71" fill="white"/>
<path fill-rule="evenodd" clip-rule="evenodd" d="M69.7916 15.2098C70.5653 15.9838 71 17.0333 71 18.1277C71 19.2221 70.5653 20.2717 69.7916 21.0457L38.8565 51.9808C38.4477 52.3897 37.9623 52.7141 37.4281 52.9354C36.894 53.1567 36.3214 53.2706 35.7432 53.2706C35.165 53.2706 34.5924 53.1567 34.0582 52.9354C33.524 52.7141 33.0387 52.3897 32.6299 51.9808L17.26 36.6137C16.8658 36.233 16.5514 35.7775 16.3351 35.274C16.1188 34.7705 16.0049 34.2289 16.0002 33.6809C15.9954 33.1328 16.0998 32.5894 16.3073 32.0822C16.5149 31.5749 16.8213 31.1141 17.2088 30.7266C17.5964 30.3391 18.0572 30.0326 18.5644 29.8251C19.0716 29.6176 19.6151 29.5131 20.1631 29.5179C20.7111 29.5227 21.2527 29.6365 21.7562 29.8528C22.2598 30.0691 22.7152 30.3836 23.0959 30.7778L35.7418 43.4236L63.9529 15.2098C64.3362 14.8262 64.7913 14.522 65.2922 14.3144C65.7931 14.1068 66.33 14 66.8723 14C67.4145 14 67.9514 14.1068 68.4523 14.3144C68.9532 14.522 69.4083 14.8262 69.7916 15.2098Z" fill="#14AE5C"/>
</svg>
