<svg width="82" height="41" viewBox="0 0 82 41" fill="none" xmlns="http://www.w3.org/2000/svg">
<path d="M81 20.5C81 30.9832 67.9043 39.4815 51.75 39.4815C35.25 35.6852 22.5 30.9832 22.5 20.5C22.5 10.0168 39 12.1481 51.75 1.51852C67.9043 1.51852 81 10.0168 81 20.5Z" fill="#F97B20"/>
<path d="M29.554 20.5L7.38851 38.2535V2.74648L29.554 20.5Z" fill="#F97B20"/>
<path d="M36 9.87037L38.3077 9.11111L42 26.5741L40.2692 30.3704L39.6923 26.5741L36 9.87037Z" fill="white"/>
<path d="M42 6.83333L44.3077 6.07407L48 23.537L46.2692 27.3333L45.6923 23.537L42 6.83333Z" fill="white"/>
<path d="M47.25 4.55556L48.75 3.7963L54 22.0185L52.2692 25.8148L51.6923 22.0185L47.25 4.55556Z" fill="white"/>
<path d="M51.75 1.51852H54L59.25 19.7407L57.5192 23.537L56.9423 19.7407L51.75 1.51852Z" fill="white"/>
<ellipse cx="71.25" cy="12.9074" rx="3.75" ry="3.7963" fill="white"/>
<ellipse cx="73.5" cy="12.1481" rx="1.5" ry="1.51852" fill="black"/>
<path d="M72 21C77.7857 23.5981 81 21 81 21" stroke="black" stroke-width="0.5" stroke-linecap="round"/>
<path d="M72 21C77.7857 27.75 81 21 81 21" stroke="black" stroke-width="0.5" stroke-linecap="round"/>
<path d="M72.9342 21.7428L80.3571 21.75L79.764 22.4928L79.0714 23.25L77.1429 24L74.5714 23.25L72.9342 21.7428Z" fill="black"/>
<path d="M35.389 24.867L35.3895 24.8667L35.3849 24.8613L34.3715 23.6562L32.885 20.4399L36.5195 19.2104L39.1264 19.6561L39.4506 21.5077L39.7521 23.6867L39.7521 25.2763L39.5652 27.4398L37.664 26.8416L36.8166 26.3222L35.9741 25.8058L35.389 24.867Z" fill="#F97B20" stroke="black" stroke-width="0.1"/>
<path d="M38.9515 24.0121C38.9582 24.0389 38.9853 24.0552 39.0121 24.0485C39.0389 24.0418 39.0552 24.0147 39.0485 23.9879L38.9515 24.0121ZM39.0485 23.9879L38.0485 19.9879L37.9515 20.0121L38.9515 24.0121L39.0485 23.9879Z" fill="black"/>
<circle cx="30" cy="18" r="2" fill="white"/>
<path d="M7.56871 14.8138C7.48745 14.7977 7.40882 14.8506 7.3931 14.9319C7.37737 15.0133 7.4305 15.0923 7.51177 15.1084L7.56871 14.8138ZM7.51177 15.1084L23.9715 18.3695L24.0285 18.0749L7.56871 14.8138L7.51177 15.1084Z" fill="black"/>
<path d="M7.56144 8.97427C7.48618 8.93964 7.39767 8.97283 7.36373 9.04841C7.3298 9.12398 7.3633 9.21332 7.43856 9.24795L7.56144 8.97427ZM7.43856 9.24795L23.9386 16.8405L24.0614 16.5669L7.56144 8.97427L7.43856 9.24795Z" fill="black"/>
<path d="M7.46098 28.707C7.38113 28.7291 7.33386 28.8118 7.35541 28.8918C7.37696 28.9718 7.45916 29.0187 7.53902 28.9967L7.46098 28.707ZM7.53902 28.9967L24.039 24.4411L23.961 24.1515L7.46098 28.707L7.53902 28.9967Z" fill="black"/>
<path d="M55.4602 37.9932C55.4766 38.0154 55.5078 38.0198 55.5298 38.0031C55.5518 37.9864 55.5563 37.9549 55.5398 37.9327L55.4602 37.9932ZM55.5398 37.9327L51.0398 31.8587L50.9602 31.9191L55.4602 37.9932L55.5398 37.9327Z" fill="black"/>
<path d="M56.9554 36.467C56.9676 36.4918 56.9975 36.5017 57.0221 36.4893C57.0468 36.4768 57.0568 36.4466 57.0446 36.4219L56.9554 36.467ZM57.0446 36.4219L54.0446 30.3478L53.9554 30.393L56.9554 36.467L57.0446 36.4219Z" fill="black"/>
<path d="M7.48858 23.919C7.40599 23.9254 7.34415 23.9976 7.35046 24.0802C7.35676 24.1628 7.42883 24.2246 7.51142 24.2181L7.48858 23.919ZM7.51142 24.2181L24.0114 22.9273L23.9886 22.6282L7.48858 23.919L7.51142 24.2181Z" fill="black"/>
<path d="M7.51342 18.0728C7.43092 18.0652 7.35804 18.126 7.35063 18.2085C7.34322 18.291 7.40409 18.364 7.48658 18.3716L7.51342 18.0728ZM7.48658 18.3716L23.9866 19.8901L24.0134 19.5913L7.51342 18.0728L7.48658 18.3716Z" fill="black"/>
<path d="M7.49799 21.1093C7.41516 21.1104 7.3489 21.1785 7.35001 21.2613C7.35112 21.3442 7.41917 21.4104 7.50201 21.4092L7.49799 21.1093ZM7.50201 21.4092L24.0224 21.1824L24.0184 20.8824L7.49799 21.1093L7.50201 21.4092Z" fill="black"/>
</svg>
