<svg width="200" height="90" viewBox="0 0 200 90" fill="none" xmlns="http://www.w3.org/2000/svg">
<path d="M102.267 30.5535L141.34 38.7377L192.251 15.3851L162.898 45.3175L178.604 63.1123L141.34 50.4149L103.246 64.7601L102.267 59.0458L102.267 45.3175L102.267 38.7377L102.267 30.5535Z" fill="#D9D9D9"/>
<path d="M17.3133 64.2977L16.7379 59.9396L20.4905 61.2676L17.3133 64.2977Z" fill="#D9D9D9" stroke="black" stroke-width="0.5"/>
<path d="M4.23441 43.5046L2.3546 46.2955L1.07281 43.1083L4.23441 43.5046Z" fill="#D9D9D9" stroke="black" stroke-width="0.5"/>
<path d="M17.9721 45.3493L16.0653 47.8739L14.8472 44.8621L17.9721 45.3493Z" fill="#D9D9D9" stroke="black" stroke-width="0.5"/>
<path d="M21.4539 45.8417L19.6129 48.2246L18.3477 45.4105L21.4539 45.8417Z" fill="#D9D9D9" stroke="black" stroke-width="0.5"/>
<path d="M24.3672 46.0629L22.5263 48.4457L21.261 45.6317L24.3672 46.0629Z" fill="#D9D9D9" stroke="black" stroke-width="0.5"/>
<path d="M26.7407 46.395L24.8997 48.7778L23.6345 45.9638L26.7407 46.395Z" fill="#D9D9D9" stroke="black" stroke-width="0.5"/>
<path d="M29.654 46.6161L27.8131 48.999L26.5479 46.185L29.654 46.6161Z" fill="#D9D9D9" stroke="black" stroke-width="0.5"/>
<path d="M32.081 46.395L30.2401 48.7778L28.9748 45.9638L32.081 46.395Z" fill="#D9D9D9" stroke="black" stroke-width="0.5"/>
<path d="M14.3331 44.8636L12.4133 47.6203L11.1776 44.4102L14.3331 44.8636Z" fill="#D9D9D9" stroke="black" stroke-width="0.5"/>
<path d="M11.3928 44.4826L9.51112 47.0538L8.26002 44.0394L11.3928 44.4826Z" fill="#D9D9D9" stroke="black" stroke-width="0.5"/>
<path d="M7.81785 44.0138L5.91652 46.9425L4.64097 43.6156L7.81785 44.0138Z" fill="#D9D9D9" stroke="black" stroke-width="0.5"/>
<path d="M30.9608 52.342L30.3853 47.9839L34.1379 49.3118L30.9608 52.342Z" fill="#D9D9D9" stroke="black" stroke-width="0.5"/>
<path d="M33.3343 51.3457L32.7588 46.9876L36.5114 48.3155L33.3343 51.3457Z" fill="#D9D9D9" stroke="black" stroke-width="0.5"/>
<path d="M28.5873 54.3346L28.0119 49.9765L31.7644 51.3045L28.5873 54.3346Z" fill="#D9D9D9" stroke="black" stroke-width="0.5"/>
<path d="M26.2138 56.3273L25.6384 51.9691L29.391 53.2971L26.2138 56.3273Z" fill="#D9D9D9" stroke="black" stroke-width="0.5"/>
<path d="M23.247 58.9841L22.6716 54.626L26.4241 55.9539L23.247 58.9841Z" fill="#D9D9D9" stroke="black" stroke-width="0.5"/>
<path d="M20.2802 61.6409L19.7047 57.2828L23.4573 58.6107L20.2802 61.6409Z" fill="#D9D9D9" stroke="black" stroke-width="0.5"/>
<path d="M68.2171 0V26.2217L103.819 30.8856V47.3536V64.7601H64.0635H16.911L35.2872 47.3536L0.593368 42.8413L47.1727 26.2217L68.2171 0Z" fill="#D9D9D9"/>
<path d="M49.3057 35.3335C49.3053 35.3339 49.305 35.3344 49.3046 35.3349C49.3134 35.3205 49.3169 35.3192 49.3057 35.3335ZM48.2778 35.67C48.4832 35.6809 48.6653 35.695 48.8225 35.7118C48.6868 35.8021 48.5275 35.9019 48.3459 36.01C47.6202 36.4422 46.6046 36.9692 45.4988 37.4989C43.275 38.5643 40.7689 39.6016 39.599 39.8954C38.4249 40.1902 35.5139 40.5117 32.848 40.6737C31.5219 40.7543 30.2775 40.794 29.3618 40.7727C29.1406 40.7676 28.9426 40.759 28.7699 40.747C28.9215 40.6536 29.0972 40.5511 29.2953 40.4407C30.1151 39.9836 31.2554 39.4246 32.4852 38.8634C34.9575 37.7352 37.7122 36.634 38.8863 36.3392C40.0562 36.0454 42.718 35.7851 45.1353 35.685C46.3372 35.6353 47.4567 35.6262 48.2778 35.67ZM28.0783 40.6432C28.0783 40.6432 28.0789 40.6435 28.08 40.6441C28.0788 40.6435 28.0783 40.6432 28.0783 40.6432ZM28.1841 41.1715C28.1841 41.1715 28.1845 41.171 28.1854 41.17C28.1846 41.171 28.1842 41.1715 28.1841 41.1715ZM49.4022 35.822C49.4027 35.8223 49.4032 35.8225 49.4037 35.8228C49.4193 35.8303 49.4157 35.8308 49.4022 35.822Z" fill="#D9D9D9" stroke="black"/>
<path d="M77.4656 90L48.0628 63.7638H67.3784L77.4656 90Z" fill="#D9D9D9"/>
<path d="M33.765 39.4122C33.8415 39.7804 33.2286 40.8487 31.6516 40.6657C30.0746 40.4827 29.3375 40.954 29.261 40.5858C29.1844 40.2175 29.5201 40.4726 31.3743 39.3322C33.2286 38.1919 33.6884 39.044 33.765 39.4122Z" fill="black"/>
<path d="M47.6068 46.9104C48.0826 46.5532 48.9851 46.3305 48.5625 46.7636C48.4102 46.9197 48.342 46.987 48.196 47.1505L44.2297 51.5912C42.0523 54.029 39.6468 56.1999 37.0566 58.0651L32.095 61.6377C31.9705 61.7274 31.8354 61.7968 31.694 61.8439L31.3042 62.0158C31.2948 62.02 31.2859 62.0257 31.2779 62.0327C31.1881 62.1121 31.0706 61.9936 31.1332 61.8868L31.506 61.2503C31.5158 61.2336 31.5275 61.2182 31.5406 61.2045L36.8684 55.694C38.5586 53.9458 40.3679 52.3465 42.2791 50.9113L47.6068 46.9104Z" fill="#F26565"/>
<path d="M43.1498 46.2018L45.9581 49.0563L47.7876 52.7761" stroke="black" stroke-linecap="round"/>
<path d="M35.319 53.1238L38.1273 55.9783L39.9568 59.6981" stroke="black" stroke-linecap="round"/>
<path d="M32.7087 55.4311L35.517 58.2856L37.3465 62.0054" stroke="black" stroke-linecap="round"/>
<path d="M37.9292 50.8165L40.7376 53.671L42.5671 57.3908" stroke="black" stroke-linecap="round"/>
<path d="M40.5395 48.5091L43.3479 51.3637L45.1773 55.0834" stroke="black" stroke-linecap="round"/>
<g filter="url(#filter0_bdd_4_99)">
<path d="M58.15 37.1956C52.8918 43.5954 53.9434 47.354 58.15 54.465" stroke="black" stroke-linecap="round"/>
</g>
<g filter="url(#filter1_bdd_4_99)">
<path d="M60.5235 37.1956C55.2652 43.5954 56.3169 47.354 60.5235 54.465" stroke="black" stroke-linecap="round"/>
</g>
<g filter="url(#filter2_bdd_4_99)">
<path d="M62.8969 37.1956C57.6387 43.5954 58.6903 47.354 62.8969 54.465" stroke="black" stroke-linecap="round"/>
</g>
<g filter="url(#filter3_bdd_4_99)">
<path d="M65.2704 37.1956C60.0122 43.5954 61.0638 47.354 65.2704 54.465" stroke="black" stroke-linecap="round"/>
</g>
<defs>
<filter id="filter0_bdd_4_99" x="50.0898" y="32.6956" width="12.5603" height="30.2695" filterUnits="userSpaceOnUse" color-interpolation-filters="sRGB">
<feFlood flood-opacity="0" result="BackgroundImageFix"/>
<feGaussianBlur in="BackgroundImageFix" stdDeviation="2"/>
<feComposite in2="SourceAlpha" operator="in" result="effect1_backgroundBlur_4_99"/>
<feColorMatrix in="SourceAlpha" type="matrix" values="0 0 0 0 0 0 0 0 0 0 0 0 0 0 0 0 0 0 127 0" result="hardAlpha"/>
<feOffset dy="4"/>
<feGaussianBlur stdDeviation="2"/>
<feComposite in2="hardAlpha" operator="out"/>
<feColorMatrix type="matrix" values="0 0 0 0 0 0 0 0 0 0 0 0 0 0 0 0 0 0 0.25 0"/>
<feBlend mode="normal" in2="effect1_backgroundBlur_4_99" result="effect2_dropShadow_4_99"/>
<feColorMatrix in="SourceAlpha" type="matrix" values="0 0 0 0 0 0 0 0 0 0 0 0 0 0 0 0 0 0 127 0" result="hardAlpha"/>
<feOffset dy="4"/>
<feGaussianBlur stdDeviation="2"/>
<feComposite in2="hardAlpha" operator="out"/>
<feColorMatrix type="matrix" values="0 0 0 0 0 0 0 0 0 0 0 0 0 0 0 0 0 0 0.25 0"/>
<feBlend mode="normal" in2="effect2_dropShadow_4_99" result="effect3_dropShadow_4_99"/>
<feBlend mode="normal" in="SourceGraphic" in2="effect3_dropShadow_4_99" result="shape"/>
</filter>
<filter id="filter1_bdd_4_99" x="52.4633" y="32.6956" width="12.5603" height="30.2695" filterUnits="userSpaceOnUse" color-interpolation-filters="sRGB">
<feFlood flood-opacity="0" result="BackgroundImageFix"/>
<feGaussianBlur in="BackgroundImageFix" stdDeviation="2"/>
<feComposite in2="SourceAlpha" operator="in" result="effect1_backgroundBlur_4_99"/>
<feColorMatrix in="SourceAlpha" type="matrix" values="0 0 0 0 0 0 0 0 0 0 0 0 0 0 0 0 0 0 127 0" result="hardAlpha"/>
<feOffset dy="4"/>
<feGaussianBlur stdDeviation="2"/>
<feComposite in2="hardAlpha" operator="out"/>
<feColorMatrix type="matrix" values="0 0 0 0 0 0 0 0 0 0 0 0 0 0 0 0 0 0 0.25 0"/>
<feBlend mode="normal" in2="effect1_backgroundBlur_4_99" result="effect2_dropShadow_4_99"/>
<feColorMatrix in="SourceAlpha" type="matrix" values="0 0 0 0 0 0 0 0 0 0 0 0 0 0 0 0 0 0 127 0" result="hardAlpha"/>
<feOffset dy="4"/>
<feGaussianBlur stdDeviation="2"/>
<feComposite in2="hardAlpha" operator="out"/>
<feColorMatrix type="matrix" values="0 0 0 0 0 0 0 0 0 0 0 0 0 0 0 0 0 0 0.25 0"/>
<feBlend mode="normal" in2="effect2_dropShadow_4_99" result="effect3_dropShadow_4_99"/>
<feBlend mode="normal" in="SourceGraphic" in2="effect3_dropShadow_4_99" result="shape"/>
</filter>
<filter id="filter2_bdd_4_99" x="54.8367" y="32.6956" width="12.5603" height="30.2695" filterUnits="userSpaceOnUse" color-interpolation-filters="sRGB">
<feFlood flood-opacity="0" result="BackgroundImageFix"/>
<feGaussianBlur in="BackgroundImageFix" stdDeviation="2"/>
<feComposite in2="SourceAlpha" operator="in" result="effect1_backgroundBlur_4_99"/>
<feColorMatrix in="SourceAlpha" type="matrix" values="0 0 0 0 0 0 0 0 0 0 0 0 0 0 0 0 0 0 127 0" result="hardAlpha"/>
<feOffset dy="4"/>
<feGaussianBlur stdDeviation="2"/>
<feComposite in2="hardAlpha" operator="out"/>
<feColorMatrix type="matrix" values="0 0 0 0 0 0 0 0 0 0 0 0 0 0 0 0 0 0 0.25 0"/>
<feBlend mode="normal" in2="effect1_backgroundBlur_4_99" result="effect2_dropShadow_4_99"/>
<feColorMatrix in="SourceAlpha" type="matrix" values="0 0 0 0 0 0 0 0 0 0 0 0 0 0 0 0 0 0 127 0" result="hardAlpha"/>
<feOffset dy="4"/>
<feGaussianBlur stdDeviation="2"/>
<feComposite in2="hardAlpha" operator="out"/>
<feColorMatrix type="matrix" values="0 0 0 0 0 0 0 0 0 0 0 0 0 0 0 0 0 0 0.25 0"/>
<feBlend mode="normal" in2="effect2_dropShadow_4_99" result="effect3_dropShadow_4_99"/>
<feBlend mode="normal" in="SourceGraphic" in2="effect3_dropShadow_4_99" result="shape"/>
</filter>
<filter id="filter3_bdd_4_99" x="57.2102" y="32.6956" width="12.5603" height="30.2695" filterUnits="userSpaceOnUse" color-interpolation-filters="sRGB">
<feFlood flood-opacity="0" result="BackgroundImageFix"/>
<feGaussianBlur in="BackgroundImageFix" stdDeviation="2"/>
<feComposite in2="SourceAlpha" operator="in" result="effect1_backgroundBlur_4_99"/>
<feColorMatrix in="SourceAlpha" type="matrix" values="0 0 0 0 0 0 0 0 0 0 0 0 0 0 0 0 0 0 127 0" result="hardAlpha"/>
<feOffset dy="4"/>
<feGaussianBlur stdDeviation="2"/>
<feComposite in2="hardAlpha" operator="out"/>
<feColorMatrix type="matrix" values="0 0 0 0 0 0 0 0 0 0 0 0 0 0 0 0 0 0 0.25 0"/>
<feBlend mode="normal" in2="effect1_backgroundBlur_4_99" result="effect2_dropShadow_4_99"/>
<feColorMatrix in="SourceAlpha" type="matrix" values="0 0 0 0 0 0 0 0 0 0 0 0 0 0 0 0 0 0 127 0" result="hardAlpha"/>
<feOffset dy="4"/>
<feGaussianBlur stdDeviation="2"/>
<feComposite in2="hardAlpha" operator="out"/>
<feColorMatrix type="matrix" values="0 0 0 0 0 0 0 0 0 0 0 0 0 0 0 0 0 0 0.25 0"/>
<feBlend mode="normal" in2="effect2_dropShadow_4_99" result="effect3_dropShadow_4_99"/>
<feBlend mode="normal" in="SourceGraphic" in2="effect3_dropShadow_4_99" result="shape"/>
</filter>
</defs>
</svg>
