<svg width="70" height="70" viewBox="0 0 70 70" fill="none" xmlns="http://www.w3.org/2000/svg">
<circle cx="35" cy="35" r="33" fill="white" stroke="#020E47" stroke-width="4"/>
<path d="M35 17.5C37.3206 17.5 39.5462 18.4219 41.1872 20.0628C42.8281 21.7038 43.75 23.9294 43.75 26.25C43.75 28.5706 42.8281 30.7962 41.1872 32.4372C39.5462 34.0781 37.3206 35 35 35C32.6794 35 30.4538 34.0781 28.8128 32.4372C27.1719 30.7962 26.25 28.5706 26.25 26.25C26.25 23.9294 27.1719 21.7038 28.8128 20.0628C30.4538 18.4219 32.6794 17.5 35 17.5ZM35 21.875C33.8397 21.875 32.7269 22.3359 31.9064 23.1564C31.0859 23.9769 30.625 25.0897 30.625 26.25C30.625 27.4103 31.0859 28.5231 31.9064 29.3436C32.7269 30.1641 33.8397 30.625 35 30.625C36.1603 30.625 37.2731 30.1641 38.0936 29.3436C38.9141 28.5231 39.375 27.4103 39.375 26.25C39.375 25.0897 38.9141 23.9769 38.0936 23.1564C37.2731 22.3359 36.1603 21.875 35 21.875ZM35 37.1875C40.8406 37.1875 52.5 40.0969 52.5 45.9375V52.5H17.5V45.9375C17.5 40.0969 29.1594 37.1875 35 37.1875ZM35 41.3438C28.5031 41.3438 21.6562 44.5375 21.6562 45.9375V48.3438H48.3438V45.9375C48.3438 44.5375 41.4969 41.3438 35 41.3438Z" fill="#020E47"/>
</svg>
