<svg width="225" height="80" viewBox="0 0 225 80" fill="none" xmlns="http://www.w3.org/2000/svg">
<path d="M54.3762 17.5051C53.9295 14.9927 53.5782 12.48 53.252 9.96719L53.133 9.02484L53.0745 8.55371L53.0604 8.43593C53.0555 8.39749 53.0516 8.35346 53.0442 8.3279L53.0058 8.15122C52.905 7.68379 52.7244 7.25176 52.4786 6.87361C52.2304 6.49716 51.9255 6.16899 51.5735 5.91762C51.222 5.66653 50.8389 5.48057 50.4451 5.37595C50.0515 5.27114 49.6544 5.23573 49.2671 5.27256L47.4868 5.43361L45.5783 5.59788C44.9422 5.65204 44.306 5.70468 43.6698 5.75316C41.1251 5.95596 38.5802 6.13169 36.0352 6.28725C34.7627 6.36773 33.4902 6.43732 32.2176 6.50672L31.7404 6.53304L31.5018 6.54516L31.4422 6.5481L31.413 6.54961L31.4018 6.55245L31.3573 6.56268C31.3278 6.56892 31.2984 6.57413 31.2691 6.57811C31.2398 6.58208 31.21 6.58284 31.1828 6.59572C31.1278 6.61664 31.0712 6.62554 31.0172 6.64325C30.801 6.71322 30.6116 6.83507 30.4426 6.97255C30.2743 7.11201 30.1332 7.28139 30.0306 7.46375C29.929 7.64705 29.861 7.83802 29.8295 8.03079C29.8095 8.12642 29.811 8.22536 29.8082 8.32326C29.8115 8.34854 29.8137 8.37344 29.8147 8.39824L29.8152 8.43536L29.8148 8.45392L29.8144 8.46319L29.8152 8.48838L29.8333 8.9597L29.8947 10.8452C29.9778 13.3591 30.0359 15.8732 30.0839 18.3873C30.0984 19.0158 30.1042 19.6444 30.1138 20.273L30.1142 20.3024L30.1132 20.3528L30.1107 20.4548L30.1043 20.6588L30.0856 21.0668C30.0814 21.2026 30.0624 21.3384 30.044 21.4742C30.0257 21.6099 30.0061 21.7455 29.9851 21.881C29.9507 22.1529 29.875 22.4184 29.8101 22.6854C29.7736 22.8179 29.7458 22.953 29.6983 23.0822C29.6539 23.2124 29.6083 23.3423 29.5613 23.4717C28.8005 25.5424 27.2551 27.2914 25.293 28.3293C25.0446 28.4532 24.795 28.5763 24.5397 28.6849C24.2803 28.785 24.0183 28.8803 23.7552 28.9702C23.4877 29.0463 23.2175 29.1155 22.947 29.1804C22.6754 29.2387 22.3995 29.2758 22.1248 29.3165C21.9872 29.3389 21.8496 29.3482 21.7117 29.3561L21.2978 29.3782C20.9695 29.3938 20.8784 29.3871 20.705 29.389L19.7503 29.3905L15.9317 29.372C14.6587 29.357 13.3859 29.3488 12.1129 29.328L8.57273 29.2664C8.38388 29.2655 8.20136 29.2951 8.0223 29.3595C7.84352 29.4225 7.66646 29.5182 7.51107 29.6479C7.35482 29.7767 7.22234 29.9362 7.11919 30.1127C7.01825 30.2908 6.94952 30.4868 6.91798 30.7054L6.90955 30.7463L6.90466 30.7669C6.90389 30.771 6.90284 30.7722 6.90216 30.7788L6.90111 30.8082L6.89277 31.044L6.87408 31.5155L6.83506 32.4585L6.75511 34.3446C6.69511 35.6021 6.63864 36.8595 6.56828 38.117C6.50444 39.3744 6.42612 40.632 6.35211 41.8895C6.27006 43.1471 6.19097 44.4046 6.09837 45.6623C6.05456 46.291 6.00855 46.9199 5.9588 47.5487L5.83811 49.1469C5.82891 49.5074 5.88786 49.8758 6.01929 50.2338C6.15042 50.5917 6.35672 50.9345 6.62283 51.2405C6.88855 51.5475 7.21994 51.8093 7.59591 52.0125L7.73759 52.091C7.78648 52.113 7.837 52.1312 7.88694 52.1525L8.03802 52.2166C8.08796 52.2419 8.14222 52.2489 8.19456 52.2669L8.35388 52.3154C8.38063 52.3231 8.40718 52.3335 8.4344 52.3397L8.51694 52.3547L8.68335 52.3878L8.76742 52.4056C8.78314 52.4083 8.79187 52.4123 8.81343 52.4141L8.87316 52.4203C10.1466 52.5499 11.4201 52.6898 12.6937 52.8373C15.2408 53.1374 17.788 53.4629 20.3357 53.8835C17.7921 54.3274 15.248 54.6763 12.7038 54.9996C11.4318 55.1589 10.1596 55.3106 8.88744 55.4517L8.82782 55.4585C8.8096 55.461 8.77864 55.4614 8.75458 55.4628L8.60024 55.4698L8.28985 55.4814L8.13398 55.4855C8.08202 55.4854 8.03025 55.4804 7.9782 55.478L7.66531 55.4575C7.56121 55.4477 7.4549 55.4476 7.35185 55.4279L7.04011 55.3767C6.9361 55.3584 6.83113 55.3419 6.72751 55.3202L6.42027 55.2387C5.59922 55.0174 4.81374 54.636 4.11377 54.1251C3.41351 53.6138 2.8045 52.9652 2.32424 52.2198C1.84273 51.4749 1.50981 50.6239 1.33582 49.7391L1.30073 49.5731C1.28923 49.5177 1.28482 49.4619 1.27686 49.4061L1.23641 49.07L1.21791 48.9012L1.20324 48.749L1.18283 48.5134L1.10125 47.5708C1.04555 46.9424 0.993597 46.3141 0.943941 45.6857C0.839452 44.4291 0.748577 43.1723 0.654729 41.9156C0.568838 40.6588 0.478728 39.402 0.402998 38.1452C0.32075 36.8884 0.252497 35.6315 0.180697 34.3748L0.0830151 32.4894L0.0350848 31.5467L0.0118861 31.0754L0.00134131 30.8398L0 30.8103V30.7634L0.000574848 30.6661L0.00306732 30.4716C0.0113113 29.4347 0.213769 28.3817 0.604689 27.3995C0.993692 26.4154 1.5794 25.5113 2.30258 24.7325C3.02738 23.9546 3.8977 23.3018 4.86762 22.8254C5.83677 22.3491 6.90293 22.0495 7.98184 21.9468L8.38686 21.9179C8.51588 21.9098 8.68182 21.9009 8.73665 21.9002L9.21385 21.8851L10.1683 21.8596L12.0774 21.8104C13.35 21.7779 14.6229 21.7581 15.8955 21.7313L19.7139 21.6778L20.6684 21.6705C20.8133 21.669 21.0405 21.6701 21.0298 21.6613C21.0507 21.6587 21.0715 21.6574 21.0925 21.6574C21.1136 21.658 21.135 21.66 21.154 21.6518C21.1927 21.6394 21.234 21.641 21.2728 21.6321C21.3099 21.6168 21.348 21.6079 21.3877 21.6022C21.4229 21.5827 21.4592 21.5686 21.4981 21.5592C21.5335 21.5409 21.5666 21.5185 21.6053 21.507C21.7467 21.4333 21.8788 21.3314 21.9879 21.2097C22.0981 21.0884 22.1804 20.9483 22.2411 20.8034C22.2481 20.785 22.2565 20.767 22.2661 20.7494C22.279 20.7326 22.2747 20.7108 22.2818 20.6923C22.2878 20.6532 22.3152 20.6189 22.3125 20.577C22.3148 20.5569 22.3185 20.5371 22.3236 20.5174C22.3286 20.4978 22.3372 20.4784 22.3335 20.4567C22.3332 20.4357 22.3343 20.4148 22.3367 20.3938L22.3412 20.3623L22.3442 20.3465L22.3458 20.3381L22.3459 20.3087C22.3495 19.6801 22.3495 19.0515 22.3581 18.4228C22.3824 15.9084 22.4168 13.3938 22.4762 10.8792L22.5199 8.99331L22.5336 8.5218L22.5421 8.33926L22.5536 8.1409L22.582 7.74495C22.6413 7.21824 22.736 6.69305 22.8909 6.18367C23.1911 5.16358 23.6814 4.20305 24.3275 3.37015C24.9718 2.53564 25.7656 1.82326 26.6608 1.2725C27.5554 0.722317 28.5547 0.334884 29.5857 0.146849C29.8427 0.100077 30.1029 0.0713887 30.3614 0.0399548C30.4907 0.0217762 30.6202 0.0182723 30.7498 0.0137276L31.1382 0.00321881L31.332 0.00047242L31.3804 0L31.4109 0.00113554L31.4705 0.00350342L31.7092 0.0134445L32.1866 0.0354098C33.4597 0.0931648 34.7328 0.151109 36.006 0.219847C38.5523 0.352021 41.0987 0.504362 43.6452 0.683782C44.2818 0.726388 44.9185 0.77316 45.5551 0.821447L47.4651 0.968201L48.42 1.04499L48.8975 1.08362L49.1703 1.10852L49.5026 1.14412C50.3849 1.25177 51.2445 1.51489 52.0123 1.92334C52.7804 2.33056 53.463 2.86853 54.014 3.50459C54.5668 4.13867 54.9911 4.86761 55.2628 5.63765C55.5369 6.40683 55.6585 7.21635 55.6288 8.00286L55.6168 8.29684C55.6154 8.34977 55.61 8.38433 55.6058 8.42447L55.5927 8.54244L55.5386 9.01414L55.4285 9.95753C55.127 12.4729 54.7993 14.9889 54.3762 17.5051Z" fill="#528AC8"/>
<path d="M42.9165 35.8082C42.5668 35.9924 42.2149 36.1665 41.8702 36.3554C41.5224 36.536 41.1804 36.7275 40.8396 36.9173C40.1595 37.3007 39.4921 37.6977 38.8434 38.1162C38.1921 38.5298 37.5625 38.9692 36.9506 39.422C36.6435 39.6471 36.3468 39.8839 36.0494 40.1167C35.7582 40.3577 35.4665 40.5954 35.1869 40.8456C34.6229 41.3392 34.0842 41.8532 33.58 42.3904C33.0797 42.9272 32.6101 43.4702 32.1945 44.0492L32.0364 44.2634C31.9842 44.335 31.9374 44.4105 31.8878 44.4837C31.7911 44.6319 31.689 44.7754 31.5947 44.9239L31.3219 45.3742C31.2751 45.4479 31.2324 45.5243 31.1917 45.6019L31.0669 45.8321L30.9421 46.0614C30.9022 46.1388 30.866 46.2184 30.8277 46.2963C30.7528 46.4536 30.6715 46.6061 30.6018 46.7654L30.395 47.2425C30.3266 47.4013 30.27 47.5664 30.2069 47.7272C29.9685 48.378 29.755 49.036 29.5987 49.7172C29.44 50.3966 29.3005 51.0819 29.2098 51.7852L29.1722 52.0471L29.1429 52.3125L29.0836 52.844C29.0512 53.2119 29.0117 53.5786 28.9847 53.9457C28.9615 54.313 28.9273 54.6787 28.914 55.0456L28.8854 55.5946C28.8755 55.7774 28.873 55.961 28.8663 56.144C28.8216 57.6085 28.8435 59.0723 28.9214 60.5615C28.9545 61.3039 29.0033 62.0567 29.054 62.8119L29.2186 65.1049C29.2735 65.875 29.3333 66.6527 29.3818 67.435L29.537 69.6972L29.5853 70.2455L29.61 70.4987L29.6227 70.6201L29.6367 70.7335C29.6738 71.0338 29.7203 71.2809 29.7737 71.4693C29.8273 71.6587 29.8842 71.7878 29.9424 71.8798C29.9594 71.9008 29.9708 71.9252 29.9864 71.9452C30.0041 71.9635 30.0146 71.9857 30.0321 72.0037C30.0408 72.0126 30.0491 72.0218 30.0568 72.0313C30.0644 72.041 30.0696 72.0503 30.083 72.0627C30.1062 72.0858 30.1257 72.1111 30.1474 72.135C30.3264 72.3224 30.5589 72.4739 30.8072 72.5694C31.0562 72.6646 31.3155 72.7051 31.5491 72.6845L33.8275 72.6137L36.1774 72.551C39.3104 72.4664 42.4436 72.4063 45.5768 72.3562L47.9267 72.3246L49.1017 72.3106L49.2433 72.3086C49.2563 72.3057 49.2693 72.3034 49.2822 72.3016C49.3081 72.2979 49.334 72.2963 49.3601 72.2965C49.3872 72.3013 49.4101 72.2868 49.4349 72.2832C49.4593 72.2779 49.484 72.2746 49.5092 72.2731C49.7013 72.2293 49.8793 72.1427 50.0394 72.0212C50.1971 71.8992 50.3398 71.7449 50.4204 71.567C50.5065 71.3919 50.5584 71.2106 50.5665 71.0057C50.568 70.993 50.57 70.9803 50.5725 70.9675L50.5727 70.8287L50.572 70.5385L50.5708 69.9582L50.5683 68.7976L50.5828 64.1552L50.6233 59.5128C50.6278 59.3038 50.6219 59.1876 50.6426 58.7947C50.651 58.629 50.6613 58.4633 50.6737 58.2982C50.6862 58.1331 50.7174 57.9682 50.7414 57.8034C50.768 57.6389 50.7944 57.4742 50.8268 57.311C50.8665 57.1488 50.9082 56.987 50.9517 56.8257C51.031 56.501 51.1511 56.1889 51.2712 55.8773C51.3017 55.7997 51.3313 55.7217 51.3638 55.6449L51.4716 55.4192C51.5443 55.2691 51.6188 55.1199 51.695 54.9717C51.7314 54.8967 51.7743 54.8254 51.8178 54.7544L51.9482 54.5415C52.0366 54.4004 52.1241 54.2587 52.2186 54.1222C52.3175 53.9887 52.4182 53.8563 52.5203 53.7252C52.6228 53.5944 52.7231 53.462 52.8382 53.3421C53.0644 53.0988 53.2854 52.8507 53.5393 52.6357C54.5237 51.746 55.7096 51.074 56.9878 50.6895C57.3101 50.6063 57.6332 50.5187 57.9604 50.4626C58.1246 50.4372 58.2891 50.4136 58.4537 50.392L58.7005 50.3611C58.7828 50.3526 58.8652 50.3507 58.9475 50.3458C59.1123 50.3378 59.2773 50.3314 59.442 50.3271L59.5655 50.3241L59.6272 50.3229L59.6666 50.3236L59.8135 50.3269L60.4011 50.34C61.9679 50.3718 63.5349 50.4166 65.1018 50.4591C66.6687 50.5028 68.2357 50.5553 69.8027 50.6075L70.978 50.6507L71.5656 50.6723L71.8594 50.6831L71.9328 50.6858L71.9689 50.6871L71.9835 50.6868L72.0419 50.6871C72.3554 50.7047 72.6667 50.6646 72.9703 50.5499L72.9999 50.5412L73.0265 50.527L73.081 50.5C73.1175 50.4822 73.1561 50.4672 73.1941 50.4505C73.228 50.4276 73.2629 50.406 73.2991 50.3854C73.3341 50.3637 73.3755 50.3489 73.4055 50.3199C73.4681 50.2662 73.5476 50.2279 73.6046 50.1659C73.6359 50.1378 73.6686 50.1105 73.7027 50.0839C73.7344 50.0554 73.759 50.0211 73.7896 49.9911C74.0222 49.743 74.2145 49.4446 74.3137 49.1048C74.323 49.0618 74.3348 49.0189 74.3476 48.9758L74.3681 48.911C74.376 48.8895 74.3747 48.8663 74.379 48.844C74.3852 48.7989 74.3927 48.7538 74.4017 48.7083L74.4087 48.6741C74.4109 48.6602 74.4145 48.6583 74.4151 48.6283L74.4226 48.4833L74.4832 47.3224L74.6121 45.0006C74.7895 41.905 74.9901 38.8092 75.2205 35.7133C75.3365 34.1653 75.4578 32.6173 75.5892 31.0693L75.6139 30.779L75.62 30.7065C75.622 30.6828 75.6246 30.6553 75.625 30.641L75.631 30.5365L75.6461 30.3253L75.6503 30.272L75.6476 30.2194L75.6431 30.1139C75.6405 30.0432 75.6383 29.9719 75.6376 29.9L75.6089 29.6882C75.5972 29.6177 75.5963 29.5434 75.5772 29.4742L75.5263 29.2631L75.5019 29.1558C75.4922 29.1206 75.4779 29.087 75.4663 29.0524L75.394 28.8434C75.3742 28.7709 75.3353 28.7079 75.3059 28.6393L75.2135 28.4337L75.0991 28.2387C75.0591 28.1746 75.028 28.1026 74.9796 28.044L74.845 27.8573C74.8221 27.8264 74.8014 27.793 74.7766 27.7634L74.6996 27.677C74.2982 27.2033 73.7791 26.806 73.1797 26.5304C73.1045 26.4973 73.0265 26.4709 72.9495 26.44C72.8716 26.4119 72.7951 26.3749 72.7148 26.3528L72.4721 26.2865C72.3907 26.2641 72.3091 26.2368 72.2249 26.2268L71.9723 26.183L71.8434 26.1608L71.6965 26.1452L71.1086 26.0821C69.5411 25.9065 67.9736 25.7337 66.4058 25.5182C67.9714 25.2883 69.5373 25.1011 71.1031 24.9111L71.6902 24.8425L71.837 24.8257L72.0016 24.8158L72.3358 24.7987C72.4481 24.7892 72.5596 24.7976 72.672 24.8028L73.0105 24.8213C73.1237 24.8286 73.2344 24.8518 73.3473 24.867C73.4594 24.8853 73.5733 24.9001 73.6854 24.9227C74.5803 25.1135 75.4447 25.5162 76.1913 26.0942L76.3326 26.2019C76.3787 26.239 76.4208 26.2802 76.4651 26.3194L76.7276 26.5604C76.8185 26.6386 76.8919 26.732 76.9739 26.819L77.2131 27.0874L77.4282 27.3763C77.4972 27.4747 77.575 27.5688 77.6331 27.6744L77.8183 27.9871C77.8484 28.0398 77.8809 28.0916 77.9086 28.1455L77.9864 28.3103L78.14 28.6431C78.1923 28.7542 78.2253 28.8718 78.2682 28.9871C78.3081 29.103 78.3494 29.2194 78.3864 29.337L78.4722 29.6963L78.5133 29.8773L78.5335 29.9681L78.5463 30.0596L78.5938 30.4278L78.616 30.613L78.631 30.7651L78.6585 31.0551C78.8044 32.6019 78.9404 34.1487 79.0709 35.6955C79.3304 38.7891 79.5601 41.8829 79.7667 44.9769L79.9174 47.2973L79.9889 48.4575L79.9978 48.6026C79.9998 48.6208 79.9992 48.6672 79.9997 48.7017L80 48.8124C80.0001 48.9601 79.9987 49.1082 79.9958 49.2563C79.9931 49.3304 79.9954 49.4046 79.9875 49.4786L79.9651 49.7009C79.9492 49.8491 79.9324 49.9976 79.9131 50.1459C79.5525 52.5217 78.0373 54.7176 75.8647 55.9268C74.7823 56.5332 73.5448 56.9038 72.2936 56.9818L72.0588 56.9981L71.9627 57.0035L71.8892 57.0069L71.5955 57.0203L71.0081 57.0473L69.8333 57.1013C68.2668 57.1678 66.7005 57.2347 65.134 57.2928C63.5676 57.3497 62.0011 57.4089 60.4346 57.4551L59.8472 57.4736L59.7003 57.4783L59.6663 57.4796L59.6547 57.4824L59.6315 57.4874C59.6007 57.4936 59.5701 57.498 59.5393 57.5005C59.5241 57.5026 59.5082 57.5009 59.4935 57.5047C59.479 57.5099 59.4645 57.5145 59.4501 57.5188C59.4213 57.5272 59.3923 57.5338 59.3631 57.5385C59.3558 57.5398 59.3483 57.5403 59.3412 57.5421L59.3208 57.5516C59.3072 57.5576 59.2937 57.5633 59.28 57.5684C59.2526 57.5785 59.2247 57.5862 59.1962 57.5924C58.9822 57.6819 58.7891 57.8177 58.6314 57.986C58.5846 58.0207 58.5607 58.0769 58.5208 58.1172C58.4986 58.1359 58.4887 58.1642 58.4737 58.1881C58.4592 58.2124 58.4433 58.2354 58.4257 58.2574C58.4127 58.2823 58.4041 58.3095 58.3901 58.3333C58.3835 58.3454 58.3766 58.3573 58.3691 58.3689C58.3613 58.3804 58.3532 58.3918 58.3509 58.4059C58.343 58.4324 58.3333 58.4578 58.3218 58.4824C58.316 58.4947 58.3099 58.5067 58.3032 58.5186C58.2995 58.5318 58.298 58.5455 58.2946 58.5586C58.2831 58.6112 58.2566 58.659 58.2558 58.7141C58.2515 58.7404 58.2453 58.7661 58.2371 58.7915C58.2361 58.8187 58.2372 58.8461 58.2342 58.8726C58.2338 58.8997 58.2225 58.9248 58.2255 58.9528C58.2289 58.9809 58.2302 59.0085 58.2297 59.036C58.2236 59.0293 58.2307 59.3002 58.2348 59.478L58.319 64.1199L58.3773 68.762L58.3857 69.9225L58.3899 70.5028L58.392 70.7929L58.3927 70.9442L58.3852 71.196C58.3546 72.5373 58.0129 73.8915 57.3887 75.0952C56.7689 76.3033 55.8612 77.3509 54.7755 78.1658C53.6894 78.9787 52.4122 79.5626 51.0673 79.8247C50.8991 79.8534 50.7303 79.8801 50.5613 79.9049C50.3922 79.9278 50.2232 79.9578 50.0538 79.9641C49.8844 79.975 49.7147 79.984 49.545 79.991L49.2907 80H49.1385L47.9634 79.9968L45.6133 79.9868C42.4797 79.9655 39.3462 79.9342 36.2124 79.8782L33.8621 79.8371L31.4406 79.7816C30.7747 79.7613 30.1151 79.6675 29.48 79.5011C28.8444 79.3352 28.2337 79.0967 27.6574 78.7988C26.5057 78.2021 25.4893 77.3581 24.7052 76.3238C24.6079 76.1942 24.5157 76.0604 24.4232 75.9275C24.331 75.7952 24.2419 75.6428 24.1549 75.4995C24.0678 75.3538 23.9921 75.2018 23.9135 75.0518C23.8374 74.901 23.7715 74.7473 23.7034 74.5941C23.4428 73.9788 23.279 73.3606 23.1774 72.7922C23.0756 72.2219 23.033 71.6989 23.0112 71.2279L23.0035 71.0519L22.9987 70.8836C22.9952 70.7692 22.9933 70.6637 22.9924 70.5574L22.9902 69.9462L23.0269 67.5676L23.0779 65.2568C23.1079 63.7063 23.1542 62.1247 23.2474 60.5171C23.2949 59.7148 23.3632 58.9044 23.4417 58.0948C23.4877 57.6887 23.5259 57.2841 23.5837 56.8785L23.6651 56.2709C23.6926 56.0685 23.7266 55.8664 23.7572 55.6643C23.8777 54.8555 24.0328 54.0519 24.2002 53.2542C24.2835 52.8552 24.3794 52.4598 24.4686 52.0633C24.5161 51.8629 24.5711 51.6562 24.6232 51.4537L24.7024 51.1487L24.791 50.8438C25.0194 50.0321 25.2976 49.2234 25.6206 48.4309C25.9392 47.6372 26.3183 46.8589 26.7443 46.1093C27.1672 45.3578 27.6503 44.6369 28.181 43.9593L28.3808 43.7059C28.4465 43.621 28.5141 43.5375 28.5858 43.4573L29.0074 42.9713C29.1512 42.8127 29.3009 42.6595 29.4484 42.5053C29.5231 42.429 29.5951 42.3505 29.6718 42.2766L29.9036 42.0567C30.0597 41.9124 30.2084 41.7608 30.3702 41.624L30.8504 41.2101C31.01 41.0724 31.1806 40.9485 31.3448 40.8178C31.5102 40.6881 31.6754 40.5596 31.8449 40.4416C32.5117 39.9507 33.2091 39.5102 33.9163 39.1C34.6247 38.691 35.3474 38.3168 36.0849 37.9838C36.8206 37.6479 37.565 37.3414 38.3206 37.0738C39.8298 36.5356 41.3642 36.1117 42.9165 35.8082Z" fill="#528AC8"/>
<path d="M22.6117 45.5683C22.5204 45.3155 22.4329 45.0606 22.3521 44.8031C22.2702 44.5459 22.2001 44.2857 22.1264 44.0243C22.091 43.8934 22.0585 43.7619 22.027 43.63C21.9943 43.4981 21.9637 43.3656 21.9364 43.2325L21.8514 42.8321L21.7767 42.4285C21.5855 41.3487 21.504 40.2367 21.5314 39.1021C21.557 38.536 21.5946 37.9622 21.6896 37.3892C21.7278 37.1012 21.788 36.8149 21.8479 36.527C21.8747 36.3824 21.9169 36.2407 21.9523 36.097C21.9905 35.954 22.024 35.809 22.0673 35.6665C22.4064 34.5243 22.9152 33.3952 23.6022 32.3505L23.8724 31.9673C23.9636 31.8398 24.0529 31.7099 24.1538 31.59C24.352 31.3472 24.5447 31.0945 24.7627 30.8674L25.0857 30.5196C25.1959 30.4061 25.3123 30.3005 25.4263 30.1905C25.5415 30.0825 25.6553 29.9709 25.7736 29.8659L26.136 29.561C27.1125 28.7561 28.1916 28.0891 29.3107 27.5548C29.4505 27.4881 29.5904 27.4166 29.7314 27.3541L30.1563 27.1736L30.5841 26.9962C30.7263 26.9393 30.8656 26.8927 31.0069 26.8406C31.289 26.7411 31.5706 26.6324 31.8559 26.5428L32.2837 26.4032C32.4256 26.3554 32.5746 26.3191 32.7201 26.2765L33.16 26.1542L33.5969 26.0463C33.8899 25.9711 34.1781 25.9105 34.4678 25.8476C35.0469 25.7247 35.6178 25.6279 36.1847 25.5349C38.443 25.1813 40.5847 25.0123 42.5193 24.7288C42.7577 24.6916 42.9982 24.6557 43.2302 24.6157L43.9022 24.4845C44.014 24.4621 44.1265 24.4474 44.2374 24.4191L44.5706 24.3403C44.7924 24.2856 45.0152 24.2422 45.2353 24.1801C45.6749 24.0528 46.1153 23.9393 46.5497 23.7908L46.8764 23.6863L47.0395 23.6336L47.2012 23.5736L47.8473 23.3356C51.2814 22.0117 54.5123 19.9522 57.5554 17.4961L57.6027 17.4578C59.2642 16.1169 61.7116 16.3601 63.0692 18.0011C63.5568 18.5906 63.8367 19.2768 63.9192 19.9808L63.9488 20.2295L63.9723 20.4459L64.0139 20.8656C64.0398 21.1423 64.0628 21.4158 64.0834 21.6881C64.126 22.2326 64.1543 22.7737 64.175 23.3142C64.2165 24.395 64.2316 25.4737 64.2032 26.5547C64.1781 27.6356 64.1231 28.7183 64.0216 29.8028C63.9734 30.345 63.9155 30.8881 63.8472 31.4312C63.7783 31.974 63.6942 32.5178 63.6053 33.0613C63.2413 35.2354 62.6877 37.4162 61.855 39.5618C61.4253 40.6308 60.943 41.6953 60.342 42.7236C59.7534 43.7548 59.0551 44.7533 58.2486 45.6838C57.8466 46.1503 57.4069 46.5926 56.949 47.016C56.7117 47.222 56.4824 47.4325 56.233 47.6258C56.1092 47.7231 55.9898 47.8237 55.8623 47.9168L55.4789 48.1933L55.3822 48.262L55.2767 48.3324L55.0653 48.4721C54.9248 48.5638 54.7788 48.6635 54.6551 48.7249L53.8827 49.1434C53.6236 49.2879 53.3709 49.3999 53.1169 49.5215C52.8625 49.6402 52.6112 49.7641 52.3553 49.8765C50.3046 50.7693 48.182 51.4163 46.0335 51.8208C43.8828 52.2167 41.7047 52.3606 39.5639 52.2503C37.4242 52.1339 35.3175 51.7671 33.3423 51.0886C35.4265 50.9257 37.4352 50.6152 39.3697 50.1327C41.3032 49.6545 43.1616 49.0192 44.9262 48.2397C46.6873 47.4517 48.3557 46.5261 49.8951 45.4792C50.0875 45.3487 50.2728 45.2086 50.4614 45.0748C50.6478 44.9396 50.8425 44.8061 51.0079 44.6679L51.5243 44.2638C51.6205 44.1951 51.6727 44.1346 51.7358 44.0735L51.8291 43.9829L51.8758 43.9381L51.9264 43.8856C52.2023 43.6083 52.4627 43.3139 52.7104 43.0086C52.9522 42.695 53.183 42.3726 53.3999 42.0344C54.2577 40.6751 54.8958 39.0959 55.354 37.407C55.8162 35.7168 56.106 33.9242 56.2862 32.0941C56.3289 31.6356 56.3686 31.1763 56.3953 30.713C56.4254 30.2505 56.4525 29.7865 56.4682 29.3202C56.4861 28.8543 56.4943 28.3868 56.4998 27.9182C56.5062 27.4497 56.5074 26.9805 56.4998 26.5104C56.4825 25.5707 56.4547 24.6283 56.3959 23.6905C56.3664 23.222 56.3308 22.7544 56.2938 22.2915C56.2746 22.0602 56.2533 21.8304 56.2305 21.6042L56.1948 21.2699L56.1601 20.9821L62.5239 23.4668C60.7513 24.9016 58.8655 26.2473 56.8241 27.4135C56.322 27.7147 55.7915 27.9799 55.2713 28.2572C55.008 28.3917 54.7385 28.5183 54.4723 28.6487L54.0718 28.8424L53.6633 29.0247L52.842 29.3799L52.0044 29.7075C51.8641 29.7606 51.7268 29.8187 51.5841 29.8675L51.1573 30.0158C50.8719 30.1128 50.5907 30.2169 50.3004 30.3023L49.4306 30.5583L49.2132 30.6217L48.9927 30.6778L48.5513 30.788C48.256 30.8582 47.9655 30.9413 47.6652 30.9949L46.7705 31.1701C46.4721 31.227 46.1687 31.2647 45.8685 31.3119L45.4172 31.3787C45.2673 31.4026 45.1144 31.4128 44.9632 31.4303L44.054 31.5172C43.7576 31.5395 43.4685 31.5549 43.1776 31.5718C40.8729 31.6816 38.7532 31.6015 36.7724 31.6435C36.5284 31.6513 36.2798 31.6549 36.0385 31.6655C35.7995 31.6781 35.5529 31.6849 35.3189 31.7016C35.0824 31.7163 34.8434 31.7284 34.6136 31.7517L34.2647 31.7821L33.9235 31.8227C33.6965 31.8463 33.4657 31.8831 33.2341 31.9178C33.0012 31.9488 32.7745 31.9971 32.5433 32.036C32.4292 32.0573 32.3101 32.0749 32.1993 32.099L31.871 32.1743L31.5398 32.2463C31.4303 32.272 31.3256 32.3049 31.2175 32.3334C29.4926 32.7963 27.929 33.5683 26.6334 34.7585L26.3977 34.9894C26.3201 35.0678 26.2356 35.1417 26.1646 35.2266C26.0177 35.3926 25.8615 35.5546 25.7247 35.7335L25.5108 35.998L25.3113 36.2759L25.2102 36.4157C25.1775 36.463 25.1481 36.5124 25.1167 36.5609L24.9272 36.8534C24.4389 37.6481 24.0396 38.5321 23.7131 39.469C23.0733 41.3512 22.7575 43.4295 22.6117 45.5683Z" fill="#7CC7B9"/>
<path d="M101.895 40.765H109.185L108.045 49.9C107.485 50.31 106.905 50.665 106.305 50.965C105.705 51.255 105.075 51.495 104.415 51.685C103.765 51.875 103.075 52.015 102.345 52.105C101.625 52.195 100.855 52.24 100.035 52.24C98.685 52.24 97.45 51.995 96.33 51.505C95.22 51.005 94.265 50.32 93.465 49.45C92.675 48.58 92.06 47.55 91.62 46.36C91.19 45.17 90.975 43.88 90.975 42.49C90.975 41.28 91.11 40.13 91.38 39.04C91.66 37.94 92.055 36.925 92.565 35.995C93.075 35.065 93.685 34.225 94.395 33.475C95.115 32.725 95.91 32.085 96.78 31.555C97.66 31.025 98.605 30.62 99.615 30.34C100.625 30.05 101.685 29.905 102.795 29.905C103.725 29.905 104.565 29.99 105.315 30.16C106.075 30.33 106.755 30.56 107.355 30.85C107.955 31.13 108.49 31.46 108.96 31.84C109.43 32.21 109.845 32.595 110.205 32.995L108.615 34.96C108.355 35.31 108.045 35.525 107.685 35.605C107.325 35.675 106.955 35.59 106.575 35.35C106.225 35.11 105.895 34.905 105.585 34.735C105.275 34.555 104.96 34.41 104.64 34.3C104.32 34.18 103.98 34.095 103.62 34.045C103.27 33.985 102.875 33.955 102.435 33.955C101.485 33.955 100.615 34.16 99.825 34.57C99.035 34.97 98.355 35.54 97.785 36.28C97.215 37.01 96.77 37.89 96.45 38.92C96.14 39.95 95.985 41.085 95.985 42.325C95.985 43.285 96.1 44.15 96.33 44.92C96.57 45.68 96.905 46.325 97.335 46.855C97.765 47.375 98.28 47.775 98.88 48.055C99.48 48.335 100.145 48.475 100.875 48.475C101.475 48.475 102.015 48.425 102.495 48.325C102.975 48.215 103.435 48.065 103.875 47.875L104.295 44.305H102.435C102.135 44.305 101.905 44.23 101.745 44.08C101.595 43.92 101.535 43.715 101.565 43.465L101.895 40.765ZM114.584 40.66C115.032 39.6893 115.583 38.9333 116.236 38.392C116.889 37.8413 117.687 37.566 118.63 37.566C118.929 37.566 119.213 37.5987 119.484 37.664C119.764 37.7293 120.011 37.832 120.226 37.972L120.044 39.834C119.988 40.0673 119.848 40.184 119.624 40.184C119.493 40.184 119.302 40.156 119.05 40.1C118.798 40.044 118.513 40.016 118.196 40.016C117.748 40.016 117.347 40.0813 116.992 40.212C116.647 40.3427 116.334 40.5387 116.054 40.8C115.783 41.052 115.536 41.3693 115.312 41.752C115.097 42.1253 114.901 42.5547 114.724 43.04V52H112.218V37.818H113.646C113.917 37.818 114.103 37.8693 114.206 37.972C114.309 38.0747 114.379 38.252 114.416 38.504L114.584 40.66ZM134.079 37.818V52H132.595C132.241 52 132.017 51.8273 131.923 51.482L131.727 49.956C131.111 50.6373 130.421 51.188 129.655 51.608C128.89 52.0187 128.013 52.224 127.023 52.224C126.249 52.224 125.563 52.098 124.965 51.846C124.377 51.5847 123.883 51.2207 123.481 50.754C123.08 50.2873 122.777 49.7227 122.571 49.06C122.375 48.3973 122.277 47.6647 122.277 46.862V37.818H124.769V46.862C124.769 47.9353 125.012 48.766 125.497 49.354C125.992 49.942 126.743 50.236 127.751 50.236C128.489 50.236 129.175 50.0633 129.809 49.718C130.453 49.3633 131.046 48.878 131.587 48.262V37.818H134.079ZM140.537 48.584C140.994 49.2 141.493 49.634 142.035 49.886C142.576 50.138 143.183 50.264 143.855 50.264C145.18 50.264 146.197 49.7927 146.907 48.85C147.616 47.9073 147.971 46.5633 147.971 44.818C147.971 43.894 147.887 43.1007 147.719 42.438C147.56 41.7753 147.327 41.234 147.019 40.814C146.711 40.3847 146.333 40.072 145.885 39.876C145.437 39.68 144.928 39.582 144.359 39.582C143.547 39.582 142.833 39.7687 142.217 40.142C141.61 40.5153 141.05 41.0427 140.537 41.724V48.584ZM140.411 40.016C141.008 39.2787 141.699 38.686 142.483 38.238C143.267 37.79 144.163 37.566 145.171 37.566C145.992 37.566 146.734 37.7247 147.397 38.042C148.059 38.35 148.624 38.812 149.091 39.428C149.557 40.0347 149.917 40.7907 150.169 41.696C150.421 42.6013 150.547 43.642 150.547 44.818C150.547 45.8633 150.407 46.8387 150.127 47.744C149.847 48.64 149.441 49.4193 148.909 50.082C148.386 50.7353 147.742 51.2533 146.977 51.636C146.221 52.0093 145.367 52.196 144.415 52.196C143.547 52.196 142.8 52.0513 142.175 51.762C141.559 51.4633 141.013 51.0527 140.537 50.53V56.802H138.031V37.818H139.529C139.883 37.818 140.103 37.9907 140.187 38.336L140.411 40.016ZM159.704 37.594C160.74 37.594 161.673 37.7667 162.504 38.112C163.335 38.4573 164.044 38.9473 164.632 39.582C165.22 40.2167 165.668 40.9867 165.976 41.892C166.293 42.788 166.452 43.7913 166.452 44.902C166.452 46.022 166.293 47.03 165.976 47.926C165.668 48.822 165.22 49.5873 164.632 50.222C164.044 50.8567 163.335 51.3467 162.504 51.692C161.673 52.028 160.74 52.196 159.704 52.196C158.659 52.196 157.716 52.028 156.876 51.692C156.045 51.3467 155.336 50.8567 154.748 50.222C154.16 49.5873 153.707 48.822 153.39 47.926C153.082 47.03 152.928 46.022 152.928 44.902C152.928 43.7913 153.082 42.788 153.39 41.892C153.707 40.9867 154.16 40.2167 154.748 39.582C155.336 38.9473 156.045 38.4573 156.876 38.112C157.716 37.7667 158.659 37.594 159.704 37.594ZM159.704 50.25C161.104 50.25 162.149 49.7833 162.84 48.85C163.531 47.9073 163.876 46.596 163.876 44.916C163.876 43.2267 163.531 41.9107 162.84 40.968C162.149 40.0253 161.104 39.554 159.704 39.554C158.995 39.554 158.374 39.6753 157.842 39.918C157.319 40.1607 156.881 40.5107 156.526 40.968C156.181 41.4253 155.919 41.99 155.742 42.662C155.574 43.3247 155.49 44.076 155.49 44.916C155.49 46.596 155.835 47.9073 156.526 48.85C157.226 49.7833 158.285 50.25 159.704 50.25Z" fill="#3D83C5"/>
<path d="M189.464 30.145L178.724 52H174.284L168.914 30.145H172.844C173.264 30.145 173.599 30.245 173.849 30.445C174.099 30.645 174.254 30.9 174.314 31.21L176.594 43.255C176.724 43.735 176.844 44.27 176.954 44.86C177.064 45.44 177.159 46.045 177.239 46.675C177.459 46.045 177.684 45.44 177.914 44.86C178.154 44.27 178.404 43.735 178.664 43.255L183.764 31.21C183.824 31.08 183.909 30.95 184.019 30.82C184.139 30.69 184.274 30.575 184.424 30.475C184.574 30.375 184.739 30.295 184.919 30.235C185.109 30.175 185.304 30.145 185.504 30.145H189.464Z" fill="#7FCAAC"/>
<path d="M192.254 37.818V52H189.762V37.818H192.254ZM192.786 33.366C192.786 33.6087 192.735 33.8373 192.632 34.052C192.539 34.2573 192.408 34.444 192.24 34.612C192.082 34.7707 191.89 34.8967 191.666 34.99C191.452 35.0833 191.223 35.13 190.98 35.13C190.738 35.13 190.509 35.0833 190.294 34.99C190.089 34.8967 189.907 34.7707 189.748 34.612C189.59 34.444 189.464 34.2573 189.37 34.052C189.277 33.8373 189.23 33.6087 189.23 33.366C189.23 33.1233 189.277 32.8947 189.37 32.68C189.464 32.456 189.59 32.2647 189.748 32.106C189.907 31.938 190.089 31.8073 190.294 31.714C190.509 31.6207 190.738 31.574 190.98 31.574C191.223 31.574 191.452 31.6207 191.666 31.714C191.89 31.8073 192.082 31.938 192.24 32.106C192.408 32.2647 192.539 32.456 192.632 32.68C192.735 32.8947 192.786 33.1233 192.786 33.366ZM200.703 52.224C199.583 52.224 198.72 51.9113 198.113 51.286C197.516 50.6607 197.217 49.76 197.217 48.584V39.904H195.509C195.36 39.904 195.234 39.862 195.131 39.778C195.028 39.6847 194.977 39.5447 194.977 39.358V38.364L197.301 38.07L197.875 33.688C197.903 33.548 197.964 33.436 198.057 33.352C198.16 33.2587 198.29 33.212 198.449 33.212H199.709V38.098H203.811V39.904H199.709V48.416C199.709 49.0133 199.854 49.4567 200.143 49.746C200.432 50.0353 200.806 50.18 201.263 50.18C201.524 50.18 201.748 50.1473 201.935 50.082C202.131 50.0073 202.299 49.928 202.439 49.844C202.579 49.76 202.696 49.6853 202.789 49.62C202.892 49.5453 202.98 49.508 203.055 49.508C203.186 49.508 203.302 49.5873 203.405 49.746L204.133 50.936C203.704 51.3373 203.186 51.6547 202.579 51.888C201.972 52.112 201.347 52.224 200.703 52.224ZM214.07 45.616C212.922 45.6533 211.942 45.7467 211.13 45.896C210.327 46.036 209.669 46.2227 209.156 46.456C208.652 46.6893 208.283 46.9647 208.05 47.282C207.826 47.5993 207.714 47.954 207.714 48.346C207.714 48.7193 207.775 49.0413 207.896 49.312C208.017 49.5827 208.181 49.8067 208.386 49.984C208.601 50.152 208.848 50.278 209.128 50.362C209.417 50.4367 209.725 50.474 210.052 50.474C210.491 50.474 210.892 50.432 211.256 50.348C211.62 50.2547 211.961 50.124 212.278 49.956C212.605 49.788 212.913 49.5873 213.202 49.354C213.501 49.1207 213.79 48.8547 214.07 48.556V45.616ZM206.02 39.82C206.804 39.064 207.649 38.4993 208.554 38.126C209.459 37.7527 210.463 37.566 211.564 37.566C212.357 37.566 213.062 37.6967 213.678 37.958C214.294 38.2193 214.812 38.5833 215.232 39.05C215.652 39.5167 215.969 40.0813 216.184 40.744C216.399 41.4067 216.506 42.1347 216.506 42.928V52H215.4C215.157 52 214.971 51.9627 214.84 51.888C214.709 51.804 214.607 51.6453 214.532 51.412L214.252 50.068C213.879 50.4133 213.515 50.7213 213.16 50.992C212.805 51.2533 212.432 51.4773 212.04 51.664C211.648 51.8413 211.228 51.9767 210.78 52.07C210.341 52.1727 209.851 52.224 209.31 52.224C208.759 52.224 208.241 52.1493 207.756 52C207.271 51.8413 206.846 51.608 206.482 51.3C206.127 50.992 205.843 50.6047 205.628 50.138C205.423 49.662 205.32 49.102 205.32 48.458C205.32 47.898 205.474 47.3613 205.782 46.848C206.09 46.3253 206.589 45.8633 207.28 45.462C207.971 45.0607 208.871 44.734 209.982 44.482C211.093 44.2207 212.455 44.0713 214.07 44.034V42.928C214.07 41.8267 213.832 40.996 213.356 40.436C212.88 39.8667 212.185 39.582 211.27 39.582C210.654 39.582 210.136 39.6613 209.716 39.82C209.305 39.9693 208.946 40.142 208.638 40.338C208.339 40.5247 208.078 40.6973 207.854 40.856C207.639 41.0053 207.425 41.08 207.21 41.08C207.042 41.08 206.897 41.038 206.776 40.954C206.655 40.8607 206.552 40.7487 206.468 40.618L206.02 39.82ZM222.878 31.378V52H220.386V31.378H222.878Z" fill="#7FCAAC"/>
</svg>
