<svg width="500" height="500" viewBox="0 0 500 500" fill="none" xmlns="http://www.w3.org/2000/svg">
<g clip-path="url(#clip0_49_62)">
<rect width="500" height="500" fill="white"/>
<rect x="-28.4497" width="543.884" height="498.174" fill="#7AB9F2"/>
<path d="M336.983 362.999C336.983 364.619 335.879 365.887 334.567 365.887C333.256 365.887 332.152 364.619 332.152 362.999C332.152 361.38 333.256 360.111 334.567 360.111C335.879 360.111 336.983 361.38 336.983 362.999Z" stroke="black" stroke-opacity="0.26" stroke-width="0.3"/>
<path d="M335.8 362.24C335.8 362.64 335.528 362.949 335.209 362.949C334.89 362.949 334.617 362.64 334.617 362.24C334.617 361.84 334.89 361.53 335.209 361.53C335.528 361.53 335.8 361.84 335.8 362.24Z" stroke="black" stroke-opacity="0.26" stroke-width="0.1"/>
<path d="M352.376 346.292C352.376 347.912 351.272 349.18 349.96 349.18C348.649 349.18 347.545 347.912 347.545 346.292C347.545 344.672 348.649 343.404 349.96 343.404C351.272 343.404 352.376 344.672 352.376 346.292Z" stroke="black" stroke-opacity="0.26" stroke-width="0.3"/>
<path d="M351.193 345.533C351.193 345.933 350.921 346.242 350.602 346.242C350.283 346.242 350.01 345.933 350.01 345.533C350.01 345.133 350.283 344.823 350.602 344.823C350.921 344.823 351.193 345.133 351.193 345.533Z" stroke="black" stroke-opacity="0.26" stroke-width="0.1"/>
<path d="M347.245 381.225C347.245 382.845 346.141 384.113 344.829 384.113C343.518 384.113 342.414 382.845 342.414 381.225C342.414 379.605 343.518 378.337 344.829 378.337C346.141 378.337 347.245 379.605 347.245 381.225Z" stroke="black" stroke-opacity="0.26" stroke-width="0.3"/>
<path d="M346.062 380.466C346.062 380.866 345.79 381.175 345.471 381.175C345.152 381.175 344.879 380.866 344.879 380.466C344.879 380.066 345.152 379.756 345.471 379.756C345.79 379.756 346.062 380.066 346.062 380.466Z" stroke="black" stroke-opacity="0.26" stroke-width="0.1"/>
<path d="M108.804 468.557C107.521 481.467 157.548 511.084 40.1772 506.528C-77.1941 501.972 -92.8527 520.144 -28.4497 468.557C-28.4497 447.587 32.4807 401.846 40.1772 430.587C47.8736 459.328 110.087 455.647 108.804 468.557Z" fill="#EFDC7A" fill-opacity="0.8"/>
<path d="M447.449 487.543C447.449 510.191 393.137 501.212 343.547 501.212C293.956 501.212 192.183 510.191 192.183 487.543C192.183 464.894 293.956 419.196 343.547 419.196C393.137 419.196 447.449 464.894 447.449 487.543Z" fill="#EFDC7A" fill-opacity="0.8"/>
<path d="M59.9098 378.187C59.9098 379.807 58.8056 381.075 57.4943 381.075C56.183 381.075 55.0788 379.807 55.0788 378.187C55.0788 376.568 56.183 375.3 57.4943 375.3C58.8056 375.3 59.9098 376.568 59.9098 378.187Z" stroke="black" stroke-opacity="0.26" stroke-width="0.3"/>
<path d="M58.727 377.428C58.727 377.828 58.4547 378.137 58.1356 378.137C57.8166 378.137 57.5443 377.828 57.5443 377.428C57.5443 377.028 57.8166 376.719 58.1356 376.719C58.4547 376.719 58.727 377.028 58.727 377.428Z" stroke="black" stroke-opacity="0.26" stroke-width="0.1"/>
<path d="M52.2133 350.848C52.2133 352.468 51.1091 353.736 49.7978 353.736C48.4865 353.736 47.3823 352.468 47.3823 350.848C47.3823 349.229 48.4865 347.961 49.7978 347.961C51.1091 347.961 52.2133 349.229 52.2133 350.848Z" stroke="black" stroke-opacity="0.26" stroke-width="0.3"/>
<path d="M51.0305 350.089C51.0305 350.489 50.7582 350.798 50.4392 350.798C50.1201 350.798 49.8478 350.489 49.8478 350.089C49.8478 349.689 50.1201 349.38 50.4392 349.38C50.7582 349.38 51.0305 349.689 51.0305 350.089Z" stroke="black" stroke-opacity="0.26" stroke-width="0.1"/>
<path d="M66.3235 366.037C66.3235 367.656 65.2193 368.924 63.908 368.924C62.5967 368.924 61.4925 367.656 61.4925 366.037C61.4925 364.417 62.5967 363.149 63.908 363.149C65.2193 363.149 66.3235 364.417 66.3235 366.037Z" stroke="black" stroke-opacity="0.26" stroke-width="0.3"/>
<path d="M65.1407 365.277C65.1407 365.677 64.8684 365.987 64.5493 365.987C64.2303 365.987 63.958 365.677 63.958 365.277C63.958 364.877 64.2303 364.568 64.5493 364.568C64.8684 364.568 65.1407 364.877 65.1407 365.277Z" stroke="black" stroke-opacity="0.26" stroke-width="0.1"/>
<path d="M258.885 491.815C258.885 503.986 210.478 498.426 177.606 498.426C144.735 498.426 107.847 503.986 107.847 491.815C79.0473 476.94 149.855 432.865 182.726 432.865C215.598 432.865 258.885 479.644 258.885 491.815Z" fill="#EFDC7A" fill-opacity="0.8"/>
<path d="M516.962 489.335C523.435 507.392 498.447 499.492 475.208 499.492C451.969 499.492 430.773 499.492 430.773 493.285C430.773 476.768 451.969 446.534 475.208 446.534C498.447 446.534 516.962 472.818 516.962 489.335Z" fill="#EFDC7A" fill-opacity="0.8"/>
<g opacity="0.7">
<rect x="33.6221" y="409.064" width="10.5447" height="62.7906" rx="2.5" fill="#B3EB7B" stroke="black"/>
<path d="M44.1668 414.639C44.1668 417.743 41.7825 420.214 38.8944 420.214C36.0064 420.214 33.6221 417.743 33.6221 414.639C33.6221 411.536 36.0064 409.064 38.8944 409.064C41.7825 409.064 44.1668 411.536 44.1668 414.639Z" fill="#B3EB7B" stroke="black"/>
<g filter="url(#filter0_f_49_62)">
<path d="M40.8185 429.827C40.8185 431.505 39.6699 432.865 38.2531 432.865C36.8362 432.865 35.6876 431.505 35.6876 429.827C35.6876 428.15 36.8362 426.79 38.2531 426.79C39.6699 426.79 40.8185 428.15 40.8185 429.827Z" fill="#030303"/>
</g>
<ellipse cx="37.6117" cy="429.068" rx="1.92412" ry="2.27824" fill="#030303"/>
<g filter="url(#filter1_f_49_62)">
<path d="M38.2531 448.053C38.2531 446.376 39.4017 445.016 40.8185 445.016C42.2354 445.016 43.384 446.376 43.384 448.053C43.384 449.731 42.2354 451.091 40.8185 451.091C39.4017 451.091 38.2531 449.731 38.2531 448.053Z" fill="#030303"/>
</g>
<ellipse cx="41.4599" cy="448.813" rx="1.92412" ry="2.27823" transform="rotate(-180 41.4599 448.813)" fill="#030303"/>
</g>
<g opacity="0.7">
<rect x="-0.5" y="0.5" width="10.5447" height="62.7906" rx="2.5" transform="matrix(-1 0 0 1 87.2802 408.564)" fill="#B3EB7B" stroke="black"/>
<path d="M77.2354 414.639C77.2354 417.743 79.6197 420.214 82.5078 420.214C85.3958 420.214 87.7802 417.743 87.7802 414.639C87.7802 411.536 85.3958 409.064 82.5078 409.064C79.6197 409.064 77.2354 411.536 77.2354 414.639Z" fill="#B3EB7B" stroke="black"/>
<g filter="url(#filter2_f_49_62)">
<path d="M80.5837 429.827C80.5837 431.505 81.7323 432.865 83.1492 432.865C84.5661 432.865 85.7147 431.505 85.7147 429.827C85.7147 428.15 84.5661 426.79 83.1492 426.79C81.7323 426.79 80.5837 428.15 80.5837 429.827Z" fill="#030303"/>
</g>
<ellipse cx="1.92412" cy="2.27824" rx="1.92412" ry="2.27824" transform="matrix(-1 0 0 1 85.7147 426.79)" fill="#030303"/>
<g filter="url(#filter3_f_49_62)">
<path d="M83.1492 448.053C83.1492 446.376 82.0006 445.016 80.5837 445.016C79.1668 445.016 78.0182 446.376 78.0182 448.053C78.0182 449.731 79.1668 451.091 80.5837 451.091C82.0006 451.091 83.1492 449.731 83.1492 448.053Z" fill="#030303"/>
</g>
<ellipse cx="1.92412" cy="2.27823" rx="1.92412" ry="2.27823" transform="matrix(1 0 0 -1 78.0182 451.091)" fill="#030303"/>
</g>
<g opacity="0.7">
<rect x="52.8633" y="392.357" width="10.5447" height="79.4977" rx="2.5" fill="#B3EB7B" stroke="black"/>
<path d="M63.408 399.523C63.408 401.542 62.7912 403.351 61.8179 404.643C60.8447 405.936 59.5378 406.69 58.1356 406.69C56.7335 406.69 55.4266 405.936 54.4534 404.643C53.48 403.351 52.8633 401.542 52.8633 399.523C52.8633 397.504 53.48 395.696 54.4534 394.403C55.4266 393.11 56.7335 392.357 58.1356 392.357C59.5378 392.357 60.8447 393.11 61.8179 394.403C62.7912 395.696 63.408 397.504 63.408 399.523Z" fill="#B3EB7B" stroke="black"/>
<g filter="url(#filter4_f_49_62)">
<path d="M60.0598 418.689C60.0598 420.806 58.9111 422.523 57.4943 422.523C56.0774 422.523 54.9288 420.806 54.9288 418.689C54.9288 416.572 56.0774 414.856 57.4943 414.856C58.9111 414.856 60.0598 416.572 60.0598 418.689Z" fill="#030303"/>
</g>
<ellipse cx="56.8529" cy="417.731" rx="1.92412" ry="2.87493" fill="#030303"/>
<g filter="url(#filter5_f_49_62)">
<path d="M57.4943 441.689C57.4943 439.572 58.6429 437.855 60.0598 437.855C61.4766 437.855 62.6252 439.572 62.6252 441.689C62.6252 443.806 61.4766 445.522 60.0598 445.522C58.6429 445.522 57.4943 443.806 57.4943 441.689Z" fill="#030303"/>
</g>
<ellipse cx="60.7011" cy="442.647" rx="1.92412" ry="2.87492" transform="rotate(-180 60.7011 442.647)" fill="#030303"/>
</g>
<g opacity="0.7">
<rect x="317.109" y="402.989" width="10.5447" height="62.7906" rx="2.5" fill="#B3EB7B" stroke="black"/>
<path d="M327.654 408.564C327.654 411.667 325.269 414.139 322.381 414.139C319.493 414.139 317.109 411.667 317.109 408.564C317.109 405.46 319.493 402.989 322.381 402.989C325.269 402.989 327.654 405.46 327.654 408.564Z" fill="#B3EB7B" stroke="black"/>
<g filter="url(#filter6_f_49_62)">
<path d="M324.305 423.752C324.305 425.43 323.157 426.79 321.74 426.79C320.323 426.79 319.174 425.43 319.174 423.752C319.174 422.074 320.323 420.714 321.74 420.714C323.157 420.714 324.305 422.074 324.305 423.752Z" fill="#030303"/>
</g>
<ellipse cx="321.099" cy="422.993" rx="1.92412" ry="2.27823" fill="#030303"/>
<g filter="url(#filter7_f_49_62)">
<path d="M321.74 441.978C321.74 440.3 322.888 438.94 324.305 438.94C325.722 438.94 326.871 440.3 326.871 441.978C326.871 443.656 325.722 445.016 324.305 445.016C322.888 445.016 321.74 443.656 321.74 441.978Z" fill="#030303"/>
</g>
<ellipse cx="324.947" cy="442.737" rx="1.92412" ry="2.27824" transform="rotate(-180 324.947 442.737)" fill="#030303"/>
</g>
<g opacity="0.7">
<rect x="-0.5" y="0.5" width="10.5447" height="62.7906" rx="2.5" transform="matrix(-1 0 0 1 370.767 402.489)" fill="#B3EB7B" stroke="black"/>
<path d="M360.722 408.564C360.722 411.667 363.107 414.139 365.995 414.139C368.883 414.139 371.267 411.667 371.267 408.564C371.267 405.46 368.883 402.989 365.995 402.989C363.107 402.989 360.722 405.46 360.722 408.564Z" fill="#B3EB7B" stroke="black"/>
<g filter="url(#filter8_f_49_62)">
<path d="M364.07 423.752C364.07 425.43 365.219 426.79 366.636 426.79C368.053 426.79 369.201 425.43 369.201 423.752C369.201 422.074 368.053 420.714 366.636 420.714C365.219 420.714 364.07 422.074 364.07 423.752Z" fill="#030303"/>
</g>
<ellipse cx="1.92412" cy="2.27823" rx="1.92412" ry="2.27823" transform="matrix(-1 0 0 1 369.201 420.714)" fill="#030303"/>
<g filter="url(#filter9_f_49_62)">
<path d="M366.636 441.978C366.636 440.3 365.487 438.94 364.07 438.94C362.654 438.94 361.505 440.3 361.505 441.978C361.505 443.656 362.654 445.016 364.07 445.016C365.487 445.016 366.636 443.656 366.636 441.978Z" fill="#030303"/>
</g>
<ellipse cx="1.92412" cy="2.27824" rx="1.92412" ry="2.27824" transform="matrix(1 0 0 -1 361.505 445.016)" fill="#030303"/>
</g>
<g opacity="0.7">
<rect x="336.35" y="386.281" width="10.5447" height="79.4977" rx="2.5" fill="#B3EB7B" stroke="black"/>
<path d="M346.895 393.448C346.895 395.467 346.278 397.275 345.305 398.568C344.331 399.861 343.025 400.614 341.622 400.614C340.22 400.614 338.913 399.861 337.94 398.568C336.967 397.275 336.35 395.467 336.35 393.448C336.35 391.429 336.967 389.62 337.94 388.328C338.913 387.035 340.22 386.281 341.622 386.281C343.025 386.281 344.331 387.035 345.305 388.328C346.278 389.62 346.895 391.429 346.895 393.448Z" fill="#B3EB7B" stroke="black"/>
<g filter="url(#filter10_f_49_62)">
<path d="M343.547 412.614C343.547 414.731 342.398 416.447 340.981 416.447C339.564 416.447 338.416 414.731 338.416 412.614C338.416 410.497 339.564 408.781 340.981 408.781C342.398 408.781 343.547 410.497 343.547 412.614Z" fill="#030303"/>
</g>
<ellipse cx="340.34" cy="411.656" rx="1.92412" ry="2.87492" fill="#030303"/>
<g filter="url(#filter11_f_49_62)">
<path d="M340.981 435.613C340.981 433.496 342.13 431.78 343.547 431.78C344.963 431.78 346.112 433.496 346.112 435.613C346.112 437.73 344.963 439.447 343.547 439.447C342.13 439.447 340.981 437.73 340.981 435.613Z" fill="#030303"/>
</g>
<ellipse cx="344.188" cy="436.572" rx="1.92412" ry="2.87492" transform="rotate(-180 344.188 436.572)" fill="#030303"/>
</g>
<g opacity="0.5">
<ellipse cx="256.453" cy="36.5" rx="17.5473" ry="4.8913" fill="#F89E18"/>
<path d="M242.878 36.5L229.47 42.9952V30.0048L242.878 36.5Z" fill="#F89E18"/>
</g>
<g opacity="0.5">
<ellipse cx="41.5473" cy="44.5" rx="17.5473" ry="4.8913" transform="rotate(180 41.5473 44.5)" fill="#D9D9D9"/>
<path d="M55.1216 44.5L68.5304 38.0048V50.9952L55.1216 44.5Z" fill="#D9D9D9"/>
</g>
<g opacity="0.5">
<ellipse cx="267.453" cy="170.5" rx="17.5473" ry="4.8913" fill="#F13131"/>
<path d="M253.878 170.5L240.47 176.995V164.005L253.878 170.5Z" fill="#F13131"/>
</g>
<g opacity="0.5">
<ellipse cx="54.7882" cy="127.004" rx="24.9157" ry="6.44772" transform="rotate(180 54.7882 127.004)" fill="#F1D6A3"/>
<path d="M74.0626 127.003L93.102 118.442V135.565L74.0626 127.003Z" fill="#F1D6A3"/>
</g>
<g opacity="0.5">
<ellipse cx="122.195" cy="244.12" rx="24.9157" ry="6.44772" fill="#E1B697"/>
<path d="M102.92 244.12L83.8811 252.682V235.559L102.92 244.12Z" fill="#E1B697"/>
</g>
<g opacity="0.5">
<ellipse cx="239.433" cy="392.164" rx="24.9157" ry="6.44772" fill="#F1D6A3"/>
<path d="M220.159 392.164L201.119 400.726V383.603L220.159 392.164Z" fill="#F1D6A3"/>
</g>
<g opacity="0.5">
<ellipse cx="329.257" cy="243.613" rx="24.9157" ry="6.44772" transform="rotate(180 329.257 243.613)" fill="#E499E8"/>
<path d="M348.532 243.613L367.571 235.052V252.175L348.532 243.613Z" fill="#E499E8"/>
</g>
<g opacity="0.5">
<ellipse cx="395.546" cy="57.0375" rx="24.9157" ry="6.44772" transform="rotate(180 395.546 57.0375)" fill="#FFBFBF"/>
<path d="M414.821 57.0375L433.86 48.4755V65.5995L414.821 57.0375Z" fill="#FFBFBF"/>
</g>
<g opacity="0.5">
<ellipse cx="239.433" cy="392.164" rx="24.9157" ry="6.44772" fill="#F1D6A3"/>
<path d="M220.159 392.164L201.119 400.726V383.603L220.159 392.164Z" fill="#F1D6A3"/>
</g>
<g opacity="0.5">
<ellipse cx="329.257" cy="243.613" rx="24.9157" ry="6.44772" transform="rotate(180 329.257 243.613)" fill="#E499E8"/>
<path d="M348.532 243.613L367.571 235.052V252.175L348.532 243.613Z" fill="#E499E8"/>
</g>
<g opacity="0.5">
<ellipse cx="395.546" cy="57.0375" rx="24.9157" ry="6.44772" transform="rotate(180 395.546 57.0375)" fill="#FFBFBF"/>
<path d="M414.821 57.0375L433.86 48.4755V65.5995L414.821 57.0375Z" fill="#FFBFBF"/>
</g>
</g>
<defs>
<filter id="filter0_f_49_62" x="31.6876" y="422.79" width="13.131" height="14.0753" filterUnits="userSpaceOnUse" color-interpolation-filters="sRGB">
<feFlood flood-opacity="0" result="BackgroundImageFix"/>
<feBlend mode="normal" in="SourceGraphic" in2="BackgroundImageFix" result="shape"/>
<feGaussianBlur stdDeviation="2" result="effect1_foregroundBlur_49_62"/>
</filter>
<filter id="filter1_f_49_62" x="34.2531" y="441.016" width="13.131" height="14.0753" filterUnits="userSpaceOnUse" color-interpolation-filters="sRGB">
<feFlood flood-opacity="0" result="BackgroundImageFix"/>
<feBlend mode="normal" in="SourceGraphic" in2="BackgroundImageFix" result="shape"/>
<feGaussianBlur stdDeviation="2" result="effect1_foregroundBlur_49_62"/>
</filter>
<filter id="filter2_f_49_62" x="76.5837" y="422.79" width="13.131" height="14.0753" filterUnits="userSpaceOnUse" color-interpolation-filters="sRGB">
<feFlood flood-opacity="0" result="BackgroundImageFix"/>
<feBlend mode="normal" in="SourceGraphic" in2="BackgroundImageFix" result="shape"/>
<feGaussianBlur stdDeviation="2" result="effect1_foregroundBlur_49_62"/>
</filter>
<filter id="filter3_f_49_62" x="74.0182" y="441.016" width="13.131" height="14.0753" filterUnits="userSpaceOnUse" color-interpolation-filters="sRGB">
<feFlood flood-opacity="0" result="BackgroundImageFix"/>
<feBlend mode="normal" in="SourceGraphic" in2="BackgroundImageFix" result="shape"/>
<feGaussianBlur stdDeviation="2" result="effect1_foregroundBlur_49_62"/>
</filter>
<filter id="filter4_f_49_62" x="50.9288" y="410.856" width="13.131" height="15.6665" filterUnits="userSpaceOnUse" color-interpolation-filters="sRGB">
<feFlood flood-opacity="0" result="BackgroundImageFix"/>
<feBlend mode="normal" in="SourceGraphic" in2="BackgroundImageFix" result="shape"/>
<feGaussianBlur stdDeviation="2" result="effect1_foregroundBlur_49_62"/>
</filter>
<filter id="filter5_f_49_62" x="53.4943" y="433.855" width="13.131" height="15.6664" filterUnits="userSpaceOnUse" color-interpolation-filters="sRGB">
<feFlood flood-opacity="0" result="BackgroundImageFix"/>
<feBlend mode="normal" in="SourceGraphic" in2="BackgroundImageFix" result="shape"/>
<feGaussianBlur stdDeviation="2" result="effect1_foregroundBlur_49_62"/>
</filter>
<filter id="filter6_f_49_62" x="315.174" y="416.714" width="13.131" height="14.0753" filterUnits="userSpaceOnUse" color-interpolation-filters="sRGB">
<feFlood flood-opacity="0" result="BackgroundImageFix"/>
<feBlend mode="normal" in="SourceGraphic" in2="BackgroundImageFix" result="shape"/>
<feGaussianBlur stdDeviation="2" result="effect1_foregroundBlur_49_62"/>
</filter>
<filter id="filter7_f_49_62" x="317.74" y="434.94" width="13.131" height="14.0753" filterUnits="userSpaceOnUse" color-interpolation-filters="sRGB">
<feFlood flood-opacity="0" result="BackgroundImageFix"/>
<feBlend mode="normal" in="SourceGraphic" in2="BackgroundImageFix" result="shape"/>
<feGaussianBlur stdDeviation="2" result="effect1_foregroundBlur_49_62"/>
</filter>
<filter id="filter8_f_49_62" x="360.07" y="416.714" width="13.131" height="14.0753" filterUnits="userSpaceOnUse" color-interpolation-filters="sRGB">
<feFlood flood-opacity="0" result="BackgroundImageFix"/>
<feBlend mode="normal" in="SourceGraphic" in2="BackgroundImageFix" result="shape"/>
<feGaussianBlur stdDeviation="2" result="effect1_foregroundBlur_49_62"/>
</filter>
<filter id="filter9_f_49_62" x="357.505" y="434.94" width="13.131" height="14.0753" filterUnits="userSpaceOnUse" color-interpolation-filters="sRGB">
<feFlood flood-opacity="0" result="BackgroundImageFix"/>
<feBlend mode="normal" in="SourceGraphic" in2="BackgroundImageFix" result="shape"/>
<feGaussianBlur stdDeviation="2" result="effect1_foregroundBlur_49_62"/>
</filter>
<filter id="filter10_f_49_62" x="334.416" y="404.781" width="13.131" height="15.6664" filterUnits="userSpaceOnUse" color-interpolation-filters="sRGB">
<feFlood flood-opacity="0" result="BackgroundImageFix"/>
<feBlend mode="normal" in="SourceGraphic" in2="BackgroundImageFix" result="shape"/>
<feGaussianBlur stdDeviation="2" result="effect1_foregroundBlur_49_62"/>
</filter>
<filter id="filter11_f_49_62" x="336.981" y="427.78" width="13.131" height="15.6664" filterUnits="userSpaceOnUse" color-interpolation-filters="sRGB">
<feFlood flood-opacity="0" result="BackgroundImageFix"/>
<feBlend mode="normal" in="SourceGraphic" in2="BackgroundImageFix" result="shape"/>
<feGaussianBlur stdDeviation="2" result="effect1_foregroundBlur_49_62"/>
</filter>
<clipPath id="clip0_49_62">
<rect width="500" height="500" fill="white"/>
</clipPath>
</defs>
</svg>
