<svg width="157" height="47" viewBox="0 0 157 47" fill="none" xmlns="http://www.w3.org/2000/svg">
<path d="M5.50005 20L6.79837 20H11V24H7.60081H5.5H0L3.23712 22.0406L0 20H4.20163L5.50005 20Z" fill="#FF2828"/>
<path d="M33.5951 1H134V46H33.5951L24.5587 38.5L10 30V13L24.5587 8L33.5951 1Z" fill="#919D12"/>
<path d="M134 33.5001C134 37.09 129.971 40.0001 125 40.0001C125 30 125 34 125 34C125 30.4102 125 32 125 27C129.97 27 134 29.9103 134 33.5001Z" fill="#919D12"/>
<path d="M126.154 27L126.156 26.99H126.154V27ZM130.574 38.5L130.569 38.4912L130.574 38.5ZM129.64 39L129.643 39.0097L129.644 39.0088L129.64 39ZM128.083 39.5L128.085 39.5097L128.086 39.5095L128.083 39.5ZM126.214 40V40.0104L126.216 40.0097L126.214 40ZM125 39.99C124.995 39.99 124.99 39.9945 124.99 40C124.99 40.0055 124.995 40.01 125 40.01V39.99ZM133.066 36.5L133.073 36.5079L133.075 36.5038L133.066 36.5ZM131.508 38L131.513 38.0092L131.515 38.0072L131.508 38ZM134 34L134.01 34.0031V34H134ZM133.689 35L133.698 35.0039L133.698 35.003L133.689 35ZM133.066 30.5L133.074 30.4945L133.073 30.4928L133.066 30.5ZM133.377 31L133.387 30.9969L133.386 30.9947L133.377 31ZM134 33H134.01L134.01 32.997L134 33ZM129.64 28L129.644 27.9911L129.643 27.9907L129.64 28ZM131.508 29L131.516 28.9925L131.513 28.9912L131.508 29ZM128.394 27.5L128.398 27.4906L128.396 27.4902L128.394 27.5ZM125 27.01H126.154V26.99H125V27.01ZM130.569 38.4912L129.635 38.9912L129.644 39.0088L130.579 38.5088L130.569 38.4912ZM129.637 38.9905L128.079 39.4905L128.086 39.5095L129.643 39.0095L129.637 38.9905ZM128.08 39.4903L126.211 39.9903L126.216 40.0097L128.085 39.5097L128.08 39.4903ZM126.214 39.99H125V40.01H126.214V39.99ZM133.059 36.4928L131.501 37.9928L131.515 38.0072L133.073 36.5072L133.059 36.4928ZM131.504 37.9912L130.569 38.4912L130.579 38.5088L131.513 38.0088L131.504 37.9912ZM133.99 33.5V34H134.01V33.5H133.99ZM133.99 33.997L133.679 34.997L133.698 35.003L134.01 34.003L133.99 33.997ZM133.057 30.5053L133.369 31.0053L133.386 30.9947L133.074 30.4947L133.057 30.5053ZM133.368 31.003L133.679 32.003L133.698 31.997L133.387 30.997L133.368 31.003ZM133.679 32.003L133.99 33.003L134.01 32.997L133.698 31.997L133.679 32.003ZM133.99 33V33.5H134.01V33H133.99ZM129.635 28.0088L131.504 29.0088L131.513 28.9912L129.644 27.9912L129.635 28.0088ZM131.501 29.0072L133.059 30.5072L133.073 30.4928L131.515 28.9928L131.501 29.0072ZM126.151 27.0098L128.392 27.5098L128.396 27.4902L126.156 26.9902L126.151 27.0098ZM128.39 27.5093L129.636 28.0093L129.643 27.9907L128.398 27.4907L128.39 27.5093ZM133.679 34.9962L133.056 36.4962L133.075 36.5038L133.698 35.0038L133.679 34.9962Z" fill="black"/>
<path d="M134 20.5001C134 24.0899 129.971 27 125 27C125 17 125 20.9999 125 20.9999C125 17.4101 125 18.9999 125 14C129.97 14 134 16.9103 134 20.5001Z" fill="#919D12"/>
<path d="M126.153 14L126.156 13.99H126.153V14ZM130.574 25.5L130.569 25.4912L130.574 25.5ZM129.64 26L129.643 26.0097L129.644 26.0088L129.64 26ZM128.082 26.5L128.085 26.5097L128.085 26.5095L128.082 26.5ZM126.214 27V27.0104L126.216 27.0097L126.214 27ZM125 26.99C124.994 26.99 124.99 26.9945 124.99 27C124.99 27.0055 124.994 27.01 125 27.01V26.99ZM133.066 23.5L133.073 23.5079L133.075 23.5038L133.066 23.5ZM131.508 25L131.513 25.0092L131.515 25.0072L131.508 25ZM134 21L134.01 21.0031V21H134ZM133.689 22L133.698 22.0039L133.698 22.003L133.689 22ZM133.066 17.5L133.074 17.4945L133.073 17.4928L133.066 17.5ZM133.377 18L133.387 17.9969L133.386 17.9947L133.377 18ZM134 20H134.01L134.01 19.997L134 20ZM129.64 15L129.644 14.9911L129.643 14.9907L129.64 15ZM131.508 16L131.516 15.9925L131.513 15.9912L131.508 16ZM128.394 14.5L128.398 14.4906L128.396 14.4902L128.394 14.5ZM125 14.01H126.153V13.99H125V14.01ZM130.569 25.4912L129.635 25.9912L129.644 26.0088L130.579 25.5088L130.569 25.4912ZM129.637 25.9905L128.079 26.4905L128.085 26.5095L129.643 26.0095L129.637 25.9905ZM128.08 26.4903L126.211 26.9903L126.216 27.0097L128.085 26.5097L128.08 26.4903ZM126.214 26.99H125V27.01H126.214V26.99ZM133.059 23.4928L131.501 24.9928L131.515 25.0072L133.073 23.5072L133.059 23.4928ZM131.504 24.9912L130.569 25.4912L130.579 25.5088L131.513 25.0088L131.504 24.9912ZM133.99 20.5V21H134.01V20.5H133.99ZM133.99 20.997L133.679 21.997L133.698 22.003L134.01 21.003L133.99 20.997ZM133.057 17.5053L133.369 18.0053L133.386 17.9947L133.074 17.4947L133.057 17.5053ZM133.368 18.003L133.679 19.003L133.698 18.997L133.387 17.997L133.368 18.003ZM133.679 19.003L133.99 20.003L134.01 19.997L133.698 18.997L133.679 19.003ZM133.99 20V20.5H134.01V20H133.99ZM129.635 15.0088L131.504 16.0088L131.513 15.9912L129.644 14.9912L129.635 15.0088ZM131.501 16.0072L133.059 17.5072L133.073 17.4928L131.515 15.9928L131.501 16.0072ZM126.151 14.0098L128.392 14.5098L128.396 14.4902L126.156 13.9902L126.151 14.0098ZM128.39 14.5093L129.636 15.0093L129.643 14.9907L128.397 14.4907L128.39 14.5093ZM133.679 21.9962L133.056 23.4962L133.075 23.5038L133.698 22.0038L133.679 21.9962Z" fill="black"/>
<path d="M134 7.50014C134 11.09 129.971 14.0001 125 14.0001C125 4 125 8.00002 125 8.00002C125 4.41017 125 6 125 1C129.97 1 134 3.91029 134 7.50014Z" fill="#919D12"/>
<path d="M126.154 1L126.156 0.99H126.154V1ZM130.574 12.5L130.569 12.4912L130.574 12.5ZM129.64 13L129.643 13.0097L129.644 13.0088L129.64 13ZM128.083 13.5L128.085 13.5097L128.086 13.5095L128.083 13.5ZM126.214 14V14.0104L126.216 14.0097L126.214 14ZM125 13.99C124.995 13.99 124.99 13.9945 124.99 14C124.99 14.0055 124.995 14.01 125 14.01V13.99ZM133.066 10.5L133.073 10.5079L133.075 10.5038L133.066 10.5ZM131.508 12L131.513 12.0092L131.515 12.0072L131.508 12ZM134 8L134.01 8.00311V8H134ZM133.689 9L133.698 9.00385L133.698 9.00297L133.689 9ZM133.066 4.5L133.074 4.49455L133.073 4.4928L133.066 4.5ZM133.377 5L133.387 4.99693L133.386 4.99471L133.377 5ZM134 7H134.01L134.01 6.99703L134 7ZM129.64 2L129.644 1.99113L129.643 1.99072L129.64 2ZM131.508 3L131.516 2.99252L131.513 2.99118L131.508 3ZM128.394 1.5L128.398 1.4906L128.396 1.49024L128.394 1.5ZM125 1.01L126.154 1.01V0.99L125 0.99V1.01ZM130.569 12.4912L129.635 12.9912L129.644 13.0088L130.579 12.5088L130.569 12.4912ZM129.637 12.9905L128.079 13.4905L128.086 13.5095L129.643 13.0095L129.637 12.9905ZM128.08 13.4903L126.211 13.9903L126.216 14.0097L128.085 13.5097L128.08 13.4903ZM126.214 13.99H125V14.01H126.214V13.99ZM133.059 10.4928L131.501 11.9928L131.515 12.0072L133.073 10.5072L133.059 10.4928ZM131.504 11.9912L130.569 12.4912L130.579 12.5088L131.513 12.0088L131.504 11.9912ZM133.99 7.5V8H134.01V7.5H133.99ZM133.99 7.99703L133.679 8.99703L133.698 9.00297L134.01 8.00297L133.99 7.99703ZM133.057 4.50529L133.369 5.00529L133.386 4.99471L133.074 4.49471L133.057 4.50529ZM133.368 5.00297L133.679 6.00297L133.698 5.99703L133.387 4.99703L133.368 5.00297ZM133.679 6.00297L133.99 7.00297L134.01 6.99703L133.698 5.99703L133.679 6.00297ZM133.99 7V7.5H134.01V7H133.99ZM129.635 2.00882L131.504 3.00882L131.513 2.99118L129.644 1.99118L129.635 2.00882ZM131.501 3.0072L133.059 4.5072L133.073 4.4928L131.515 2.9928L131.501 3.0072ZM126.151 1.00976L128.392 1.50976L128.396 1.49024L126.156 0.99024L126.151 1.00976ZM128.39 1.50928L129.636 2.00928L129.643 1.99072L128.398 1.49072L128.39 1.50928ZM133.679 8.99616L133.056 10.4962L133.075 10.5038L133.698 9.00383L133.679 8.99616Z" fill="black"/>
<path d="M134 46C130.896 46 129.523 46 124 46C124 35.9999 124.001 47 124.001 47C124.001 43.4102 124.001 45 124 40C129.523 40 133.31 42.5 134 46Z" fill="#919D12"/>
<path d="M124 40H125.282L127.771 40.5L129.155 41L131.232 42L132.962 43.5L133.308 44L133.654 45L134 46H133.655H133.31H132.962H132.276H130.896H130.207H129.155H127.448H125.282H124" stroke="black" stroke-width="0.02"/>
<path d="M127.5 33.5001C127.5 37.09 121.009 40.0001 113 40.0001C113 30 113 34 113 34C113 30.4102 113 32 113 27C121.008 27 127.5 29.9103 127.5 33.5001Z" fill="#919D12"/>
<path d="M113 27H114.859L118.468 27.5L120.475 28L123.486 29L125.995 30.5L126.497 31L126.999 32L127.5 33V33.5V34L126.999 35L125.995 36.5L123.486 38L121.981 38.5L120.475 39L117.966 39.5L114.956 40H113" stroke="black" stroke-width="0.02"/>
<path d="M127.5 20.5001C127.5 24.09 121.009 27.0001 113 27.0001C113 17 113 21 113 21C113 17.4102 113 19 113 14C121.008 14 127.5 16.9103 127.5 20.5001Z" fill="#919D12"/>
<path d="M113 14H114.859L118.468 14.5L120.475 15L123.486 16L125.995 17.5L126.497 18L126.999 19L127.5 20V20.5V21L126.999 22L125.995 23.5L123.486 25L121.981 25.5L120.475 26L117.966 26.5L114.956 27H113" stroke="black" stroke-width="0.02"/>
<path d="M127.5 7.50014C127.5 11.09 121.009 14.0001 113 14.0001C113 4 113 8.00002 113 8.00002C113 4.41017 113 6 113 1C121.008 1 127.5 3.91029 127.5 7.50014Z" fill="#919D12"/>
<path d="M113 1L114.859 1L118.468 1.5L120.475 2L123.486 3L125.995 4.5L126.497 5L126.999 6L127.5 7V7.5V8L126.999 9L125.995 10.5L123.486 12L121.981 12.5L120.475 13L117.966 13.5L114.956 14H113" stroke="black" stroke-width="0.02"/>
<path d="M126.5 46C122 46 120.008 46 112 46C112 35.9999 112.001 47 112.001 47C112.001 43.4102 112.001 45 112 40C120.009 40 125.5 42.5 126.5 46Z" fill="#919D12"/>
<path d="M112 40H113.859L117.468 40.5L119.475 41L122.486 42L124.995 43.5L125.497 44L125.999 45L126.5 46H126H125.5H124.995H124H122H121H119.475H117H113.859H112" stroke="black" stroke-width="0.02"/>
<path d="M114.5 33.5001C114.5 37.09 108.009 40.0001 100 40.0001C100 30 100 34 100 34C100 30.4102 100 32 100 27C108.008 27 114.5 29.9103 114.5 33.5001Z" fill="#919D12"/>
<path d="M100 27H101.859L105.468 27.5L107.475 28L110.486 29L112.995 30.5L113.497 31L113.999 32L114.5 33V33.5V34L113.999 35L112.995 36.5L110.486 38L108.981 38.5L107.475 39L104.966 39.5L101.956 40H100" stroke="black" stroke-width="0.02"/>
<path d="M114.5 20.5001C114.5 24.09 108.009 27.0001 100 27.0001C100 17 100 21 100 21C100 17.4102 100 19 100 14C108.008 14 114.5 16.9103 114.5 20.5001Z" fill="#919D12"/>
<path d="M100 14H101.859L105.468 14.5L107.475 15L110.486 16L112.995 17.5L113.497 18L113.999 19L114.5 20V20.5V21L113.999 22L112.995 23.5L110.486 25L108.981 25.5L107.475 26L104.966 26.5L101.956 27H100" stroke="black" stroke-width="0.02"/>
<path d="M114.5 7.50014C114.5 11.09 108.009 14.0001 100 14.0001C100 4 100 8.00002 100 8.00002C100 4.41017 100 6 100 1C108.008 1 114.5 3.91029 114.5 7.50014Z" fill="#919D12"/>
<path d="M100 1L101.859 1L105.468 1.5L107.475 2L110.486 3L112.995 4.5L113.497 5L113.999 6L114.5 7V7.5V8L113.999 9L112.995 10.5L110.486 12L108.981 12.5L107.475 13L104.966 13.5L101.956 14H100" stroke="black" stroke-width="0.02"/>
<path d="M113.5 46C109 46 107.008 46 99.0001 46C98.9997 35.9999 99.0007 47 99.0007 47C99.0007 43.4102 99.0009 45 99.0004 40C107.009 40 112.5 42.5 113.5 46Z" fill="#919D12"/>
<path d="M99.0005 40H100.859L104.468 40.5L106.475 41L109.486 42L111.995 43.5L112.497 44L112.999 45L113.5 46H113H112.5H111.995H111H109H108H106.475H104H100.859H99.0005" stroke="black" stroke-width="0.02"/>
<path d="M102.5 33.5001C102.5 37.09 96.0086 40.0001 88.0004 40.0001C88 30 88.0003 34 88.0003 34C88.0003 30.4102 88.0005 32 88 27C96.0081 27 102.5 29.9103 102.5 33.5001Z" fill="#919D12"/>
<path d="M88.0005 27H89.8586L93.4682 27.5L95.4754 28L98.4862 29L100.995 30.5L101.497 31L101.999 32L102.5 33V33.5V34L101.999 35L100.995 36.5L98.4862 38L96.9808 38.5L95.4754 39L92.9664 39.5L89.9557 40H88.0005" stroke="black" stroke-width="0.03"/>
<path d="M102.5 20.5001C102.5 24.09 96.0086 27.0001 88.0004 27.0001C88 17 88.0003 21 88.0003 21C88.0003 17.4102 88.0005 19 88 14C96.0081 14 102.5 16.9103 102.5 20.5001Z" fill="#919D12"/>
<path d="M88.0005 14H89.8586L93.4682 14.5L95.4754 15L98.4862 16L100.995 17.5L101.497 18L101.999 19L102.5 20V20.5V21L101.999 22L100.995 23.5L98.4862 25L96.9808 25.5L95.4754 26L92.9664 26.5L89.9557 27H88.0005" stroke="black" stroke-width="0.03"/>
<path d="M102.5 7.50014C102.5 11.09 96.0086 14.0001 88.0004 14.0001C88 4 88.0003 8.00002 88.0003 8.00002C88.0003 4.41017 88.0005 6 88 1C96.0081 1 102.5 3.91029 102.5 7.50014Z" fill="#919D12"/>
<path d="M88.0005 1L89.8586 1L93.4682 1.5L95.4754 2L98.4862 3L100.995 4.5L101.497 5L101.999 6L102.5 7V7.5V8L101.999 9L100.995 10.5L98.4862 12L96.9808 12.5L95.4754 13L92.9664 13.5L89.9557 14H88.0005" stroke="black" stroke-width="0.03"/>
<path d="M101.5 46C97 46 95.0082 46 87.0001 46C86.9997 35.9999 87.0007 47 87.0007 47C87.0007 43.4102 87.0009 45 87.0004 40C95.0085 40 100.5 42.5 101.5 46Z" fill="#919D12"/>
<path d="M87.0005 40H88.8586L92.4682 40.5L94.4754 41L97.4862 42L99.9951 43.5L100.497 44L100.999 45L101.5 46H101H100.5H99.9951H99H97H96H94.4754H92H88.8586H87.0005" stroke="black" stroke-width="0.02"/>
<path d="M89.5 46C85 46 83.0082 46 75.0001 46C74.9997 35.9999 75.0007 47 75.0007 47C75.0007 43.4102 75.0009 45 75.0004 40C83.0085 40 88.5 42.5 89.5 46Z" fill="#919D12"/>
<path d="M75.0005 40H76.8586L80.4682 40.5L82.4754 41L85.4862 42L87.9951 43.5L88.4969 44L88.9987 45L89.5005 46H89H88.5H87.9951H87H85H84H82.4754H80H76.8586H75.0005" stroke="black" stroke-width="0.02"/>
<path d="M75.5 46C71 46 69.0082 46 61.0001 46C60.9997 35.9999 61.0007 47 61.0007 47C61.0007 43.4102 61.0009 45 61.0004 40C69.0085 40 74.5 42.5 75.5 46Z" fill="#919D12"/>
<path d="M61.0005 40H62.8586L66.4682 40.5L68.4754 41L71.4862 42L73.9951 43.5L74.4969 44L74.9987 45L75.5005 46H75H74.5H73.9951H73H71H70H68.4754H66H62.8586H61.0005" stroke="black" stroke-width="0.02"/>
<path d="M90.5004 33.5001C90.5004 37.09 84.0086 40.0001 76.0004 40.0001C76 30 76.0003 34 76.0003 34C76.0003 30.4102 76.0005 32 76 27C84.0081 27 90.5004 29.9103 90.5004 33.5001Z" fill="#919D12"/>
<path d="M76.0005 27H77.8586L81.4682 27.5L83.4754 28L86.4862 29L88.9951 30.5L89.4969 31L89.9987 32L90.5005 33V33.5V34L89.9987 35L88.9951 36.5L86.4862 38L84.9808 38.5L83.4754 39L80.9664 39.5L77.9557 40H76.0005" stroke="black" stroke-width="0.02"/>
<path d="M90.5004 20.5001C90.5004 24.09 84.0086 27.0001 76.0004 27.0001C76 17 76.0003 21 76.0003 21C76.0003 17.4102 76.0005 19 76 14C84.0081 14 90.5004 16.9103 90.5004 20.5001Z" fill="#919D12"/>
<path d="M76.0005 14H77.8586L81.4682 14.5L83.4754 15L86.4862 16L88.9951 17.5L89.4969 18L89.9987 19L90.5005 20V20.5V21L89.9987 22L88.9951 23.5L86.4862 25L84.9808 25.5L83.4754 26L80.9664 26.5L77.9557 27H76.0005" stroke="black" stroke-width="0.02"/>
<path d="M90.5004 7.50014C90.5004 11.09 84.0086 14.0001 76.0004 14.0001C76 4 76.0003 8.00002 76.0003 8.00002C76.0003 4.41017 76.0005 6 76 1C84.0081 1 90.5004 3.91029 90.5004 7.50014Z" fill="#919D12"/>
<path d="M76.0005 1L77.8586 1L81.4682 1.5L83.4754 2L86.4862 3L88.9951 4.5L89.4969 5L89.9987 6L90.5005 7V7.5V8L89.9987 9L88.9951 10.5L86.4862 12L84.9808 12.5L83.4754 13L80.9664 13.5L77.9557 14H76.0005" stroke="black" stroke-width="0.02"/>
<path d="M61.5 46C57 46 55.0082 46 47.0001 46C46.9997 35.9999 47.0007 47 47.0007 47C47.0007 43.4102 47.0009 45 47.0004 40C55.0085 40 60.5 42.5 61.5 46Z" fill="#919D12"/>
<path d="M47.0005 40H48.8586L52.4682 40.5L54.4754 41L57.4862 42L59.9951 43.5L60.4969 44L60.9987 45L61.5005 46H61H60.5H59.9951H59H57H56H54.4754H52H48.8586H47.0005" stroke="black" stroke-width="0.02"/>
<path d="M76.5004 33.5001C76.5004 37.09 70.0086 40.0001 62.0004 40.0001C62 30 62.0003 34 62.0003 34C62.0003 30.4102 62.0005 32 62 27C70.0081 27 76.5004 29.9103 76.5004 33.5001Z" fill="#919D12"/>
<path d="M62.0005 27H63.8586L67.4682 27.5L69.4754 28L72.4862 29L74.9951 30.5L75.4969 31L75.9987 32L76.5005 33V33.5V34L75.9987 35L74.9951 36.5L72.4862 38L70.9808 38.5L69.4754 39L66.9664 39.5L63.9557 40H62.0005" stroke="black" stroke-width="0.02"/>
<path d="M76.5004 20.5001C76.5004 24.09 70.0086 27.0001 62.0004 27.0001C62 17 62.0003 21 62.0003 21C62.0003 17.4102 62.0005 19 62 14C70.0081 14 76.5004 16.9103 76.5004 20.5001Z" fill="#919D12"/>
<path d="M62.0005 14H63.8586L67.4682 14.5L69.4754 15L72.4862 16L74.9951 17.5L75.4969 18L75.9987 19L76.5005 20V20.5V21L75.9987 22L74.9951 23.5L72.4862 25L70.9808 25.5L69.4754 26L66.9664 26.5L63.9557 27H62.0005" stroke="black" stroke-width="0.02"/>
<path d="M76.5004 7.50014C76.5004 11.09 70.0086 14.0001 62.0004 14.0001C62 4 62.0003 8.00002 62.0003 8.00002C62.0003 4.41017 62.0005 6 62 1C70.0081 1 76.5004 3.91029 76.5004 7.50014Z" fill="#919D12"/>
<path d="M62.0005 1L63.8586 1L67.4682 1.5L69.4754 2L72.4862 3L74.9951 4.5L75.4969 5L75.9987 6L76.5005 7V7.5V8L75.9987 9L74.9951 10.5L72.4862 12L70.9808 12.5L69.4754 13L66.9664 13.5L63.9557 14H62.0005" stroke="black" stroke-width="0.02"/>
<path d="M61.5004 33.5001C61.5004 37.09 55.0086 40.0001 47.0004 40.0001C47 30 47.0003 34 47.0003 34C47.0003 30.4102 47.0005 32 47 27C55.0081 27 61.5004 29.9103 61.5004 33.5001Z" fill="#919D12"/>
<path d="M47.0005 27H48.8586L52.4682 27.5L54.4754 28L57.4862 29L59.9951 30.5L60.4969 31L60.9987 32L61.5005 33V33.5V34L60.9987 35L59.9951 36.5L57.4862 38L55.9808 38.5L54.4754 39L51.9664 39.5L48.9557 40H47.0005" stroke="black" stroke-width="0.02"/>
<path d="M61.5004 20.5001C61.5004 24.09 55.0086 27.0001 47.0004 27.0001C47 17 47.0003 21 47.0003 21C47.0003 17.4102 47.0005 19 47 14C55.0081 14 61.5004 16.9103 61.5004 20.5001Z" fill="#919D12"/>
<path d="M47.0005 14H48.8586L52.4682 14.5L54.4754 15L57.4862 16L59.9951 17.5L60.4969 18L60.9987 19L61.5005 20V20.5V21L60.9987 22L59.9951 23.5L57.4862 25L55.9808 25.5L54.4754 26L51.9664 26.5L48.9557 27H47.0005" stroke="black" stroke-width="0.02"/>
<path d="M61.5004 7.50014C61.5004 11.09 55.0086 14.0001 47.0004 14.0001C47 4 47.0003 8.00002 47.0003 8.00002C47.0003 4.41017 47.0005 6 47 1C55.0081 1 61.5004 3.91029 61.5004 7.50014Z" fill="#919D12"/>
<path d="M47.0005 1L48.8586 1L52.4682 1.5L54.4754 2L57.4862 3L59.9951 4.5L60.4969 5L60.9987 6L61.5005 7V7.5V8L60.9987 9L59.9951 10.5L57.4862 12L55.9808 12.5L54.4754 13L51.9664 13.5L48.9557 14H47.0005" stroke="black" stroke-width="0.02"/>
<ellipse cx="33.5" cy="15" rx="7.5" ry="5" fill="white"/>
<path d="M32 15.5C32 16.3284 30.6569 17 29 17C27.3431 17 26 16.3284 26 15.5C26 14.6716 27.3431 14 29 14C30.6569 14 32 14.6716 32 15.5Z" fill="black"/>
<ellipse cx="33.5" cy="30" rx="7.5" ry="5" fill="white"/>
<path d="M32 30.5C32 31.3284 30.6569 32 29 32C27.3431 32 26 31.3284 26 30.5C26 29.6716 27.3431 29 29 29C30.6569 29 32 29.6716 32 30.5Z" fill="black"/>
<ellipse cx="13.5" cy="17.5" rx="1.5" ry="0.5" fill="black"/>
<ellipse cx="13.5" cy="26.5" rx="1.5" ry="0.5" fill="black"/>
<path d="M134.01 46C146.436 46 156.51 35.9264 156.51 23.5C156.51 11.0736 146.436 1 134.01 1V46ZM134 46H134.01V1H134V46Z" fill="#919D12"/>
</svg>
