<svg width="84" height="84" viewBox="0 0 84 84" fill="none" xmlns="http://www.w3.org/2000/svg">
<rect width="84" height="84" fill="#962525"/>
<rect width="84" height="84" fill="#ED6F6F"/>
<path d="M43 23C45.3869 23 47.6761 23.9482 49.364 25.636C51.0518 27.3239 52 29.6131 52 32C52 34.3869 51.0518 36.6761 49.364 38.364C47.6761 40.0518 45.3869 41 43 41C40.6131 41 38.3239 40.0518 36.636 38.364C34.9482 36.6761 34 34.3869 34 32C34 29.6131 34.9482 27.3239 36.636 25.636C38.3239 23.9482 40.6131 23 43 23ZM43 45.5C52.945 45.5 61 49.5275 61 54.5V59H25V54.5C25 49.5275 33.055 45.5 43 45.5Z" fill="black"/>
</svg>
